P2
100 62
255
0 0 0 0 0 0 0 0 0 0 0 0 0 0 0 0 0 0 0 0 0 0 0 0 0 0 0 0 0 0 0 0 0 0 0 0 0 0 0 
0 0 0 0 0 0 0 0 0 0 0 0 0 0 0 0 0 0 0 0 0 0 0 0 0 0 0 0 0 0 0 0 0 0 0 0 0 0 0 
0 0 0 0 0 0 0 0 0 0 0 0 0 0 0 0 0 0 0 0 0 0 0 0 0 0 0 0 0 0 0 0 0 0 0 0 0 0 0 
0 0 0 0 0 0 0 0 0 0 0 0 0 0 0 0 0 0 0 0 0 0 0 0 0 0 0 0 0 0 0 0 0 0 0 0 0 0 0 
0 0 0 0 0 0 0 0 0 0 0 0 0 0 0 0 0 0 0 0 0 0 0 0 0 0 0 0 0 0 0 0 0 0 0 0 0 0 0 
0 0 0 0 0 0 0 0 0 0 0 0 0 0 0 0 0 0 0 0 0 0 0 0 0 0 0 0 0 0 0 0 0 0 0 0 0 0 0 
0 0 0 0 0 0 0 0 0 0 0 0 0 0 0 0 0 0 0 0 0 0 0 0 0 0 0 0 0 0 0 0 0 0 0 0 0 0 0 
0 0 0 0 0 0 0 0 0 0 0 0 0 0 0 0 0 0 0 0 0 0 0 0 0 0 0 0 0 0 0 0 0 0 0 0 0 0 0 
0 0 0 0 0 0 0 0 0 0 0 0 0 0 0 0 0 0 0 0 0 0 0 0 0 0 0 0 0 0 0 0 0 0 0 0 0 0 0 
0 0 0 0 0 0 0 0 0 0 0 0 0 0 0 0 0 0 0 0 0 0 0 0 0 0 0 0 0 0 0 0 0 0 0 0 0 0 0 
0 0 0 0 0 0 0 0 0 0 0 0 0 0 0 0 0 0 0 0 0 0 0 0 0 0 0 0 0 0 0 0 0 0 0 0 0 0 0 
0 0 0 0 0 0 0 0 0 0 0 0 0 0 0 0 0 0 0 0 0 0 0 0 0 0 0 0 0 0 0 0 0 0 0 0 0 0 0 
0 0 0 0 0 0 0 0 0 0 0 0 0 0 0 0 0 0 0 0 0 0 0 0 0 0 0 0 0 0 0 0 0 0 0 0 0 0 0 
0 0 0 0 0 0 0 0 0 0 0 0 0 0 0 0 0 0 0 0 0 0 0 0 0 0 0 0 0 0 0 0 0 0 0 0 0 0 0 
0 0 0 0 0 0 0 0 0 0 0 0 0 0 0 0 0 0 0 0 0 0 0 0 0 0 0 0 0 0 0 0 0 0 0 0 0 0 0 
0 0 0 0 0 0 0 0 0 0 0 0 0 0 0 0 0 0 0 0 0 0 0 0 0 0 0 0 0 0 0 0 0 0 0 0 0 0 0 
0 0 0 0 0 0 0 0 0 0 0 0 0 0 0 0 0 0 0 0 0 0 0 0 0 0 0 0 0 0 0 0 0 0 0 0 0 0 0 
0 0 0 0 0 0 0 0 0 0 0 0 0 0 0 0 0 0 0 0 0 0 0 0 0 0 0 0 0 0 0 0 0 0 0 0 0 0 0 
0 0 0 0 0 0 0 0 0 0 0 0 0 0 0 0 0 0 0 0 0 0 0 0 0 0 0 0 0 0 0 0 0 0 0 0 0 0 0 
0 0 0 0 0 0 0 0 0 0 0 0 0 0 0 0 0 0 0 0 0 0 0 0 0 0 0 0 0 0 0 0 0 0 0 0 0 0 0 
0 0 0 0 0 0 0 0 0 0 0 0 0 0 0 0 0 0 0 0 0 0 0 0 0 0 0 0 0 0 0 0 0 0 0 0 0 0 0 
0 0 0 0 0 0 0 0 0 0 0 0 0 0 0 0 0 0 0 0 0 3 1 0 16 0 10 0 0 0 3 1 0 11 0 0 4 0 
0 0 0 0 0 0 0 0 0 0 0 0 0 0 0 0 0 0 0 0 0 0 0 0 0 0 0 0 0 0 0 0 0 0 0 0 0 0 0 
0 0 0 0 0 0 0 0 0 0 0 0 0 0 0 0 0 0 0 0 0 0 0 0 0 0 0 0 0 0 0 0 0 0 0 0 0 0 0 
0 0 0 0 0 0 7 12 0 0 0 8 1 13 2 0 0 0 3 0 0 0 0 0 0 0 0 0 0 0 0 0 0 0 0 0 0 0 
0 0 0 0 0 0 0 0 0 0 0 0 0 0 0 0 0 0 0 0 0 0 0 0 0 0 0 0 0 0 0 0 0 0 0 0 0 0 0 
0 0 0 0 0 0 0 0 0 0 0 0 0 0 0 0 0 0 0 0 0 0 0 0 0 0 0 0 0 8 0 0 10 4 0 2 0 14 
8 0 0 13 0 6 0 0 0 0 0 0 0 0 0 0 0 0 0 0 0 0 0 0 0 0 0 0 0 0 0 0 0 0 0 0 0 0 0 
0 0 0 0 0 0 0 0 0 0 0 0 0 0 0 0 0 0 0 0 0 0 0 0 0 0 0 0 0 0 0 0 0 0 0 0 0 0 0 
0 0 0 0 0 0 0 0 0 0 0 0 1 0 12 2 0 11 0 7 7 0 0 13 8 0 11 1 0 0 0 0 0 0 0 0 0 
0 0 0 0 0 0 0 0 0 0 0 0 0 0 0 0 0 0 0 0 0 0 0 0 0 0 0 0 0 0 0 0 0 0 0 0 0 0 0 
0 0 0 0 0 0 0 0 0 0 0 0 0 0 0 0 0 0 0 0 0 0 0 0 0 0 0 0 0 0 0 0 0 0 0 0 9 0 0 
0 8 0 6 251 255 255 255 235 239 3 0 1 0 0 0 0 0 0 0 0 0 0 0 0 0 0 0 0 0 0 0 0 
0 0 0 0 0 0 0 0 0 0 0 0 0 0 0 0 0 0 0 0 0 0 0 0 0 0 0 0 0 0 0 0 0 0 0 0 0 0 0 
0 0 0 0 0 0 0 0 0 0 0 0 0 0 0 0 0 0 0 0 0 0 0 0 0 3 0 9 9 4 249 245 244 248 
232 254 255 255 255 8 0 0 0 0 0 0 0 0 0 0 0 0 0 0 0 0 0 0 0 0 0 0 0 0 0 0 0 0 
0 0 0 0 0 0 0 0 0 0 0 0 0 0 0 0 0 0 0 0 0 0 0 0 0 0 0 0 0 0 0 0 0 0 0 0 0 0 0 
0 0 0 0 0 0 0 0 0 0 0 0 0 0 0 0 0 0 0 17 0 0 8 247 255 250 255 237 255 243 249 
239 255 0 0 0 0 0 0 0 0 0 0 0 0 0 0 0 0 0 0 0 0 0 0 0 0 0 0 0 0 0 0 0 0 0 0 0 
0 0 0 0 0 0 0 0 0 0 0 0 0 0 0 0 0 0 0 0 0 0 0 0 0 0 0 0 0 0 0 0 0 0 0 0 0 0 0 
0 0 0 0 0 0 0 0 0 0 0 1 2 0 12 250 251 244 255 238 255 252 248 255 247 252 7 0 
0 0 0 0 0 0 0 0 0 0 0 0 0 0 0 0 0 0 0 0 0 0 0 0 0 0 0 0 0 0 0 0 0 0 0 0 0 0 0 
0 0 0 0 0 0 0 0 0 0 0 0 10 0 0 3 0 0 11 0 0 6 6 0 2 0 2 6 0 0 0 0 0 4 11 0 1 0 
8 0 8 6 0 1 0 3 0 0 255 250 255 245 253 248 244 255 248 251 252 0 0 0 0 9 0 0 
0 11 0 0 0 0 2 0 0 4 0 0 0 0 0 0 0 0 4 5 0 0 0 5 1 5 0 0 0 0 0 0 0 0 0 0 0 0 0 
0 0 0 0 0 0 0 0 0 7 10 6 0 0 3 0 8 8 0 2 17 0 0 0 5 14 0 13 5 0 23 0 11 0 0 1 
0 9 9 1 18 0 7 253 238 244 251 255 238 252 254 255 241 255 0 3 0 0 0 0 7 14 0 
5 0 6 5 0 0 20 0 0 0 0 0 0 0 0 0 0 6 11 0 11 8 1 0 0 0 0 0 0 0 0 0 0 0 0 0 0 0 
0 0 0 0 0 0 0 5 6 0 0 14 0 17 9 0 0 0 0 6 0 11 0 3 0 2 0 9 11 0 0 2 0 0 17 15 
0 0 0 0 5 0 248 255 241 255 247 255 255 240 249 255 231 12 2 0 3 8 9 0 0 6 0 248 
241 255 255 0 0 9 0 0 0 0 0 0 0 0 17 0 2 6 0 0 3 2 0 0 0 0 0 0 0 0 0 0 0 0 0 0 
0 0 0 0 0 0 0 2 2 0 1 3 0 0 0 0 13 0 18 0 0 0 2 0 0 9 12 0 255 253 254 243 22 
0 0 0 0 6 19 0 0 7 2 249 255 241 253 251 255 254 236 244 254 8 0 8 10 0 1 20 
0 7 255 247 249 243 255 255 0 0 0 0 0 0 0 0 0 0 0 0 0 19 0 9 0 3 0 0 0 0 0 0 0 
0 0 0 0 0 0 0 0 0 0 0 0 0 3 0 0 19 2 0 9 5 0 11 0 0 0 0 11 0 5 0 17 0 0 255 
248 245 250 240 245 252 1 7 11 0 0 1 15 0 0 234 255 242 251 242 237 255 252 
255 9 0 9 0 2 5 0 0 7 255 238 255 241 255 251 233 245 1 0 0 0 0 0 0 0 0 0 23 
1 0 0 14 0 0 0 0 0 0 0 0 0 0 0 0 0 0 0 0 0 0 0 0 0 0 8 2 0 1 0 0 13 0 9 15 0 5 
0 5 0 0 6 0 0 3 0 255 249 255 250 255 232 255 6 0 5 0 6 0 0 0 18 18 233 255 
253 255 255 248 255 0 0 17 0 0 0 6 0 6 0 243 240 255 247 245 241 255 244 2 0 0 
0 0 0 0 0 0 8 0 4 0 3 0 8 0 0 0 0 0 0 0 0 0 0 0 0 0 0 0 0 0 0 0 0 0 0 0 17 0 1 
5 0 15 0 0 17 0 4 9 0 14 0 18 0 6 12 250 241 249 245 240 253 249 0 7 0 3 2 0 10 
0 0 0 16 245 231 255 233 252 243 10 0 4 8 1 0 7 0 0 25 248 255 227 255 245 255 
240 255 1 0 0 0 0 0 0 0 0 0 6 2 10 0 6 2 9 0 0 0 0 0 0 0 0 0 0 0 0 0 0 0 0 0 0 
0 0 8 0 14 0 4 0 13 241 255 238 255 9 0 0 3 0 0 10 0 0 252 245 255 253 255 241 
255 246 1 0 12 0 255 250 0 3 10 0 10 0 254 253 255 244 9 0 2 0 0 17 0 0 4 6 0 
6 248 251 251 251 251 255 242 0 0 0 0 0 0 0 0 0 0 255 240 252 255 237 6 0 0 0 
0 0 0 0 0 0 0 0 0 0 0 0 0 0 0 0 0 0 12 0 8 9 0 251 254 246 254 236 251 251 252 
8 0 0 0 14 0 0 255 251 255 248 252 254 255 250 7 0 4 0 247 242 12 0 0 0 2 8 255 
244 255 255 248 9 0 5 3 0 251 255 0 0 1 0 251 250 254 253 249 251 3 0 4 4 0 0 
0 0 0 255 255 243 250 247 253 255 243 0 7 0 6 1 0 6 0 0 0 0 0 0 0 0 0 0 0 0 0 
0 0 8 0 0 255 248 252 255 244 255 255 234 242 0 17 2 0 0 0 9 10 0 251 254 251 
255 252 234 0 7 0 12 255 255 251 0 18 0 12 244 234 255 255 242 246 0 21 0 0 254 
252 237 0 1 0 10 238 255 250 233 242 7 0 8 0 10 0 2 14 8 5 234 248 255 255 249 
254 233 255 254 0 8 0 0 13 0 0 5 0 0 0 0 0 0 0 0 0 0 0 0 0 8 0 10 241 255 235 
255 250 230 255 249 255 227 9 0 1 16 0 0 0 8 0 244 255 245 243 255 6 0 10 247 
255 213 255 255 0 6 255 242 255 233 243 255 244 247 8 0 246 254 255 255 252 
3 0 2 255 236 255 255 255 0 0 4 3 0 0 0 0 0 0 255 255 238 248 251 255 251 245 
229 3 4 16 0 0 0 11 0 0 0 0 0 0 0 0 0 0 0 0 0 1 4 6 0 236 255 252 255 255 255 
246 248 233 254 0 3 0 0 3 20 0 0 5 255 241 235 255 235 247 255 250 255 251 255 
236 254 248 253 241 255 245 255 249 238 255 250 255 248 255 241 246 245 242 
255 255 248 249 245 243 240 0 15 0 4 0 0 10 1 0 10 254 255 248 245 255 246 234 
255 255 255 247 3 0 0 9 1 0 0 0 0 0 0 0 0 0 0 0 0 0 0 0 2 0 0 255 229 255 249 
252 243 255 243 255 255 0 0 8 247 244 250 240 0 250 253 255 255 239 246 255 
254 241 249 236 255 252 246 255 232 255 252 246 253 249 247 234 255 231 255 
240 255 254 255 247 240 249 252 246 249 255 255 0 0 20 0 244 255 0 1 6 0 255 
238 248 255 250 245 255 254 221 255 247 3 0 0 9 1 0 0 0 0 0 0 0 0 0 0 0 0 0 0 
0 5 0 13 255 255 241 253 241 255 242 255 248 226 12 0 0 255 246 255 253 255 
255 240 233 248 255 242 255 231 255 255 255 247 247 248 244 255 251 252 252 
255 255 248 254 248 252 255 255 247 227 255 249 246 250 255 255 244 243 244 
255 0 10 243 255 236 255 11 0 0 239 255 249 252 253 254 247 244 255 242 3 4 16 
0 0 0 11 0 0 0 0 0 0 0 0 0 0 0 0 0 0 12 9 0 243 250 246 255 255 239 241 255 
246 255 4 0 6 239 255 224 253 241 247 255 255 253 248 255 241 255 249 245 243 
242 255 255 255 240 255 249 250 244 246 238 255 239 255 237 255 245 255 247 
238 255 255 242 252 253 255 242 248 255 234 255 248 245 255 0 9 4 14 246 255 
237 239 255 248 255 250 0 0 8 0 0 13 0 0 5 0 0 0 0 0 0 0 0 0 0 0 0 2 0 4 1 6 9 
250 244 233 255 249 246 255 242 241 255 255 246 251 255 244 255 244 248 255 
224 255 252 243 250 248 253 253 255 234 255 247 248 255 244 255 243 255 246 
249 255 243 255 248 255 244 244 255 255 239 255 251 245 255 249 249 250 255 
248 245 255 242 255 0 0 244 254 244 255 253 254 248 242 255 0 7 0 6 1 0 6 0 0 
0 0 0 0 0 0 0 0 0 0 0 0 8 0 14 0 4 0 13 241 246 248 255 252 250 252 255 246 
251 251 251 251 251 251 251 251 251 251 251 251 251 251 251 251 251 251 251 
251 251 251 251 251 251 251 251 251 251 251 251 251 251 251 251 251 251 251 
251 251 251 251 251 251 251 251 251 251 241 253 255 248 255 253 240 252 239 
254 255 238 255 250 247 0 0 0 0 0 0 0 0 0 0 0 0 0 0 0 0 0 0 0 0 0 0 0 17 0 1 5 
0 15 4 12 232 255 249 244 253 252 251 251 251 251 251 251 251 251 251 251 251 
251 251 251 251 251 251 251 251 251 251 251 251 251 251 251 251 251 251 251 
251 251 251 251 251 251 251 251 251 251 251 251 251 251 251 251 251 251 255 
255 244 241 245 255 255 248 255 255 238 0 7 0 21 0 0 0 0 0 0 0 0 0 0 0 0 0 0 0 
0 0 0 0 0 0 8 2 0 1 0 0 13 0 6 0 0 255 251 255 249 251 251 251 251 251 251 251 
251 251 251 251 251 251 251 251 251 251 251 251 251 251 251 251 251 251 251 
251 251 251 251 251 251 251 251 251 251 251 251 251 251 251 251 251 251 251 
251 251 251 251 252 246 245 255 252 237 252 234 242 234 9 4 0 3 0 0 0 0 0 0 0 
0 0 0 0 0 0 0 0 0 0 0 0 0 0 0 3 0 0 19 2 0 9 5 0 0 16 0 246 243 242 251 251 
251 251 251 251 251 251 251 251 251 251 251 251 251 251 251 251 251 251 251 
251 251 251 251 251 251 251 251 251 251 251 251 251 251 251 251 251 251 251 
251 251 251 251 251 251 251 251 251 255 249 249 253 250 248 255 255 254 17 9 0 
0 7 5 3 0 0 0 0 0 0 0 0 0 0 0 0 0 0 0 0 0 0 0 0 0 2 2 0 1 3 0 0 0 1 0 3 16 255 
255 251 251 251 251 251 251 251 251 251 251 251 251 251 251 251 251 251 251 
251 251 251 251 251 251 251 251 251 251 251 251 251 251 251 251 251 251 251 
251 251 251 251 251 251 251 251 251 251 251 251 248 255 255 232 249 255 242 
246 0 0 0 4 3 0 0 11 0 0 0 0 0 0 0 0 0 0 0 0 0 0 0 0 0 0 0 0 0 5 6 0 0 14 0 17 
0 26 0 0 0 0 237 255 251 251 251 251 251 251 251 251 251 251 251 251 251 251 
251 251 251 251 251 251 251 251 251 251 251 251 251 251 251 251 251 251 251 
251 251 251 251 251 251 251 251 251 251 251 251 251 251 251 243 249 255 250 
255 251 238 255 5 0 17 1 0 3 15 0 0 0 0 0 0 0 0 0 0 0 0 0 0 0 0 0 0 0 0 0 0 0 
7 10 6 0 0 3 6 8 0 5 15 5 255 235 251 251 251 251 251 251 251 251 251 251 251 
251 251 251 251 251 251 251 251 251 251 251 251 251 251 251 251 251 251 251 
251 251 251 251 251 251 251 251 251 251 251 251 251 251 251 251 251 251 255 
251 234 255 250 246 255 236 8 0 14 0 7 3 0 2 0 0 0 0 0 0 0 0 0 0 0 0 0 0 0 0 0 
0 0 0 10 0 0 3 0 0 11 0 0 0 0 3 0 9 241 255 251 251 251 251 251 251 251 251 
251 251 251 251 251 251 251 251 251 251 251 251 251 251 251 251 251 251 251 
251 251 251 251 251 251 251 251 251 251 251 251 251 251 251 251 251 251 251 
251 251 243 255 237 255 247 254 238 10 0 7 0 7 0 0 0 3 0 0 0 0 0 0 0 0 0 0 0 0 
0 0 0 0 0 0 0 0 0 0 0 0 0 0 0 0 1 0 0 7 0 0 6 241 252 251 247 249 254 250 255 
247 251 251 251 251 251 251 251 251 251 251 251 251 251 251 251 251 251 251 
251 251 251 251 251 251 251 251 251 251 251 251 251 251 251 251 251 251 251 
251 251 251 249 255 253 255 247 244 255 0 0 0 0 0 0 0 0 0 0 0 0 0 0 0 0 0 0 0 
0 0 0 0 0 0 0 0 0 0 0 0 0 0 0 0 0 0 0 6 10 0 0 8 3 255 239 254 255 255 244 244 
253 255 251 251 251 251 251 251 251 251 251 251 251 251 251 251 251 251 251 
251 251 251 251 251 251 251 251 251 251 251 251 251 251 251 251 251 251 251 
251 251 251 251 255 240 255 246 248 255 0 19 0 0 0 0 0 0 0 0 0 0 0 0 0 0 0 0 0 
0 0 0 0 0 0 0 0 0 0 0 0 0 0 0 0 0 0 0 10 0 0 0 15 5 0 249 255 248 241 247 254 
255 252 248 251 251 251 251 251 251 251 251 251 251 251 251 251 251 251 251 
251 251 251 251 251 251 251 251 251 251 251 251 251 251 251 251 251 251 251 
251 251 251 251 251 251 253 236 255 253 255 6 1 0 0 0 0 0 0 0 0 0 0 0 0 0 0 0 
0 0 0 0 0 0 0 0 0 0 0 0 0 0 0 0 0 0 0 0 0 2 0 9 1 0 0 18 255 239 244 246 255 
248 244 238 255 251 251 251 251 251 251 251 251 251 251 251 251 251 251 251 
251 251 251 251 251 251 251 251 251 251 251 251 251 251 251 251 251 251 251 
251 251 251 251 251 251 255 248 255 241 250 250 0 0 0 0 0 0 0 0 0 0 0 0 0 0 0 
0 0 0 0 0 0 0 0 0 0 0 0 0 0 0 0 0 0 0 0 0 0 0 0 3 0 0 4 13 0 0 246 255 251 243 
247 255 246 250 251 251 251 251 251 251 251 251 251 251 251 251 251 251 251 
251 251 251 251 251 251 251 251 251 251 251 251 251 251 251 251 251 251 251 
251 251 251 251 251 251 251 234 255 250 244 0 8 7 0 0 0 0 0 0 0 0 0 0 0 0 0 0 
0 0 0 0 0 0 0 0 0 0 0 0 0 0 0 0 0 0 0 0 0 0 0 8 6 1 0 1 21 2 0 215 255 255 251 
255 249 243 251 251 251 251 251 251 251 251 251 251 251 251 251 251 251 251 
251 251 251 251 251 251 251 251 251 251 251 251 251 251 251 251 251 251 251 
251 251 251 251 251 253 247 255 249 255 7 6 0 0 0 0 0 0 0 0 0 0 0 0 0 0 0 0 0 
0 0 0 0 0 0 0 0 0 0 0 0 0 0 0 0 0 0 0 0 3 0 0 6 5 0 0 0 14 255 252 239 244 254 
255 251 251 251 251 251 251 251 251 251 251 251 251 251 251 251 251 251 251 
251 251 251 251 251 251 251 251 251 251 251 251 251 251 251 251 251 251 251 
251 251 251 251 250 255 248 249 0 0 0 9 0 0 0 0 0 0 0 0 0 0 0 0 0 0 0 0 0 0 0 
0 0 0 0 0 0 0 0 0 0 0 0 0 0 0 0 0 1 1 9 0 0 8 0 10 0 255 241 255 255 240 244 
250 251 251 251 251 251 251 251 251 251 251 251 251 251 251 251 251 251 251 
251 251 251 251 251 251 251 251 251 251 251 251 251 251 251 251 251 251 251 
251 251 251 246 254 246 245 18 0 2 0 0 0 0 0 0 0 0 0 0 0 0 0 0 0 0 0 0 0 0 0 0 
0 0 0 0 0 0 0 0 0 0 0 0 0 0 0 0 0 0 0 0 0 0 0 3 8 0 255 251 248 255 236 248 
250 255 243 255 246 253 255 251 251 251 251 251 251 251 251 251 251 251 251 
251 251 251 251 255 239 255 255 241 252 255 248 249 249 249 249 249 249 249 
249 251 247 4 1 0 7 0 3 0 0 0 0 0 0 0 0 0 0 0 0 0 0 0 0 0 0 0 0 0 0 0 0 0 0 0 
0 0 0 0 0 0 0 0 0 0 0 0 0 0 0 0 0 0 0 14 0 10 0 237 255 255 241 254 255 241 
246 255 237 252 252 252 252 252 252 252 252 252 252 252 252 252 252 252 252 
236 255 240 249 255 248 244 248 255 255 255 255 255 255 255 255 0 34 0 14 8 7 
0 0 0 0 0 0 0 0 0 0 0 0 0 0 0 0 0 0 0 0 0 0 0 0 0 0 0 0 0 0 0 0 0 0 0 0 0 0 0 
0 0 0 0 0 0 0 1 12 0 8 6 0 17 0 0 0 13 0 255 243 255 255 250 250 250 250 250 
250 250 250 250 250 250 250 250 250 250 250 255 253 255 255 218 255 252 1 0 0 
0 0 0 0 0 0 0 0 1 0 0 0 4 3 0 0 0 0 0 0 0 0 0 0 0 0 0 0 0 0 0 0 0 0 0 0 0 0 0 
0 0 0 0 0 0 0 0 0 0 0 0 0 0 0 0 0 0 0 1 0 0 5 7 0 0 9 0 2 0 8 0 8 0 0 0 0 0 0 
0 0 0 0 0 0 0 0 0 0 0 0 0 11 0 0 9 0 0 0 3 3 3 3 3 3 3 3 29 0 10 0 0 6 4 0 0 0 
0 0 0 0 0 0 0 0 0 0 0 0 0 0 0 0 0 0 0 0 0 0 0 0 0 0 0 0 0 0 0 0 0 0 0 0 0 0 0 
0 0 0 8 2 5 0 10 2 4 0 2 10 0 0 13 9 0 2 3 3 3 3 3 3 3 3 3 3 3 3 3 3 3 3 0 0 0 
1 7 20 12 0 0 0 0 0 0 0 0 0 0 0 0 4 3 3 0 2 0 0 0 0 0 0 0 0 0 0 0 0 0 0 0 0 0 
0 0 0 0 0 0 0 0 0 0 0 0 0 0 0 0 0 0 0 0 0 0 0 0 0 0 0 0 6 8 11 0 7 0 0 0 0 4 1 
0 0 2 0 0 0 0 0 0 0 0 0 0 0 0 0 0 0 0 0 1 3 1 0 1 1 0 9 1 1 1 1 1 1 1 1 0 23 
0 1 0 0 0 9 0 0 0 0 0 0 0 0 0 0 0 0 0 0 0 0 0 0 0 0 0 0 0 0 0 0 0 0 0 0 0 0 0 
0 0 0 0 0 0 0 0 0 0 0 12 0 0 0 7 0 0 7 8 0 7 14 0 0 12 0 3 3 3 3 3 3 3 3 3 3 3 
3 3 3 3 3 0 11 0 0 9 0 0 9 0 0 0 0 0 0 0 0 1 7 0 1 2 4 0 0 0 0 0 0 0 0 0 0 0 0 
0 0 0 0 0 0 0 0 0 0 0 0 0 0 0 0 0 0 0 0 0 0 0 0 0 0 0 0 0 0 0 0 0 0 0 0 0 12 
0 0 0 0 1 0 0 0 5 4 0 0 0 0 0 0 0 0 0 0 0 0 0 0 0 0 0 0 0 6 0 10 0 0 23 0 1 1 
1 1 1 1 1 1 0 0 4 2 0 0 7 3 0 0 0 0 0 0 0 0 0 0 0 0 0 0 0 0 0 0 0 0 0 0 0 0 0 
0 0 0 0 0 0 0 0 0 0 0 0 0 0 0 0 0 0 0 0 0 0 0 0 0 0 0 0 0 0 0 0 0 0 0 0 0 0 0 
0 0 0 0 0 0 0 0 0 0 0 0 0 0 0 0 0 0 0 0 0 0 0 0 0 0 0 0 0 0 0 0 0 0 0 0 0 0 0 
0 0 0 0 0 0 0 0 0 0 0 0 0 0 0 0 0 0 0 0 0 0 0 0 0 0 0 0 0 0 0 0 0 0 0 0 0 0 0 
0 0 0 0 0 0 0 0 0 0 0 0 0 0 0 0 0 0 0 0 0 0 0 0 0 0 0 0 0 0 0 0 0 0 0 0 0 0 0 
0 0 0 0 0 0 0 0 0 0 0 0 0 0 0 0 0 0 0 0 0 0 0 0 0 0 0 0 0 0 0 0 0 0 0 0 0 0 0 
0 0 0 0 0 0 0 0 0 0 0 0 0 0 0 0 0 0 0 0 0 0 0 0 0 0 0 0 0 0 0 0 0 0 0 0 0 0 0 
0 0 0 0 0 0 0 0 0 0 0 0 0 0 0 0 0 0 0 0 0 0 0 0 0 0 0 0 0 0 0 0 0 0 0 0 0 0 0 
0 0 0 0 0 0 0 0 0 0 0 0 0 0 0 0 0 0 0 0 0 0 0 0 0 0 0 0 0 0 0 0 0 0 0 0 0 0 0 
0 0 0 0 0 0 0 0 0 0 0 0 0 0 0 0 0 0 0 0 0 0 0 0 0 0 0 0 0 0 0 0 0 0 0 0 0 0 0 
0 0 0 0 0 0 0 0 0 0 0 0 0 0 0 0 0 0 0 0 0 0 0 0 0 0 0 0 0 0 0 0 0 0 0 0 0 0 0 
0 0 0 0 0 0 0 0 0 0 0 0 0 0 0 0 0 0 0 0 0 0 0 0 0 0 0 0 0 0 0 0 0 0 0 0 0 0 0 
0 0 0 0 0 0 0 0 0 0 0 0 0 0 0 0 0 0 0 0 0 0 0 0 0 0 0 0 0 0 0 0 0 0 0 0 0 0 0 
0 0 0 0 0 0 0 0 0 0 0 0 0 0 0 0 0 0 0 0 0 0 0 0 0 0 0 0 0 0 0 0 0 0 0 0 0 0 0 
0 0 0 0 0 0 0 0 0 0 0 0 0 0 0 0 0 0 0 0 0 0 0 0 0 0 0 0 0 0 0 0 0 0 0 0 0 0 0 
0 0 0 0 0 0 0 0 0 0 0 0 0 0 0 0 0 0 0 0 0 0 0 0 0 0 0 0 0 0 0 0 0 0 0 0 0 0 0 
0 0 0 0 0 0 0 0 0 0 
