P2
153 97
255
0 0 0 0 0 0 0 0 0 0 0 0 0 0 0 0 0 0 0 0 0 0 0 0 0 0 0 0 0 0 0 0 0 0 0 0 0 0 0 
0 0 0 0 0 0 0 0 0 0 0 0 0 0 0 0 0 0 0 0 0 0 0 0 0 0 0 0 0 0 0 0 0 0 0 0 0 0 0 
0 0 0 0 0 0 0 0 0 0 0 0 0 0 0 0 0 0 0 0 0 0 0 0 0 0 0 0 0 0 0 0 0 0 0 0 0 0 0 
0 0 0 0 0 0 0 0 0 0 0 0 0 0 0 0 0 0 0 0 0 0 0 0 0 0 0 0 0 0 0 0 0 0 0 0 0 0 0 
0 0 0 0 0 0 0 0 0 0 0 0 0 0 0 0 0 0 0 0 0 0 0 0 0 0 0 0 0 0 0 0 0 0 0 0 0 0 0 
0 0 0 0 0 0 0 0 0 0 0 0 0 0 0 0 0 0 0 0 0 0 0 0 0 0 0 0 0 0 0 0 0 0 0 0 0 0 0 
0 0 0 0 0 0 0 0 0 0 0 0 0 0 0 0 0 0 0 0 0 0 0 0 0 0 0 0 0 0 0 0 0 0 0 0 0 0 0 
0 0 0 0 0 0 0 0 0 0 0 0 0 0 0 0 0 0 0 0 0 0 0 0 0 0 0 0 0 0 0 0 0 0 0 0 0 0 0 
0 0 0 0 0 0 0 0 0 0 0 0 0 0 0 0 0 0 0 0 0 0 0 0 0 0 0 0 0 0 0 0 0 0 0 0 0 0 0 
0 0 0 0 0 0 0 0 0 0 0 0 0 0 0 0 0 0 0 0 0 0 0 0 0 0 0 0 0 0 0 0 0 0 0 0 0 0 0 
0 0 0 0 0 0 0 0 0 0 0 0 0 0 0 0 0 0 0 0 0 0 0 0 0 0 0 0 0 0 0 0 0 0 0 0 0 0 0 
0 0 0 0 0 0 0 0 0 0 0 0 0 0 0 0 0 0 0 0 0 0 0 0 0 0 0 0 0 0 0 0 0 0 0 0 0 0 0 
0 0 0 0 0 0 0 0 0 0 0 0 0 0 0 0 0 0 0 0 0 0 0 0 0 0 0 0 0 0 0 0 0 0 0 0 0 0 0 
0 0 0 0 0 0 0 0 0 0 0 0 0 0 0 0 0 0 0 0 0 0 0 0 0 0 0 0 0 0 0 0 0 0 0 0 0 0 0 
0 0 0 0 0 0 0 0 0 0 0 0 0 0 0 0 0 0 0 0 0 0 0 0 0 0 0 0 0 0 0 0 0 0 0 0 0 0 0 
0 0 0 0 0 0 0 0 0 0 0 0 0 0 0 0 0 0 0 0 0 0 0 0 0 0 0 0 0 0 0 0 0 0 0 0 0 0 0 
0 0 0 0 0 0 0 0 0 0 0 0 0 0 0 0 0 0 0 0 0 0 0 0 0 0 0 0 0 0 0 0 0 0 0 0 0 0 0 
0 0 0 0 0 0 0 0 0 0 0 0 0 0 0 0 0 0 0 0 0 0 0 0 0 0 0 0 0 0 0 0 0 0 0 0 0 0 0 
0 0 0 0 0 0 0 0 0 0 0 0 0 0 0 0 0 0 0 0 0 0 0 0 0 0 0 0 0 0 0 0 0 0 0 0 0 0 0 
0 0 0 0 0 0 0 0 0 0 0 0 0 0 0 0 0 0 0 0 0 0 0 0 0 0 0 0 0 0 0 0 0 0 0 0 0 0 0 
0 0 0 0 0 0 0 0 0 0 0 0 0 0 0 0 0 0 0 0 0 0 0 0 0 0 0 0 0 0 0 0 0 0 0 0 0 0 0 
0 0 0 0 0 0 0 0 0 0 0 0 0 0 0 0 0 0 0 0 0 0 0 0 0 0 0 0 0 0 0 0 0 0 0 0 0 0 0 
0 0 0 0 0 0 0 0 0 0 0 0 0 0 0 0 0 0 0 0 0 0 0 0 0 0 0 0 0 0 0 0 0 0 0 0 0 0 0 
0 0 0 0 0 0 0 0 0 0 0 0 0 0 0 0 0 0 0 0 0 0 0 0 0 0 0 0 0 0 0 0 0 0 0 0 0 0 0 
0 0 0 0 0 0 0 0 0 0 0 0 0 0 0 0 0 0 0 0 0 0 0 0 0 0 0 0 0 0 0 0 0 0 0 0 0 0 0 
0 0 0 0 0 0 0 0 0 0 0 0 0 0 0 0 0 0 0 0 0 0 0 0 0 0 0 0 0 0 0 0 0 0 0 0 0 0 0 
0 0 0 0 0 0 0 0 0 0 0 0 0 0 0 0 0 0 0 0 0 0 0 0 0 0 0 0 0 0 0 0 0 0 0 0 0 0 0 
0 0 0 0 0 0 0 0 0 0 0 0 0 0 0 0 0 0 0 0 0 0 0 0 0 0 0 0 0 0 0 0 0 0 0 0 0 0 0 
0 0 0 0 0 0 0 0 0 0 0 0 0 0 0 0 0 0 0 0 0 0 0 0 0 0 0 0 0 0 0 0 0 0 0 0 0 0 0 
0 0 0 0 0 0 0 0 0 0 0 0 0 0 0 0 0 0 0 0 0 0 0 0 0 0 0 0 0 0 0 0 0 0 0 0 0 0 0 
0 0 0 0 0 0 0 0 0 0 0 0 0 0 0 0 0 0 0 0 0 0 0 0 0 0 0 0 0 0 0 0 0 0 0 0 0 0 0 
0 0 0 0 0 0 0 0 0 0 0 0 0 0 0 0 0 0 0 0 0 0 0 0 0 0 0 0 0 0 0 0 0 0 0 0 0 0 0 
0 0 0 0 0 0 0 0 0 0 0 0 0 0 0 0 0 0 0 0 0 0 0 0 0 0 0 0 0 0 0 0 0 0 0 0 0 0 0 
0 0 0 0 0 0 0 0 0 0 3 0 17 0 0 4 0 0 8 0 4 1 0 8 0 0 0 0 0 0 0 0 0 0 0 0 0 0 0 
0 0 0 0 0 0 0 0 0 0 0 0 0 0 0 0 0 0 0 0 0 0 0 0 0 0 0 0 0 0 0 0 0 0 0 0 0 0 0 
0 0 0 0 0 0 0 0 0 0 0 0 0 0 0 0 0 0 0 0 0 0 0 0 0 0 0 0 0 0 0 0 0 0 0 0 0 0 0 
0 0 0 0 0 0 0 0 0 0 0 0 0 0 0 0 0 0 0 0 0 0 0 0 0 0 0 0 0 0 0 0 0 0 0 0 0 0 0 
0 0 0 0 0 0 14 1 8 0 7 0 7 0 20 0 0 8 0 3 0 9 0 0 0 0 0 0 0 0 0 0 0 0 0 0 0 0 
0 0 0 0 0 0 0 0 0 0 0 0 0 0 0 0 0 0 0 0 0 0 0 0 0 0 0 0 0 0 0 0 0 0 0 0 0 0 0 
0 0 0 0 0 0 0 0 0 0 0 0 0 0 0 0 0 0 0 0 0 0 0 0 0 0 0 0 0 0 0 0 0 0 0 0 0 0 0 
0 0 0 0 0 0 0 0 0 0 0 0 0 0 0 0 0 0 0 0 0 0 0 0 0 0 0 0 0 0 0 0 0 0 0 0 0 0 0 
0 0 0 0 0 0 0 7 5 6 0 12 0 22 8 0 18 0 0 0 0 0 0 0 0 0 0 0 0 0 0 0 0 0 0 0 0 0 
0 0 0 0 0 0 0 0 0 0 0 0 0 0 0 0 0 0 0 0 0 0 0 0 0 0 0 0 0 0 0 0 0 0 0 0 0 0 0 
0 0 0 0 0 0 0 0 0 0 0 0 0 0 0 0 0 0 0 0 0 0 0 0 0 0 0 0 0 0 0 0 0 0 0 0 0 0 0 
0 0 0 0 0 0 0 0 0 0 0 0 0 0 0 0 0 0 0 0 0 0 0 0 0 0 0 0 0 0 0 0 0 0 0 0 0 0 0 
0 0 0 22 5 0 0 0 0 0 25 0 2 0 7 7 0 4 0 0 0 0 0 0 0 0 0 0 0 0 0 0 0 0 0 0 0 0 
0 0 0 0 0 0 0 0 0 0 0 0 0 0 0 0 0 0 0 0 0 0 0 0 0 0 0 0 0 0 0 0 0 0 0 0 0 0 0 
0 0 0 0 0 0 0 0 0 0 0 0 0 0 0 0 0 0 0 0 0 0 0 0 0 0 0 0 0 0 0 0 0 0 0 0 0 0 0 
0 0 0 0 0 0 0 0 0 0 0 0 0 0 0 0 0 0 0 0 0 0 0 0 0 0 0 0 0 0 0 0 0 0 0 0 0 0 0 
0 0 0 10 253 255 251 2 0 13 0 0 0 3 0 8 0 0 0 0 0 0 0 0 0 0 0 0 0 0 0 0 0 0 0 
0 0 0 0 0 0 0 0 0 0 0 0 0 0 0 0 0 0 0 0 0 0 0 0 0 0 0 0 0 0 0 0 0 0 0 0 0 0 0 
0 0 0 0 0 0 0 0 0 0 0 0 0 0 0 0 0 0 0 0 0 0 0 0 0 0 0 0 0 0 0 0 0 0 0 0 0 0 0 
0 0 0 0 0 0 0 0 0 0 0 0 0 0 0 0 0 0 0 0 0 0 0 0 0 0 0 0 0 0 0 0 0 0 0 0 0 0 0 
0 0 15 0 248 254 241 240 255 17 0 27 0 11 0 3 0 0 0 0 0 0 0 0 0 0 0 0 0 0 0 0 
0 0 0 0 0 0 0 0 0 0 0 0 0 0 0 0 0 0 0 0 0 0 0 0 0 0 0 0 0 0 0 0 0 0 0 0 0 0 0 
0 0 0 0 0 0 0 0 0 0 0 0 0 0 0 0 0 0 0 0 0 0 0 0 0 0 0 0 0 0 0 0 0 0 0 0 0 0 0 
0 0 0 0 0 0 0 0 0 0 0 0 0 0 0 0 0 0 0 0 0 0 0 0 0 0 0 0 0 0 0 0 0 0 0 0 0 0 0 
0 0 0 0 0 0 8 11 247 255 248 255 243 252 0 16 0 0 7 0 5 0 0 0 0 0 0 0 0 0 0 0 
0 0 0 0 0 0 0 0 0 0 0 0 0 0 0 0 0 0 0 0 0 0 0 0 0 0 0 0 0 0 0 0 0 0 0 0 0 0 0 
0 0 0 0 0 0 0 0 0 0 0 0 0 0 0 0 0 0 0 0 0 0 0 0 0 0 0 0 0 0 0 0 0 0 0 0 0 0 0 
0 0 0 0 0 0 0 0 0 0 0 0 0 0 0 0 0 0 0 0 0 0 0 0 0 0 0 0 0 0 0 0 0 0 0 0 0 0 0 
0 0 0 0 0 0 0 0 0 0 0 11 246 244 250 255 255 250 255 0 2 7 0 0 2 0 0 0 0 0 0 0 
0 0 0 0 0 0 0 0 0 0 0 0 0 0 0 0 0 0 0 0 0 0 0 0 0 0 0 0 0 0 0 0 0 0 0 0 0 0 0 
0 0 0 0 0 0 0 0 0 0 0 0 0 0 0 0 0 0 0 0 0 0 0 0 0 0 0 0 0 0 0 0 0 0 0 0 0 0 0 
0 0 0 0 0 0 0 0 0 0 0 0 0 0 0 0 0 0 0 0 0 0 0 0 0 0 0 0 0 0 0 0 0 0 0 0 0 0 0 
0 0 0 0 0 0 1 0 7 0 0 0 2 1 0 255 249 244 252 255 249 237 255 247 0 10 1 0 0 0 
0 0 0 0 0 0 0 0 0 0 0 0 0 0 0 0 0 0 0 0 0 0 0 0 0 0 0 0 0 0 0 0 0 0 0 0 0 0 0 
0 0 0 0 0 0 0 0 0 0 0 0 0 0 0 0 0 0 0 0 0 0 0 0 0 0 0 0 0 0 0 0 0 0 0 0 0 0 0 
0 0 0 0 0 0 0 0 0 0 0 0 0 0 0 0 0 0 0 0 0 0 0 0 0 0 0 0 0 0 0 0 0 0 0 0 0 0 0 
0 0 0 0 0 0 0 0 0 0 0 3 1 3 0 10 0 12 0 0 255 235 254 252 244 254 246 255 255 
244 255 0 0 0 6 0 0 0 0 0 0 0 0 0 0 0 0 0 0 0 0 0 0 0 0 0 0 0 0 0 0 0 0 0 0 0 
0 0 0 0 0 0 0 0 0 0 0 0 0 0 0 0 0 0 0 0 0 0 0 0 0 0 0 0 0 0 0 0 0 0 0 0 0 0 0 
0 0 0 0 0 0 0 0 0 0 0 0 0 0 0 0 0 0 0 0 0 0 0 0 0 0 0 0 0 0 0 0 0 0 0 0 0 0 0 
0 0 0 0 0 0 0 0 0 0 0 0 0 0 0 0 0 0 0 0 0 8 0 3 0 1 0 10 234 255 224 255 240 
255 248 254 255 242 245 255 247 0 6 0 0 0 0 0 0 0 0 0 0 0 0 0 0 0 0 0 0 0 0 0 
0 0 0 0 0 0 0 0 0 0 0 0 0 0 0 0 0 0 0 0 0 0 0 0 0 0 0 0 0 0 0 0 0 0 0 0 0 0 0 
0 0 0 0 0 0 0 0 0 0 0 0 0 0 0 0 0 0 0 0 0 0 0 0 0 0 0 0 0 0 0 0 0 0 0 0 0 0 0 
0 0 0 0 0 0 0 0 0 0 0 0 0 0 0 0 0 0 0 0 0 0 0 0 0 0 0 0 0 0 0 4 0 15 4 2 0 1 254 
255 238 255 255 255 248 255 243 239 255 254 248 255 255 0 1 0 0 0 0 0 0 0 0 0 
0 0 0 0 0 0 0 0 0 0 0 0 0 0 0 0 0 0 0 0 0 0 0 0 0 0 0 0 0 0 0 0 0 0 0 0 0 0 0 
0 0 0 0 0 0 0 0 0 0 0 0 0 0 0 0 0 0 0 0 0 0 0 0 0 0 0 0 0 0 0 0 0 0 0 0 0 0 0 
0 0 0 0 0 0 0 0 0 0 0 0 0 0 0 0 0 0 0 0 0 0 0 0 0 0 0 0 0 0 0 0 0 0 0 0 0 0 0 
0 0 0 12 0 0 0 0 1 255 235 226 255 249 255 244 244 255 247 255 247 255 243 252 
253 0 4 0 0 0 0 0 0 0 0 0 0 0 0 0 0 0 0 0 0 0 0 0 0 0 0 0 0 0 0 0 0 0 0 0 0 0 
0 0 0 0 0 0 0 0 0 0 0 0 0 0 0 0 0 0 0 0 0 0 0 0 0 0 0 0 0 0 0 0 0 0 0 0 0 0 0 
0 0 0 0 0 0 0 0 0 0 0 0 0 0 0 0 0 0 0 0 0 0 0 0 0 0 0 0 0 0 0 0 0 0 0 0 0 0 0 
0 0 0 0 0 0 0 0 0 0 0 0 0 0 0 0 0 0 18 0 9 0 232 255 255 229 243 254 233 255 
255 254 236 245 254 255 231 253 255 1 0 0 0 0 0 0 0 0 0 0 0 0 0 0 0 0 0 0 0 0 
0 0 0 0 0 0 0 0 0 0 0 0 0 0 0 0 0 0 0 0 0 0 0 0 0 0 0 0 0 0 0 0 0 0 0 0 0 0 0 
0 0 0 0 0 0 0 0 0 0 0 0 0 0 0 0 0 0 0 0 0 0 0 0 0 0 0 0 0 0 0 0 0 0 0 0 0 0 0 
0 0 0 0 0 0 0 0 0 0 0 0 0 0 0 0 0 0 0 0 0 0 0 0 0 0 0 0 0 0 0 3 6 0 0 0 18 255 
255 231 255 255 243 255 248 252 242 255 255 238 252 238 255 241 0 0 0 0 0 0 0 
0 0 0 0 0 0 0 0 0 0 0 0 0 0 0 0 0 0 0 0 0 0 0 0 0 0 0 0 0 0 0 0 0 0 0 0 0 0 0 
0 0 0 0 0 0 0 0 0 0 0 0 0 0 0 0 0 0 0 0 0 0 0 0 0 0 0 0 0 0 0 0 0 0 0 0 0 0 0 
0 0 0 0 0 0 0 0 0 0 0 0 0 0 0 0 0 0 0 0 0 0 0 0 0 0 0 0 0 0 0 0 0 0 0 0 0 0 0 
0 0 0 0 0 0 0 0 0 11 1 0 255 239 255 243 253 247 250 254 243 255 246 248 255 
255 250 243 255 2 0 0 0 0 0 0 0 0 0 0 0 0 0 0 0 0 0 0 0 0 0 0 0 0 0 0 0 0 0 0 
0 0 0 0 0 0 0 0 0 0 0 0 0 0 0 0 0 0 0 0 0 0 0 0 0 0 0 0 0 0 0 0 0 0 0 0 0 0 0 
0 0 0 0 0 0 0 0 0 0 0 0 0 0 0 0 0 0 0 0 0 0 0 0 0 0 0 0 0 0 0 0 0 0 0 0 0 10 
3 0 9 0 1 0 0 1 0 8 0 0 7 0 0 0 0 0 0 0 0 0 0 7 0 2 0 0 255 251 251 251 251 
251 251 251 251 251 255 239 253 255 232 253 252 5 0 0 0 0 0 0 0 0 10 0 0 3 0 0 
11 0 8 0 13 0 0 2 0 3 0 0 0 0 0 0 0 0 0 0 0 0 0 0 0 0 0 0 0 0 0 0 0 0 0 0 0 0 
0 0 0 0 0 0 0 0 0 0 0 0 0 0 0 0 0 0 0 0 0 0 0 0 0 0 0 0 0 0 0 0 0 0 0 0 0 0 0 
0 0 0 0 0 0 0 0 0 0 0 0 0 0 3 0 0 18 0 0 0 7 7 2 0 5 8 1 0 5 0 0 0 0 0 0 0 0 0 
0 3 3 14 4 244 255 251 251 251 251 251 251 251 251 246 255 255 245 249 255 255 
0 0 0 0 0 0 0 0 0 0 0 7 10 6 0 0 3 0 16 0 0 8 0 0 0 0 0 0 0 0 0 0 0 0 0 0 0 0 
0 0 0 0 0 0 0 0 0 0 0 0 0 0 0 0 0 0 0 0 0 0 0 0 0 0 0 0 0 0 0 0 0 0 0 0 0 0 0 
0 0 0 0 0 0 0 0 0 0 0 0 0 0 0 0 0 0 0 0 0 0 0 0 0 0 0 0 0 0 6 0 8 0 1 0 19 0 7 
0 3 0 8 5 0 0 0 0 0 0 0 0 0 0 9 12 0 0 9 242 247 251 251 251 251 251 251 251 
251 255 245 244 255 253 255 227 26 0 0 0 0 0 0 0 0 0 5 6 0 0 14 0 17 10 4 0 3 
0 3 2 0 0 0 0 0 0 0 0 0 0 0 0 0 0 0 0 0 0 0 0 0 0 0 0 0 0 0 0 0 0 0 0 0 0 0 0 
0 0 0 0 0 0 0 0 0 0 0 0 0 0 0 0 0 0 0 0 0 0 0 0 0 0 0 0 0 0 0 0 0 0 0 0 0 0 0 
0 0 0 0 0 0 0 4 0 0 0 0 255 241 0 3 22 1 11 0 0 21 0 0 0 0 0 0 0 0 0 0 4 0 19 
0 1 255 255 251 251 251 251 251 251 251 251 249 246 255 246 253 255 255 0 0 0 
0 0 0 0 0 0 0 2 2 0 1 3 0 0 2 0 2 20 0 0 0 2 0 0 0 0 0 0 0 0 0 0 0 0 0 0 0 0 0 
0 0 0 0 0 0 0 0 0 0 0 0 0 0 0 0 0 0 0 0 0 0 0 0 0 0 0 0 0 0 0 0 0 0 0 0 0 0 0 
0 0 0 0 0 0 0 0 0 0 0 0 0 0 0 0 0 0 0 0 0 0 0 0 0 0 9 2 15 238 246 255 255 18 
0 0 0 0 0 0 1 0 0 0 0 0 0 0 0 5 0 15 0 7 0 0 245 251 251 251 251 251 251 251 
251 243 255 247 245 255 241 0 0 0 0 0 0 0 0 0 0 3 0 0 19 2 0 9 5 7 11 255 220 
255 251 3 0 0 0 0 0 0 0 0 0 0 0 0 0 0 0 0 0 0 0 0 0 0 0 0 0 0 0 0 0 0 0 0 0 0 
0 0 0 0 0 0 0 0 0 0 0 0 0 0 0 0 0 0 0 0 0 0 0 0 0 0 0 0 0 0 0 0 0 0 0 0 0 0 0 
0 0 0 0 0 0 0 0 0 0 0 10 249 255 255 243 241 239 255 0 19 0 12 0 0 0 0 0 0 0 0 
0 0 0 0 0 22 4 0 11 255 251 251 251 251 251 251 251 251 255 239 239 253 238 
255 6 0 0 0 0 0 0 0 0 0 8 2 0 1 0 0 13 0 0 237 246 255 249 255 0 14 0 0 0 0 0 
0 0 0 0 0 0 0 0 0 0 0 0 0 0 0 0 0 0 0 0 0 0 0 0 0 0 0 0 0 0 0 0 0 0 0 0 0 0 0 
0 0 0 0 0 0 0 0 0 0 0 0 0 0 0 0 0 0 0 0 0 0 0 0 0 0 0 0 0 0 0 0 0 0 0 0 0 6 21 
0 243 239 255 252 255 253 251 255 241 0 0 0 11 0 0 0 0 0 0 0 0 0 3 0 0 0 0 10 
246 251 251 251 251 251 251 251 251 243 255 255 255 255 0 3 0 0 0 0 0 0 0 0 0 
0 0 17 0 1 5 0 15 255 255 248 235 248 255 248 0 0 0 0 0 0 0 0 0 0 0 0 0 0 0 0 
0 0 0 0 0 0 0 0 0 0 0 0 0 0 0 0 0 0 0 0 0 0 0 0 0 0 0 0 0 0 0 0 0 0 0 0 0 0 0 
0 0 0 0 0 0 0 0 0 0 0 0 0 0 0 0 0 0 0 0 0 0 0 0 0 0 0 0 0 0 255 255 240 255 
239 246 249 255 249 255 1 3 0 0 0 0 0 0 0 0 0 2 0 8 0 6 5 0 250 251 251 251 
251 251 251 251 251 254 253 239 255 249 13 0 5 0 0 0 0 0 0 0 0 8 0 14 0 4 0 13 
241 244 253 248 255 255 242 250 3 0 0 0 0 0 0 0 0 0 0 0 0 0 0 0 0 0 0 0 0 0 0 
0 0 0 0 0 0 0 0 0 0 0 0 0 0 0 0 0 0 0 0 0 0 0 0 0 0 0 3 11 0 3 0 4 0 1 0 0 0 5 
1 0 0 0 0 0 2 10 0 3 23 0 0 0 0 0 0 0 0 0 0 1 9 0 253 251 245 253 251 248 255 
252 255 248 0 0 0 0 0 0 0 0 0 0 0 0 0 11 1 0 255 239 246 248 252 255 244 253 
247 252 252 246 255 245 255 0 0 3 0 0 0 0 0 0 0 0 0 5 0 2 6 0 253 251 244 255 
253 254 248 242 255 0 0 0 0 0 0 0 0 0 10 0 0 3 0 0 11 0 1 0 1 0 4 8 3 0 1 0 5 
3 0 15 0 4 0 0 0 0 0 0 0 0 0 0 0 0 0 0 0 0 0 0 0 12 0 2 10 0 0 0 6 2 0 3 5 0 6 
11 0 0 3 11 3 0 18 0 0 0 0 0 0 0 0 9 0 4 245 243 253 253 246 255 253 245 247 
247 255 3 0 0 0 0 0 0 0 0 0 3 6 0 0 0 18 255 255 255 240 250 244 254 252 246 
255 255 243 255 253 241 252 6 0 0 0 0 0 0 0 0 0 1 0 6 0 0 255 252 250 255 237 
239 255 248 255 250 0 0 0 0 0 0 0 0 0 0 0 7 10 6 0 0 3 1 7 1 0 11 0 0 8 3 11 
0 3 0 0 0 2 0 0 0 0 0 0 0 0 0 0 0 0 0 0 0 0 0 18 0 3 1 0 4 0 10 10 0 0 0 4 12 
0 0 0 15 0 0 0 15 4 0 0 0 0 0 0 0 0 0 0 19 0 255 246 251 254 249 240 251 255 
242 255 255 234 0 0 0 0 0 0 0 0 0 0 0 18 0 9 0 232 255 225 255 243 255 246 242 
249 242 248 255 255 247 249 254 0 0 0 0 0 0 0 0 0 0 0 0 6 7 10 248 249 247 249 
252 253 254 247 244 255 242 0 0 0 0 0 0 0 0 0 5 6 0 0 14 0 17 0 7 5 0 7 0 0 2 
0 0 0 255 255 9 8 0 0 0 0 0 0 0 0 0 0 0 0 0 0 0 0 0 0 0 1 0 1 255 255 235 255 
238 14 0 18 0 0 0 8 0 0 0 17 0 0 7 0 0 0 0 0 0 0 0 0 0 0 0 255 255 255 240 248 
255 249 244 251 246 254 249 9 0 0 0 0 0 0 0 0 12 0 0 0 0 1 255 235 255 254 255 
230 255 255 255 250 236 255 235 241 255 0 0 15 0 0 0 0 0 0 0 0 0 5 0 0 4 245 
253 254 248 255 250 245 255 254 221 255 0 0 0 0 0 0 0 0 0 2 2 0 1 3 0 0 10 0 0 
8 0 16 0 1 5 255 255 230 243 0 0 10 0 0 0 0 0 0 0 0 0 0 0 0 0 0 0 0 0 0 19 0 0 
250 255 255 234 251 255 255 232 252 255 229 255 7 28 0 4 0 10 0 2 0 0 0 0 0 0 
0 0 10 11 8 0 237 249 255 252 244 250 255 252 251 233 255 0 0 0 0 0 0 0 0 0 4 
0 15 4 2 0 1 254 248 251 230 255 255 234 251 255 255 241 255 254 234 2 0 0 0 0 
0 0 0 0 0 0 0 5 0 0 4 245 253 254 248 245 255 246 234 255 255 255 0 0 0 0 0 0 
0 0 3 0 0 19 2 0 9 5 6 6 6 0 0 248 255 254 229 255 232 255 255 255 0 0 0 0 0 0 
0 0 0 0 0 0 0 0 0 0 0 0 0 2 0 5 20 238 237 255 255 255 215 247 255 248 255 255 
243 238 0 0 3 0 0 0 6 0 0 0 0 0 0 0 0 0 0 0 21 249 254 239 255 255 251 237 255 
243 252 0 4 0 0 0 0 0 0 0 0 0 8 0 3 0 1 0 10 255 247 255 249 247 250 252 239 
251 243 247 250 9 20 12 0 0 0 0 0 0 0 0 0 0 0 6 7 10 248 249 247 255 238 248 
251 255 251 245 229 0 0 0 0 0 0 0 0 8 2 0 1 0 0 13 0 0 5 250 250 255 246 255 
251 255 239 255 243 255 255 0 12 0 0 0 0 0 0 0 0 0 0 0 0 0 0 0 0 0 10 0 19 0 255 
254 233 246 255 255 255 251 233 246 255 251 255 255 0 10 0 7 0 0 0 0 0 0 0 0 0 
0 10 23 0 0 255 248 255 235 245 250 253 255 254 255 0 4 0 0 0 0 0 0 0 0 3 1 3 
0 10 0 12 0 0 0 255 236 255 248 238 255 246 255 0 19 0 0 1 0 0 0 0 0 0 0 0 0 1 
0 6 0 0 255 252 250 248 255 255 249 254 233 255 254 0 0 0 0 0 0 0 0 0 0 17 0 1 
5 0 15 255 240 255 255 220 255 240 255 243 246 255 254 226 247 31 0 0 0 0 0 0 
0 0 0 0 0 0 0 0 0 0 0 0 4 0 0 6 0 255 250 255 242 255 241 249 255 251 243 249 
249 249 250 0 14 0 13 0 0 0 0 0 0 0 0 0 0 0 0 4 2 1 235 255 253 252 253 250 
244 255 0 0 0 0 0 0 0 0 0 0 0 1 0 7 0 0 0 2 5 9 0 255 252 250 255 238 252 0 8 
0 16 3 0 6 0 0 0 0 0 0 0 0 0 5 0 2 6 0 253 251 255 243 250 247 253 255 243 0 0 
0 0 0 0 0 0 0 8 0 14 0 4 0 13 241 244 253 255 241 255 252 250 243 253 255 244 
252 255 255 0 0 0 0 0 0 0 0 0 0 0 0 0 0 0 0 0 0 0 0 0 1 0 2 248 253 251 251 
251 251 251 251 251 251 251 255 248 255 0 17 0 0 0 0 0 0 0 0 0 0 0 8 0 14 0 4 
0 13 241 255 252 253 232 255 236 7 0 1 0 0 4 5 0 0 4 5 0 13 13 0 6 0 0 6 0 10 
241 255 249 239 255 251 0 10 0 0 9 8 0 7 0 8 3 0 0 9 0 7 0 3 0 0 12 242 249 
255 238 248 255 248 250 1 1 0 0 0 0 0 0 0 0 0 4 0 16 0 5 0 254 251 251 251 251 
251 251 251 251 255 242 254 253 237 255 0 6 0 0 0 0 0 0 0 0 0 0 0 0 0 0 0 0 0 
0 0 1 0 2 248 253 251 251 251 251 251 251 251 251 251 249 242 255 255 0 3 0 0 
0 0 0 0 0 0 0 0 0 0 17 0 1 5 0 15 244 241 252 255 241 255 0 0 0 25 0 0 4 0 0 13 
3 1 0 0 0 16 0 26 0 0 13 245 252 255 255 253 251 17 0 5 4 0 0 17 2 0 0 0 13 2 
0 0 0 10 16 1 7 0 253 255 248 246 255 240 253 9 0 3 0 0 0 0 0 0 0 0 0 5 7 0 7 
9 255 243 251 251 251 251 251 251 251 251 246 255 254 245 255 218 12 0 0 0 0 0 
0 0 0 0 0 0 0 0 0 0 0 0 0 0 0 1 0 2 248 253 251 251 251 251 251 251 251 251 
251 255 250 244 232 22 0 0 15 0 0 0 0 0 0 0 0 8 2 0 1 0 0 13 0 6 251 255 237 
242 247 10 3 5 5 0 13 0 1 12 0 0 22 6 0 9 0 0 0 0 9 0 255 253 241 254 245 240 
255 9 0 5 12 0 0 0 16 5 9 0 3 0 0 8 0 0 13 0 0 0 255 255 242 229 255 0 0 0 0 0 
0 0 0 0 0 0 0 0 0 18 0 4 0 235 255 251 251 251 251 251 251 251 251 249 244 245 
250 248 255 0 14 0 0 0 0 0 0 0 0 0 0 0 0 0 0 0 0 0 0 0 1 0 2 248 253 251 251 
251 251 251 251 251 251 251 248 255 255 249 0 3 7 0 0 0 0 0 0 0 0 0 3 0 0 19 
2 0 9 5 0 240 255 253 255 248 246 0 0 0 12 0 13 0 0 13 0 0 0 1 0 0 2 5 1 3 251 
244 250 255 255 255 255 229 0 7 0 0 7 17 0 0 0 255 231 255 18 0 0 18 2 4 0 3 255 
243 243 255 255 2 5 10 0 16 0 0 0 0 0 0 0 0 3 0 0 14 8 0 255 233 251 251 251 
251 251 251 251 251 234 255 255 244 252 234 0 0 0 0 0 0 0 0 0 0 0 0 0 0 0 0 0 
0 0 0 0 1 0 2 248 253 251 251 251 251 251 251 251 251 251 255 250 228 255 10 
0 18 0 0 0 0 0 0 0 0 0 0 2 2 0 1 3 0 0 9 0 255 249 239 255 250 15 0 0 2 0 0 18 
5 248 255 243 255 0 0 14 0 0 0 0 255 252 254 251 253 234 252 255 254 0 8 14 0 
0 18 0 255 240 255 245 243 0 6 0 8 0 9 255 234 250 246 248 255 0 3 0 10 0 0 0 
0 0 0 0 0 0 10 0 0 11 0 10 251 250 251 251 251 251 251 251 251 251 250 255 245 
244 255 255 12 0 0 0 0 0 0 0 0 0 0 0 0 0 0 0 0 0 0 0 0 1 0 2 248 253 251 251 
251 251 251 251 251 251 251 249 250 255 254 255 0 8 8 0 0 0 0 0 0 0 0 0 5 6 0 
0 14 0 17 2 0 248 251 255 228 255 243 6 0 0 33 0 0 241 245 242 255 247 252 0 3 
0 2 3 255 230 245 253 254 247 255 251 238 255 0 0 0 0 8 0 253 255 254 242 249 
255 0 0 0 2 13 243 247 246 255 255 247 243 12 1 0 4 0 0 0 0 0 0 0 0 0 0 1 16 
0 0 10 243 255 251 251 251 251 251 251 251 251 255 244 238 255 246 238 0 8 0 0 
0 0 0 0 0 0 0 0 0 0 0 0 0 0 0 0 0 1 0 2 248 253 251 251 251 251 251 251 251 
251 251 255 243 255 240 251 16 0 0 0 0 0 0 0 0 0 0 0 0 7 10 6 0 0 3 0 0 255 
255 255 251 238 255 255 0 16 0 1 0 255 255 255 246 247 255 236 255 0 0 238 255 
254 255 246 237 255 237 255 251 238 255 243 12 0 249 254 255 247 241 255 244 
235 255 254 12 0 241 255 247 255 234 255 245 255 0 10 6 0 6 0 0 0 0 0 0 0 0 2 
0 0 25 0 255 246 248 251 251 251 251 251 251 251 251 235 255 255 255 242 15 0 
0 0 0 0 0 0 0 0 0 0 0 0 0 0 0 0 0 0 0 0 1 0 2 248 253 251 251 251 251 251 251 
251 251 251 245 255 239 255 251 250 8 0 0 0 0 0 0 0 0 0 10 0 0 3 0 0 11 0 0 7 
250 240 251 255 240 255 242 255 0 2 13 240 249 246 250 250 254 239 253 250 255 
246 250 250 249 243 255 250 253 253 245 255 250 250 244 248 255 245 249 248 
254 244 255 246 255 253 255 224 255 255 240 253 255 250 241 255 244 8 3 0 0 2 
0 0 0 0 0 0 0 0 7 2 2 3 241 251 255 248 251 251 251 251 251 251 251 251 253 
253 239 255 246 0 4 4 0 0 0 0 0 0 0 0 0 0 0 0 0 0 0 0 0 2 0 0 7 2 0 255 250 
251 252 249 250 255 248 239 253 254 255 240 249 250 246 255 0 0 0 0 0 1 0 0 249 
244 249 255 0 0 8 0 1 10 238 254 247 255 237 255 243 251 251 251 251 251 251 
251 251 251 251 251 251 251 251 251 251 251 251 251 251 251 251 251 251 251 
251 251 251 251 251 251 251 251 251 251 251 251 251 251 251 251 251 251 251 
251 251 251 251 255 255 241 255 7 0 14 0 2 0 248 255 236 7 0 0 0 0 9 0 255 239 
250 255 244 255 252 255 250 241 255 248 253 248 245 255 0 0 8 0 0 0 0 0 0 0 0 
0 0 0 0 0 0 0 0 0 0 5 0 7 0 0 16 0 252 242 252 255 243 255 255 248 255 240 239 
255 249 255 251 234 255 11 0 14 0 3 0 9 250 255 255 217 255 246 0 0 0 236 255 
246 250 255 234 251 255 251 251 251 251 251 251 251 251 251 251 251 251 251 
251 251 251 251 251 251 251 251 251 251 251 251 251 251 251 251 251 251 251 
251 251 251 251 251 251 251 251 251 251 251 251 251 251 251 251 253 234 255 
247 243 14 0 12 254 243 255 245 248 255 0 16 0 10 0 0 255 255 242 255 255 244 
255 243 255 255 240 255 255 255 253 1 0 0 7 0 0 0 0 0 0 0 0 0 0 0 0 0 0 0 0 0 
0 0 3 0 11 0 27 0 17 3 252 233 255 247 255 244 241 255 255 255 255 242 248 251 
252 0 21 0 0 11 4 0 246 245 255 255 246 255 249 255 255 255 238 251 255 250 
255 249 243 251 251 251 251 251 251 251 251 251 251 251 251 251 251 251 251 
251 251 251 251 251 251 251 251 251 251 251 251 251 251 251 251 251 251 251 
251 251 251 251 251 251 251 251 251 251 251 251 251 246 255 239 239 255 241 
244 251 241 255 251 249 255 242 253 0 0 3 0 5 238 252 244 250 244 255 238 255 
243 248 255 234 245 0 0 17 0 11 0 0 0 0 0 0 0 0 0 0 0 0 0 0 0 0 0 0 0 8 0 3 0 
0 0 13 0 18 0 26 0 14 0 247 255 248 242 246 240 252 255 252 243 0 6 0 13 0 1 1 
255 250 237 255 254 247 255 243 255 246 242 255 249 232 255 255 248 251 251 
251 251 251 251 251 251 251 251 251 251 251 251 251 251 251 251 251 251 251 
251 251 251 251 251 251 251 251 251 251 251 251 251 251 251 251 251 251 251 
251 251 251 251 251 251 251 251 251 249 252 255 244 254 255 238 255 255 245 
251 247 252 247 255 5 0 13 0 245 247 255 237 255 247 245 255 255 0 0 19 3 8 3 
0 0 4 0 0 0 0 0 0 0 0 0 0 0 0 0 0 0 0 0 0 0 4 0 7 7 0 2 0 25 0 0 2 1 0 18 9 232 
255 255 248 255 249 239 252 6 0 0 7 0 6 0 253 250 254 255 255 252 244 248 255 
238 255 255 248 250 253 249 249 255 251 251 251 251 251 251 251 251 251 251 
251 251 251 251 251 251 251 251 251 251 251 251 251 251 251 251 251 251 251 
251 251 251 251 251 251 251 251 251 251 251 251 251 251 251 251 251 251 251 
255 247 254 246 255 229 255 255 242 246 255 246 255 254 250 245 255 0 0 254 
255 251 238 255 253 254 255 227 0 4 0 0 0 11 0 0 24 0 10 0 0 0 0 0 0 0 0 0 0 0 
0 0 0 0 0 0 0 0 0 0 18 0 8 22 0 18 6 0 0 0 5 0 255 247 229 255 233 255 248 239 
255 0 17 0 15 0 0 255 254 255 229 255 253 252 255 245 255 234 252 237 252 255 
245 246 252 251 251 251 251 251 251 251 251 251 251 251 251 251 251 251 251 
251 251 251 251 251 251 251 251 251 251 251 251 251 251 251 251 251 251 251 
251 251 251 251 251 251 251 251 251 251 251 251 251 239 255 250 255 249 255 
242 245 255 232 242 255 255 255 243 254 238 255 255 244 241 248 255 247 240 
248 255 255 0 5 3 9 0 0 0 6 0 0 0 15 0 0 0 0 0 0 0 0 0 0 0 0 0 0 0 0 0 9 0 3 0 
8 0 0 20 0 0 10 0 9 0 12 0 255 252 255 240 252 245 255 254 255 0 0 3 255 249 
255 237 246 255 248 252 247 248 255 242 248 255 255 245 241 244 255 255 251 
251 251 251 251 251 251 251 251 251 251 251 251 251 251 251 251 251 251 251 
251 251 251 251 251 251 251 251 251 251 251 251 251 251 251 251 251 251 251 
251 251 251 251 251 251 251 251 251 255 237 246 251 251 244 255 255 248 255 
255 249 236 248 255 236 254 255 251 242 255 246 240 254 255 252 237 255 5 0 2 
0 0 0 21 0 0 8 1 0 0 0 0 0 0 0 0 0 0 0 0 0 0 0 0 0 0 0 8 0 1 4 0 8 0 10 0 3 0 
0 0 6 0 251 249 254 250 251 255 243 252 246 245 255 246 240 255 245 255 254 
255 236 255 251 255 243 255 252 240 253 255 248 255 253 241 251 251 251 251 
251 251 251 251 251 251 251 251 251 251 251 251 251 251 251 251 251 251 251 
251 251 251 251 251 251 251 251 251 251 251 251 251 251 251 251 251 251 251 
251 251 251 251 251 251 240 255 253 252 245 255 243 252 255 242 246 255 255 
248 245 255 249 241 255 249 248 248 255 248 246 250 255 6 0 0 1 2 0 8 0 0 0 0 
0 8 0 0 0 0 0 0 0 0 0 0 0 0 0 0 0 0 0 0 0 0 0 0 0 0 0 0 0 0 0 0 0 0 0 0 243 
255 243 249 240 249 251 255 243 255 252 255 253 254 243 251 251 251 251 251 
251 251 251 251 251 251 251 251 251 251 251 251 251 251 251 251 251 251 251 
251 251 251 251 251 251 251 251 251 251 251 251 251 251 251 251 251 251 251 
251 251 251 251 251 251 251 251 251 251 251 251 251 251 251 251 251 251 251 
251 251 251 251 251 251 251 251 251 251 254 240 250 255 254 240 255 254 247 
252 239 255 248 255 235 255 250 255 0 2 7 0 0 2 0 0 0 0 0 0 0 0 0 0 0 0 0 0 0 
0 0 0 0 0 0 0 0 0 0 0 0 0 0 0 0 0 0 0 0 0 0 0 0 0 0 9 3 250 239 255 255 244 
255 252 252 230 252 254 243 250 255 251 251 251 251 251 251 251 251 251 251 
251 251 251 251 251 251 251 251 251 251 251 251 251 251 251 251 251 251 251 
251 251 251 251 251 251 251 251 251 251 251 251 251 251 251 251 251 251 251 
251 251 251 251 251 251 251 251 251 251 251 251 251 251 251 251 251 251 251 
251 251 251 251 251 246 255 250 235 255 255 244 248 255 247 255 242 255 242 
255 239 252 0 16 0 0 7 0 5 0 0 0 0 0 0 0 0 0 0 0 0 0 0 0 0 0 0 0 0 0 0 0 0 0 0 
0 0 0 0 0 0 0 0 0 0 0 0 0 0 0 3 0 7 235 238 251 255 246 252 255 255 245 255 
255 255 236 251 251 251 251 251 251 251 251 251 251 251 251 251 251 251 251 
251 251 251 251 251 251 251 251 251 251 251 251 251 251 251 251 251 251 251 
251 251 251 251 251 251 251 251 251 251 251 251 251 251 251 251 251 251 251 
251 251 251 251 251 251 251 251 251 251 251 251 251 251 251 251 251 251 252 
249 251 251 255 247 243 255 243 252 252 255 241 230 255 0 17 0 27 0 11 0 3 0 0 
0 0 0 0 0 0 0 0 0 0 0 0 0 0 0 0 0 0 0 0 0 0 0 0 0 0 0 0 0 0 0 0 0 0 0 0 0 0 0 
0 0 9 0 15 10 251 244 247 252 240 255 255 227 255 241 255 251 251 251 251 251 
251 251 251 251 251 251 251 251 251 251 251 251 251 251 251 251 251 251 251 
251 251 251 251 251 251 251 251 251 251 251 251 251 251 251 251 251 251 251 
251 251 251 251 251 251 251 251 251 251 251 251 251 251 251 251 251 251 251 
251 251 251 251 251 251 251 251 251 251 255 239 253 254 246 246 252 243 251 
251 255 238 6 5 0 13 0 13 0 0 0 3 0 8 0 0 0 0 0 0 0 0 0 0 0 0 0 0 0 0 0 0 0 0 
0 0 0 0 0 0 0 0 0 0 0 0 0 0 0 0 0 0 0 0 0 0 0 0 0 9 0 12 255 248 243 248 255 
253 247 255 252 251 251 251 251 251 251 251 251 251 251 251 251 251 251 251 
251 251 251 251 251 251 251 251 251 251 251 251 251 251 251 251 251 251 251 
251 251 251 251 251 251 251 251 251 251 251 251 251 251 251 251 251 251 251 
251 251 251 251 251 251 251 251 251 251 251 251 251 251 251 251 251 251 251 
254 255 250 234 255 252 255 248 253 0 0 2 5 2 8 0 25 0 2 0 7 7 0 4 0 0 0 0 0 0 
0 0 0 0 0 0 0 0 0 0 0 0 0 0 0 0 0 0 0 0 0 0 0 0 0 0 0 0 0 0 0 0 0 0 0 0 4 3 0 
0 14 0 0 6 255 255 234 255 240 255 254 251 251 251 251 251 251 251 251 251 251 
251 251 251 251 251 251 251 251 251 251 251 251 251 251 251 251 251 251 251 
251 251 251 251 251 251 251 251 251 251 251 251 251 251 251 251 251 251 251 
251 251 251 251 251 251 251 251 251 251 251 251 251 251 251 251 251 251 251 
251 251 251 251 251 240 232 255 255 252 254 243 0 0 7 0 3 4 0 1 4 0 22 8 0 18 
0 0 0 0 0 0 0 0 0 0 0 0 0 0 0 0 0 0 0 0 0 0 0 0 0 0 0 0 0 0 0 0 0 0 0 0 0 0 0 
0 0 0 0 0 0 0 0 0 21 0 0 6 0 0 0 250 255 251 244 252 251 251 251 251 251 251 
251 251 251 251 251 251 251 251 251 251 251 251 251 251 251 251 251 251 251 
251 251 251 251 251 251 251 251 251 251 251 251 251 251 251 251 251 251 251 
251 251 251 251 251 251 251 251 251 251 251 251 251 251 251 251 251 251 251 
251 251 251 251 251 251 251 251 251 255 255 247 246 248 2 0 15 7 0 22 1 0 6 0 
10 20 0 0 8 0 3 0 9 0 0 0 0 0 0 0 0 0 0 0 0 0 0 0 0 0 0 0 0 0 0 0 0 0 0 0 0 0 
0 0 0 0 0 0 0 0 0 0 0 0 1 0 3 7 0 8 7 0 0 3 6 0 251 255 243 255 251 251 251 
251 251 251 251 251 251 251 251 251 251 251 251 251 251 251 251 251 251 251 
251 251 251 251 251 251 251 251 251 251 251 251 251 251 251 251 251 251 251 
251 251 251 251 251 251 251 251 251 251 251 251 251 251 251 251 251 251 251 
251 251 251 251 251 251 251 251 251 251 251 251 249 245 243 255 255 0 12 0 0 2 
0 0 5 9 0 3 0 8 0 4 1 0 8 0 0 0 0 0 0 0 0 0 0 0 0 0 0 0 0 0 0 0 0 0 0 0 0 0 0 
0 0 0 0 0 0 0 0 0 0 0 0 0 0 0 0 0 0 0 0 0 0 0 0 0 0 4 0 0 255 244 252 251 251 
251 251 251 251 251 251 251 251 251 251 251 251 251 251 251 251 251 251 251 
251 251 251 251 251 251 251 251 251 251 251 251 251 251 251 251 251 251 251 
251 251 251 251 251 251 251 251 251 251 251 251 251 251 251 251 251 251 251 
251 251 251 251 251 251 251 251 251 251 251 251 251 255 250 245 255 13 0 0 5 0 
0 0 0 0 0 0 0 0 0 0 0 0 0 0 0 0 0 0 0 0 0 0 0 0 0 0 0 0 0 0 0 0 0 0 0 0 0 0 0 
0 0 0 0 0 0 0 0 0 0 0 0 0 0 0 0 0 0 0 0 0 0 0 0 0 15 2 0 4 1 251 250 255 251 
251 251 251 251 251 251 251 251 251 251 251 251 251 251 251 251 251 251 251 
251 251 251 251 251 251 251 251 251 251 251 251 251 251 251 251 251 251 251 
251 251 251 251 251 251 251 251 251 251 251 251 251 251 251 251 251 251 251 
251 251 251 251 251 251 251 251 251 251 251 251 251 251 244 242 255 239 0 5 12 
0 0 0 0 0 0 0 0 0 0 0 0 0 0 0 0 0 0 0 0 0 0 0 0 0 0 0 0 0 0 0 0 0 0 0 0 0 0 0 
0 0 0 0 0 0 0 0 0 0 0 0 0 0 0 0 0 0 0 0 0 0 0 0 0 0 0 0 4 0 3 0 252 255 241 
251 251 251 251 251 251 251 251 251 251 251 251 251 251 251 251 251 251 251 
251 251 251 251 251 251 251 251 251 251 251 251 251 251 251 251 251 251 251 
251 251 251 251 251 251 251 251 251 251 251 251 251 251 251 251 251 251 251 
251 251 251 251 251 251 251 251 251 251 251 251 251 251 251 255 255 233 255 
4 0 0 12 0 0 0 0 0 0 0 0 0 0 0 0 0 0 0 0 0 0 0 0 0 0 0 0 0 0 0 0 0 0 0 0 0 0 0 
0 0 0 0 0 0 0 0 0 0 0 0 0 0 0 0 0 0 0 0 0 0 0 0 0 0 0 0 0 0 16 0 0 15 0 255 
238 248 251 251 251 251 251 251 251 251 251 251 251 251 251 251 251 251 251 
251 251 251 251 251 251 251 251 251 251 251 251 251 251 251 251 251 251 251 
251 251 251 251 251 251 251 251 251 251 251 251 251 251 251 251 251 251 251 
251 251 251 251 251 251 251 251 251 251 251 251 251 251 251 251 251 238 255 
255 253 8 3 0 0 0 0 0 0 0 0 0 0 0 0 0 0 0 0 0 0 0 0 0 0 0 0 0 0 0 0 0 0 0 0 0 
0 0 0 0 0 0 0 0 0 0 0 0 0 0 0 0 0 0 0 0 0 0 0 0 0 0 0 0 0 0 0 0 0 0 0 0 0 0 13 
0 255 254 251 251 251 251 251 251 251 251 251 251 251 251 251 251 251 251 251 
251 251 251 251 251 251 251 251 251 251 251 251 251 251 251 251 251 251 251 
251 251 251 251 251 251 251 251 251 251 251 251 251 251 251 251 251 251 251 
251 251 251 251 251 251 251 251 251 251 251 251 251 251 251 251 251 242 253 
247 233 9 0 4 7 0 0 0 0 0 0 0 0 0 0 0 0 0 0 0 0 0 0 0 0 0 0 0 0 0 0 0 0 0 0 0 
0 0 0 0 0 0 0 0 0 0 0 0 0 0 0 0 0 0 0 0 0 0 0 0 0 0 0 0 0 0 0 0 0 0 17 0 0 2 3 
3 237 255 251 251 251 251 251 251 251 251 251 251 251 251 251 251 251 251 251 
251 251 251 251 251 251 251 251 251 251 251 251 251 251 251 251 251 251 251 
251 251 251 251 251 251 251 251 251 251 251 251 251 251 251 251 251 251 251 
251 251 251 251 251 251 251 251 251 251 251 251 251 251 251 251 251 255 250 
251 9 0 19 2 0 0 0 0 0 0 0 0 0 0 0 0 0 0 0 0 0 0 0 0 0 0 0 0 0 0 0 0 0 0 0 0 0 
0 0 0 0 0 0 0 0 0 0 0 0 0 0 0 0 0 0 0 0 0 0 0 0 0 0 0 0 0 0 0 0 0 0 0 8 0 0 3 
249 247 251 251 251 251 251 251 251 251 251 251 251 251 251 251 251 251 251 
251 251 251 251 251 251 251 251 251 251 251 251 251 251 251 251 251 251 251 
251 251 251 251 251 251 251 251 251 251 251 251 251 251 251 251 251 251 251 
251 251 251 251 251 251 251 251 251 251 251 251 251 251 251 251 251 251 246 
0 6 0 0 2 0 0 0 0 0 0 0 0 0 0 0 0 0 0 0 0 0 0 0 0 0 0 0 0 0 0 0 0 0 0 0 0 0 0 
0 0 0 0 0 0 0 0 0 0 0 0 0 0 0 0 0 0 0 0 0 0 0 0 0 0 0 0 0 0 0 0 7 4 0 4 0 0 255 
250 251 251 251 251 251 251 251 251 251 251 251 251 251 251 251 251 251 251 
251 251 251 251 251 251 251 251 251 251 251 251 251 251 251 251 251 251 251 
251 251 251 251 251 251 251 251 251 251 251 251 251 251 251 251 251 251 251 
251 251 251 251 251 251 251 251 251 251 251 251 251 251 251 251 241 15 0 0 14 
0 5 5 0 0 0 0 0 0 0 0 0 0 0 0 0 0 0 0 0 0 0 0 0 0 0 0 0 0 0 0 0 0 0 0 0 0 0 0 
0 0 0 0 0 0 0 0 0 0 0 0 0 0 0 0 0 0 0 0 0 0 0 0 0 0 0 0 0 2 0 0 7 2 0 255 250 
251 251 251 251 251 251 251 251 251 251 251 251 251 251 251 251 251 251 251 
251 251 251 251 251 251 251 251 251 251 251 251 251 251 251 251 251 251 251 
251 251 251 251 251 251 251 251 251 251 251 251 251 251 251 251 251 251 251 
251 251 251 251 251 251 251 251 251 251 251 251 251 251 251 250 0 5 6 0 8 0 2 
0 0 0 0 0 0 0 0 0 0 0 0 0 0 0 0 0 0 0 0 0 0 0 0 0 0 0 0 0 0 0 0 0 0 0 0 0 0 0 
0 0 0 0 0 0 0 0 0 0 0 0 0 0 0 0 0 0 0 0 0 0 0 0 0 0 5 0 7 0 0 16 0 252 251 251 
251 251 251 251 251 251 251 251 251 251 251 251 251 251 251 251 251 251 251 
251 251 251 251 251 251 251 251 251 251 251 251 251 251 251 251 251 251 251 
251 251 251 251 251 251 251 251 251 251 251 251 251 251 251 251 251 251 251 
251 251 251 251 251 251 251 251 251 251 251 251 251 246 10 0 0 0 0 3 0 0 0 0 0 
0 0 0 0 0 0 0 0 0 0 0 0 0 0 0 0 0 0 0 0 0 0 0 0 0 0 0 0 0 0 0 0 0 0 0 0 0 0 0 
0 0 0 0 0 0 0 0 0 0 0 0 0 0 0 0 0 0 0 0 0 0 0 3 0 11 0 27 0 17 251 251 251 251 
251 251 251 251 251 251 251 251 251 251 251 251 251 251 251 251 251 251 251 
251 251 251 251 251 251 251 251 251 251 251 251 251 251 251 251 251 251 251 
251 251 251 251 251 251 251 251 251 251 251 251 251 251 251 251 251 251 251 
251 251 251 251 251 251 251 251 251 251 251 255 11 0 4 22 0 0 0 0 0 0 0 0 0 0 
0 0 0 0 0 0 0 0 0 0 0 0 0 0 0 0 0 0 0 0 0 0 0 0 0 0 0 0 0 0 0 0 0 0 0 0 0 0 0 
0 0 0 0 0 0 0 0 0 0 0 0 0 0 0 0 0 0 0 8 0 3 0 0 0 13 0 251 251 251 251 251 251 
251 251 251 251 251 251 251 251 251 251 251 251 251 251 251 251 251 251 251 
251 251 251 251 251 251 251 251 251 251 251 251 251 251 251 251 251 251 251 
251 251 251 251 251 251 251 251 251 251 251 251 251 251 251 251 251 251 251 
251 251 251 251 251 251 251 251 251 245 0 0 7 0 15 0 5 0 0 0 0 0 0 0 0 0 0 0 0 
0 0 0 0 0 0 0 0 0 0 0 0 0 0 0 0 0 0 0 0 0 0 0 0 0 0 0 0 0 0 0 0 0 0 0 0 0 0 0 
0 0 0 0 0 0 0 0 0 0 0 0 0 0 4 0 7 7 0 2 0 25 251 251 251 251 251 251 251 251 
251 251 251 251 251 251 251 251 251 251 251 251 251 251 251 251 251 251 251 
251 251 251 251 251 251 251 251 251 251 251 251 251 251 251 251 251 251 251 
251 251 251 251 251 251 251 251 251 251 251 251 251 251 251 251 251 251 251 
251 251 251 251 251 251 251 255 255 1 0 19 0 4 0 0 0 0 0 0 0 0 0 0 0 0 0 0 0 0 
0 0 0 0 0 0 0 0 0 0 0 0 0 0 0 0 0 0 0 0 0 0 0 0 0 0 0 0 0 0 0 0 0 0 0 0 0 0 0 
0 0 0 0 0 0 0 0 0 0 0 0 0 0 18 0 8 22 0 251 251 251 251 251 251 251 251 251 
251 251 251 251 251 251 251 251 251 251 251 251 251 251 251 251 251 251 251 
251 251 251 251 251 251 251 251 251 251 251 251 251 251 251 251 251 251 251 
251 251 251 251 251 251 251 251 251 251 251 251 251 251 251 251 251 251 251 
251 251 251 251 251 251 247 242 9 0 0 12 9 0 0 0 0 0 0 0 0 0 0 0 0 0 0 0 0 0 0 
0 0 0 0 0 0 0 0 0 0 0 0 0 0 0 0 0 0 0 0 0 0 0 0 0 0 0 0 0 0 0 0 0 0 0 0 0 0 0 
0 0 0 0 0 0 0 0 0 9 0 3 0 8 0 0 20 251 251 251 251 251 251 251 251 251 251 251 
251 251 251 251 251 251 251 251 251 251 251 251 251 251 251 251 251 251 251 
251 251 251 251 251 251 251 251 251 251 251 251 251 251 251 251 251 251 251 
251 251 251 251 251 251 251 251 251 251 251 251 251 251 251 251 251 251 251 
251 251 251 251 255 244 4 14 3 3 0 0 0 0 0 0 0 0 0 0 0 0 0 0 0 0 0 0 0 0 0 0 0 
0 0 0 0 0 0 0 0 0 0 0 0 0 0 0 0 0 0 0 0 0 0 0 0 0 0 0 0 0 0 0 0 0 0 0 0 0 0 0 
0 0 0 0 0 0 8 0 1 4 0 8 0 251 251 251 251 251 251 251 251 251 251 251 251 251 
251 251 251 251 251 251 251 251 251 251 251 251 251 251 251 251 251 251 251 
251 251 251 251 251 251 251 251 251 251 251 251 251 251 251 251 251 251 251 
251 251 251 251 251 251 251 251 251 251 251 251 251 251 251 251 251 251 251 
251 251 251 255 0 0 2 0 7 0 0 0 0 0 0 0 0 0 0 0 0 0 0 0 0 0 0 0 0 0 0 0 0 0 0 
0 0 0 0 0 0 0 0 0 0 0 0 0 0 0 0 0 0 0 0 0 0 0 0 0 0 0 0 0 0 0 0 0 0 0 0 0 0 0 
0 0 0 0 0 0 0 0 0 245 249 255 245 255 254 255 247 246 252 251 254 252 250 248 
248 237 255 237 244 255 240 254 249 250 250 250 250 250 250 250 250 250 250 
250 250 250 250 250 250 250 250 250 250 250 250 250 250 252 253 241 249 240 
255 232 255 248 248 250 252 254 251 252 246 255 244 254 255 252 246 237 255 
250 255 0 2 7 0 0 2 0 0 0 0 0 0 0 0 0 0 0 0 0 0 0 0 0 0 0 0 0 0 0 0 0 0 0 0 0 
0 0 0 0 0 0 0 0 0 0 0 0 0 0 0 0 0 0 0 0 0 0 0 0 0 0 0 0 0 0 0 0 0 0 0 0 0 0 0 
0 0 0 0 0 5 244 244 246 254 245 248 246 254 255 243 243 255 249 254 250 255 
244 250 255 246 248 255 244 252 252 252 252 252 252 252 252 252 252 252 252 
252 252 252 252 252 252 252 252 252 252 252 252 251 255 241 255 249 246 255 
249 250 254 249 255 243 243 255 254 243 255 237 251 242 255 255 244 252 0 16 
0 0 7 0 5 0 0 0 0 0 0 0 0 0 0 0 0 0 0 0 0 0 0 0 0 0 0 0 0 0 0 0 0 0 0 0 0 0 0 
0 0 0 0 0 0 0 0 0 0 0 0 0 0 0 0 0 0 0 0 0 0 0 0 0 0 0 0 0 0 0 0 0 0 0 0 0 0 0 
7 0 255 255 239 246 255 250 255 214 255 255 235 251 250 249 255 235 251 250 
239 251 252 251 250 250 250 250 250 250 250 250 250 250 250 250 250 250 250 
250 250 250 250 250 250 250 250 250 242 236 247 255 244 237 255 236 249 250 
251 235 255 255 214 255 255 227 255 255 245 239 255 0 17 0 27 0 11 0 3 0 0 0 0 
0 0 0 0 0 0 0 0 0 0 0 0 0 0 0 0 0 0 0 0 0 0 0 0 0 0 0 0 0 0 0 0 0 0 0 0 0 0 0 
0 0 0 0 0 0 0 0 0 0 0 0 0 0 0 0 0 0 0 0 0 0 0 0 0 0 0 0 0 0 0 1 1 0 0 13 255 
237 249 252 244 255 236 255 246 255 253 242 255 255 255 250 250 246 249 252 
252 252 252 252 252 252 252 252 252 252 252 252 252 252 252 252 252 252 252 
252 252 252 252 255 249 252 249 244 255 255 255 253 255 246 255 236 255 244 
252 255 255 246 238 241 13 0 0 0 13 0 0 0 3 0 8 0 0 0 0 0 0 0 0 0 0 0 0 0 0 0 
0 0 0 0 0 0 0 0 0 0 0 0 0 0 0 0 0 0 0 0 0 0 0 0 0 0 0 0 0 0 0 0 0 0 0 0 0 0 0 
0 0 0 0 0 0 0 0 0 0 0 0 0 0 0 0 0 0 0 0 23 0 13 0 0 0 0 0 23 237 255 245 247 
241 242 251 245 234 255 250 235 255 245 248 248 248 248 248 248 248 248 248 
248 248 248 248 248 248 248 248 248 248 248 248 248 248 248 226 255 239 255 
254 249 234 251 242 241 247 245 255 237 23 0 0 14 0 7 10 0 0 11 25 0 2 0 7 7 0 
4 0 0 0 0 0 0 0 0 0 0 0 0 0 0 0 0 0 0 0 0 0 0 0 0 0 0 0 0 0 0 0 0 0 0 0 0 0 0 
0 0 0 0 0 0 0 0 0 0 0 0 0 0 0 0 0 0 0 0 0 0 0 0 0 0 0 0 0 0 0 0 0 0 0 2 0 6 0 
7 6 0 10 0 0 0 0 9 0 12 13 2 253 255 219 255 255 254 255 254 254 254 254 254 
254 254 254 254 254 254 254 254 254 254 254 254 254 254 254 254 254 254 254 
255 226 255 239 252 255 12 0 13 12 0 9 0 0 0 0 0 0 2 0 0 7 0 0 0 22 8 0 18 0 0 
0 0 0 0 0 0 0 0 0 0 0 0 0 0 0 0 0 0 0 0 0 0 0 0 0 0 0 0 0 0 0 0 0 0 0 0 0 0 0 
0 0 0 0 0 0 0 0 0 0 0 0 0 0 0 0 0 0 0 0 0 0 0 0 0 0 0 0 0 0 0 0 0 0 0 0 0 10 
1 5 0 3 0 4 0 14 5 0 4 0 0 0 0 0 16 0 0 9 0 0 0 0 0 0 0 0 0 0 0 0 0 0 0 0 0 0 
0 0 0 0 0 0 0 0 26 0 2 5 0 0 3 0 0 4 0 5 14 0 4 17 0 13 0 20 0 0 4 20 0 0 8 0 
3 0 9 0 0 0 0 0 0 0 0 0 0 0 0 0 0 0 0 0 0 0 0 0 0 0 0 0 0 0 0 0 0 0 0 0 0 0 0 
0 0 0 0 0 0 0 0 0 0 0 0 0 0 0 0 0 0 0 0 0 0 0 0 0 0 0 0 0 0 0 0 0 0 0 0 0 5 0 
0 0 5 1 0 2 0 14 0 0 4 0 2 9 0 5 0 0 5 4 0 12 2 2 2 2 2 2 2 2 2 2 2 2 2 2 2 2 
2 2 2 2 2 2 2 2 2 0 13 0 0 12 0 2 9 2 0 4 0 0 14 0 0 0 2 0 0 6 0 0 0 8 0 4 1 0 
8 0 0 0 0 0 0 0 0 0 0 0 0 0 0 0 0 0 0 0 0 0 0 0 0 0 0 0 0 0 0 0 0 0 0 0 0 0 0 
0 0 0 0 0 0 0 0 0 0 0 0 0 0 0 0 0 0 0 0 0 0 0 0 0 0 0 0 0 0 0 0 0 0 0 0 0 0 0 
0 0 0 0 0 0 0 0 0 0 0 0 0 0 0 0 0 0 0 0 0 0 0 0 0 0 0 0 0 0 0 0 0 0 0 0 0 0 0 
0 0 0 0 0 0 0 0 0 0 0 0 0 0 0 0 0 0 0 0 0 0 0 0 0 0 0 0 0 0 0 0 0 0 0 0 0 0 0 
0 0 0 0 0 0 0 0 0 0 0 0 0 0 0 0 0 0 0 0 0 0 0 0 0 0 0 0 0 0 0 0 0 0 0 0 0 0 0 
0 0 0 0 0 0 0 0 0 0 0 0 0 0 0 0 0 0 0 0 0 0 0 0 0 0 0 0 0 0 0 0 0 0 0 0 0 0 0 
0 0 0 0 0 0 0 0 0 0 0 0 0 0 0 0 0 0 0 0 0 0 0 0 0 0 0 0 0 0 0 0 0 0 0 0 0 0 0 
0 0 0 0 0 0 0 0 0 0 0 0 0 0 0 0 0 0 0 0 0 0 0 0 0 0 0 0 0 0 0 0 0 0 0 0 0 0 0 
0 0 0 0 0 0 0 0 0 0 0 0 0 0 0 0 0 0 0 0 0 0 0 0 0 0 0 0 0 0 0 0 0 0 0 0 0 0 0 
0 0 0 0 0 0 0 0 0 0 0 0 0 0 0 0 0 0 0 0 0 0 0 0 0 0 0 0 0 0 0 0 0 0 0 0 0 0 0 
0 0 0 0 0 0 0 0 0 0 0 0 0 0 0 0 0 0 0 0 0 0 0 0 0 0 0 0 0 0 0 0 0 0 0 0 0 0 0 
0 0 0 0 0 0 0 0 0 0 0 0 0 0 0 0 0 0 0 0 0 0 0 0 0 0 0 0 0 0 0 0 0 0 0 0 0 0 0 
0 0 0 0 0 0 0 0 0 0 0 0 0 0 0 0 0 0 0 0 0 0 0 0 0 0 0 0 0 0 0 0 0 0 0 0 0 0 0 
0 0 0 0 0 0 0 0 0 0 0 0 0 0 0 0 0 0 0 0 0 0 0 0 0 0 0 0 0 0 0 0 0 0 0 0 0 0 0 
0 0 0 0 0 0 0 0 0 0 0 0 0 0 0 0 0 0 0 0 0 0 0 0 0 0 0 0 0 0 0 0 0 0 0 0 0 0 0 
0 0 0 0 0 0 0 0 0 0 0 0 0 0 0 0 0 0 0 0 0 0 0 0 0 0 0 0 0 0 0 0 0 0 0 0 0 0 0 
0 0 0 0 0 0 0 0 0 0 0 0 0 0 0 0 0 0 0 0 0 0 0 0 0 0 0 0 0 0 0 0 0 0 0 0 0 0 0 
0 0 0 0 0 0 0 0 0 0 0 0 0 0 0 0 0 0 0 0 0 0 0 0 0 0 0 0 0 0 0 0 0 0 0 0 0 0 0 
0 0 0 0 0 0 0 0 0 0 0 0 0 0 0 0 0 0 0 0 0 0 0 0 0 0 0 0 0 0 0 0 0 0 0 0 0 0 0 
0 0 0 0 0 0 0 0 0 0 0 0 0 0 0 0 0 0 0 0 0 0 0 0 0 0 0 0 0 0 0 0 0 0 0 0 0 0 0 
0 0 0 0 0 0 0 0 0 0 0 0 0 0 0 0 0 0 0 0 0 0 0 0 0 0 0 0 0 0 0 0 0 0 0 0 0 0 0 
0 0 0 0 0 0 0 0 0 0 0 0 0 0 0 0 0 0 0 0 0 0 0 0 0 0 0 0 0 0 0 0 0 0 0 0 0 0 0 
0 0 0 0 0 0 0 0 0 0 0 0 0 0 0 0 0 0 0 0 0 0 0 0 0 0 0 0 0 0 0 0 0 0 0 0 0 0 0 
0 0 0 0 0 0 0 0 0 0 0 0 0 0 0 0 0 0 0 0 0 0 0 0 0 0 0 0 0 0 0 0 0 0 0 0 0 0 0 
0 0 0 0 0 0 0 0 0 0 0 0 0 0 0 0 0 0 0 0 0 0 0 0 0 0 0 0 0 0 0 0 0 0 0 0 0 0 0 
0 0 0 0 0 0 0 0 0 0 0 0 0 0 0 0 0 0 0 0 0 0 0 0 0 0 0 0 0 0 0 0 0 0 0 0 0 0 0 
0 0 0 0 0 0 0 0 0 0 0 0 0 0 0 0 0 0 0 0 0 0 0 0 0 0 0 0 0 0 0 0 0 0 0 0 0 0 0 
0 0 0 0 0 0 0 0 0 0 0 0 0 0 0 0 0 0 0 0 0 0 0 0 0 0 0 0 0 0 0 0 0 0 0 0 0 0 0 
0 0 0 0 0 0 0 0 0 0 0 0 0 0 0 0 0 0 0 0 0 0 0 0 0 0 0 0 0 0 0 0 0 0 0 0 0 0 0 
0 0 0 0 0 0 0 0 0 0 0 0 0 0 0 0 0 0 0 0 0 0 0 0 0 0 0 0 0 0 0 0 0 0 0 0 0 0 0 
0 0 0 0 0 0 0 0 0 0 0 0 0 0 0 0 0 0 0 0 0 0 0 0 0 0 0 0 0 0 0 0 0 0 0 0 0 0 0 
0 0 0 0 0 0 0 0 0 0 0 0 0 0 0 0 0 0 0 0 0 0 0 0 0 0 0 0 0 0 0 0 0 0 0 0 0 0 0 
0 0 0 0 0 0 0 0 0 0 0 0 0 0 0 0 0 0 0 0 0 0 0 0 0 0 0 0 0 0 0 0 0 0 0 0 0 0 0 
0 0 0 0 0 0 0 0 0 0 0 0 0 0 0 0 0 0 0 0 0 0 0 0 0 0 0 0 0 0 0 0 0 0 0 0 0 0 0 
0 0 0 0 0 0 0 0 0 0 0 0 0 0 0 0 0 0 0 0 0 0 0 0 0 0 0 0 0 0 0 0 0 0 0 0 0 0 0 
0 0 0 0 0 0 0 0 0 0 0 0 0 0 0 0 0 0 0 0 0 0 0 0 0 0 0 0 0 0 0 0 0 0 0 0 0 0 0 
0 0 0 0 0 0 0 0 
