P2
169 92
255
0 0 0 0 0 0 0 0 0 0 0 0 0 0 0 0 0 0 0 0 0 0 0 0 0 0 0 0 0 0 0 0 0 0 0 0 0 0 0 
0 0 0 0 0 0 0 0 0 0 0 0 0 0 0 0 0 0 0 0 0 0 0 0 0 0 0 0 0 0 0 0 0 0 0 0 0 0 0 
0 0 0 0 0 0 0 0 0 0 0 0 0 0 0 0 0 0 0 0 0 0 0 0 0 0 0 0 0 0 0 0 0 0 0 0 0 0 0 
0 0 0 0 0 0 0 0 0 0 0 0 0 0 0 0 0 0 0 0 0 0 0 0 0 0 0 0 0 0 0 0 0 0 0 0 0 0 0 
0 0 0 0 0 0 0 0 0 0 0 0 0 0 0 0 0 0 0 0 0 0 0 0 0 0 0 0 0 0 0 0 0 0 0 0 0 0 0 
0 0 0 0 0 0 0 0 0 0 0 0 0 0 0 0 0 0 0 0 0 0 0 0 0 0 0 0 0 0 0 0 0 0 0 0 0 0 0 
0 0 0 0 0 0 0 0 0 0 0 0 0 0 0 0 0 0 0 0 0 0 0 0 0 0 0 0 0 0 0 0 0 0 0 0 0 0 0 
0 0 0 0 0 0 0 0 0 0 0 0 0 0 0 0 0 0 0 0 0 0 0 0 0 0 0 0 0 0 0 0 0 0 0 0 0 0 0 
0 0 0 0 0 0 0 0 0 0 0 0 0 0 0 0 0 0 0 0 0 0 0 0 0 0 0 0 0 0 0 0 0 0 0 0 0 0 0 
0 0 0 0 0 0 0 0 0 0 0 0 0 0 0 0 0 0 0 0 0 0 0 0 0 0 0 0 0 0 0 0 0 0 0 0 0 0 0 
0 0 0 0 0 0 0 0 0 0 0 0 0 0 0 0 0 0 0 0 0 0 0 0 0 0 0 0 0 0 0 0 0 0 0 0 0 0 0 
0 0 0 0 0 0 0 0 0 0 0 0 0 0 0 0 0 0 0 0 0 0 0 0 0 0 0 0 0 0 0 0 0 0 0 0 0 0 0 
0 0 0 0 0 0 0 0 0 0 0 0 0 0 0 0 0 0 0 0 0 0 0 0 0 0 0 0 0 0 0 0 0 0 0 0 0 0 0 
0 0 0 0 0 0 0 0 0 0 0 0 0 0 0 0 0 0 0 0 0 0 0 0 0 0 0 0 0 0 0 0 0 0 0 0 0 0 0 
0 0 0 0 0 0 0 0 0 0 0 0 0 0 0 0 0 0 0 0 0 0 0 0 0 0 0 0 0 0 0 0 0 0 0 0 0 0 0 
0 0 0 0 0 0 0 0 0 0 0 0 0 0 0 0 0 0 0 0 0 0 0 0 0 0 0 0 0 0 0 0 0 0 0 0 0 0 0 
0 0 0 0 0 0 0 0 0 0 0 0 0 0 0 0 0 0 0 0 0 0 0 0 0 0 0 0 0 0 0 0 0 0 0 0 0 0 0 
0 0 0 0 0 0 0 0 0 0 0 0 0 0 0 0 0 0 0 0 0 0 0 0 0 0 0 0 0 0 0 0 0 0 0 0 0 0 0 
0 0 0 0 0 0 0 0 0 0 0 0 0 0 0 0 0 0 0 0 0 0 0 0 0 0 0 0 0 0 0 0 0 0 0 0 0 0 0 
0 0 0 0 0 0 0 0 0 0 0 0 0 0 0 0 0 0 0 0 0 0 0 0 0 0 0 0 0 0 0 0 0 0 0 0 0 0 0 
0 0 0 0 0 0 0 0 0 0 0 0 0 0 0 0 0 0 0 0 0 0 0 0 0 0 0 0 0 0 0 0 0 0 0 0 0 0 0 
0 0 0 0 0 0 0 0 0 0 0 0 0 0 0 0 0 0 0 0 0 0 0 0 0 0 0 0 0 0 0 0 0 0 0 0 0 0 0 
0 0 0 0 0 0 0 0 0 0 0 0 0 0 0 0 0 0 0 0 0 0 0 0 0 0 0 0 0 0 0 0 0 0 0 0 0 0 0 
0 0 0 0 0 0 0 0 0 0 0 0 0 0 0 0 0 0 0 0 0 0 0 0 0 0 0 0 0 0 0 0 0 0 0 0 0 0 0 
0 0 0 0 0 0 0 0 0 0 0 0 0 0 0 0 0 0 0 0 0 0 0 0 0 0 0 0 0 0 0 0 0 0 0 0 0 0 0 
0 0 0 0 0 0 0 0 0 0 0 0 0 0 0 0 0 0 0 0 0 0 0 0 0 0 0 0 0 0 0 0 0 0 0 0 0 0 0 
0 0 0 0 0 0 0 0 0 0 0 0 0 0 0 0 0 0 0 0 0 0 0 0 0 0 0 0 0 0 0 0 0 0 0 0 0 0 0 
0 0 0 0 0 0 0 0 0 0 0 0 0 0 0 0 0 0 0 0 0 0 0 0 0 0 0 0 0 0 0 0 0 0 0 0 0 0 0 
0 0 0 0 0 0 0 0 0 0 0 0 0 0 0 0 0 0 0 0 0 0 0 0 0 0 0 0 0 0 0 0 0 0 0 0 0 0 0 
0 0 0 0 0 0 0 0 0 0 0 0 0 0 0 0 0 0 0 0 0 0 0 0 0 0 0 0 0 0 0 0 0 0 0 0 0 0 0 
0 0 0 0 0 0 0 0 0 0 0 0 0 0 0 0 0 0 0 0 0 0 0 0 0 0 0 0 0 0 0 0 0 0 0 0 0 0 0 
0 0 0 0 0 0 0 0 0 0 0 0 0 0 0 0 0 0 0 0 0 0 0 0 0 0 0 0 0 0 0 0 0 0 0 0 0 0 0 
0 0 0 0 0 0 0 0 0 0 0 0 0 0 0 0 0 0 0 0 0 0 0 0 0 0 0 0 0 0 0 0 0 0 0 0 0 0 0 
0 0 0 0 0 0 0 0 0 0 0 0 0 0 0 0 0 0 0 0 0 0 0 0 0 0 0 0 0 0 0 0 0 0 0 0 0 0 0 
0 0 0 0 0 0 0 0 0 0 0 0 0 0 0 0 0 0 0 0 0 0 0 0 0 0 0 0 0 0 0 0 0 0 0 0 0 0 0 
0 0 0 0 0 0 0 0 0 0 0 0 0 0 0 0 0 0 0 0 0 0 0 0 0 0 0 0 0 0 0 0 0 0 0 0 0 0 0 
0 0 0 0 0 0 0 0 0 0 0 0 0 0 0 0 0 0 0 0 0 4 0 7 0 0 3 5 0 2 1 4 2 0 0 0 0 8 4 
0 8 1 2 0 0 0 0 0 0 0 0 0 0 0 0 0 0 0 0 0 0 0 0 0 0 0 0 0 0 0 0 0 0 0 0 0 0 0 
0 0 0 0 0 0 0 0 0 0 0 0 0 0 0 0 0 0 0 0 0 0 0 0 0 0 0 0 0 0 0 0 0 0 0 0 0 0 0 
0 0 0 0 0 0 0 0 0 0 0 0 0 0 0 0 0 0 0 0 0 0 0 0 0 0 0 0 0 0 0 0 0 0 0 0 0 0 0 
0 0 0 0 0 0 0 0 0 0 0 0 0 0 0 0 0 0 0 0 0 0 0 0 0 0 0 0 0 0 0 0 0 0 5 0 0 7 1 
11 0 3 12 0 0 12 0 3 0 0 0 0 11 0 4 0 4 0 0 0 0 0 0 0 0 0 0 0 0 0 0 0 0 0 0 0 
0 0 0 0 0 0 0 0 0 0 0 0 0 0 0 0 0 0 0 0 0 0 0 0 0 0 0 0 0 0 0 0 0 0 0 0 0 0 0 
0 0 0 0 0 0 0 0 0 0 0 0 0 0 0 0 0 0 0 0 0 0 0 0 0 0 0 0 0 0 0 0 0 0 0 0 0 0 0 
0 0 0 0 0 0 0 0 0 0 0 0 0 0 0 0 0 0 0 0 0 0 0 0 0 0 0 0 0 0 0 0 0 0 0 0 0 0 0 
0 0 0 0 0 0 0 0 0 9 2 9 5 0 8 0 26 10 0 37 6 0 0 0 0 0 28 0 0 14 0 0 0 0 0 0 0 
0 0 0 0 0 0 0 0 0 0 0 0 0 0 0 0 0 0 0 0 0 0 0 0 0 0 0 0 0 0 0 0 0 0 0 0 0 0 0 
0 0 0 0 0 0 0 0 0 0 0 0 0 0 0 0 0 0 0 0 0 0 0 0 0 0 0 0 0 0 0 0 0 0 0 0 0 0 0 
0 0 0 0 0 0 0 0 0 0 0 0 0 0 0 0 0 0 0 0 0 0 0 0 0 0 0 0 0 0 0 0 0 0 0 0 0 0 0 
0 0 0 0 0 0 0 0 0 0 0 0 0 0 0 0 0 0 0 0 0 0 0 0 1 0 0 0 21 0 0 0 0 0 2 0 12 0 
6 0 0 0 5 2 3 0 3 5 0 0 0 0 0 0 0 0 0 0 0 0 0 0 0 0 0 0 0 0 0 0 0 0 0 0 0 0 0 
0 0 0 0 0 0 0 0 0 0 0 0 0 0 0 0 0 0 0 0 0 0 0 0 0 0 0 0 0 0 0 0 0 0 0 0 0 0 0 
0 0 0 0 0 0 0 0 0 0 0 0 0 0 0 0 0 0 0 0 0 0 0 0 0 0 0 0 0 0 0 0 0 0 0 0 0 0 0 
0 0 0 0 0 0 0 0 0 0 0 0 0 0 0 0 0 0 0 0 0 0 0 0 0 0 0 0 0 0 0 0 0 0 0 0 0 0 0 
0 17 0 0 21 0 3 3 28 242 255 251 253 246 248 255 0 2 8 0 7 6 0 0 0 0 0 0 0 0 0 
0 0 0 0 0 0 0 0 0 0 0 0 0 0 0 0 0 0 0 0 0 0 0 0 0 0 0 0 0 0 0 0 0 0 0 0 0 0 0 
0 0 0 0 0 0 0 0 0 0 0 0 0 0 0 0 0 0 0 0 0 0 0 0 0 0 0 0 0 0 0 0 0 0 0 0 0 0 0 
0 0 0 0 0 0 0 0 0 0 0 0 0 0 0 0 0 0 0 0 0 0 0 0 0 0 0 0 0 0 0 0 0 0 0 0 0 0 0 
0 0 0 0 0 0 0 0 0 0 0 0 0 0 0 0 0 0 0 0 12 0 1 4 2 0 4 0 245 247 246 232 255 
241 255 255 249 245 255 248 11 0 0 7 0 0 0 0 0 0 0 0 0 0 0 0 0 0 0 0 0 0 0 0 0 
0 0 0 0 0 0 0 0 0 0 0 0 0 0 0 0 0 0 0 0 0 0 0 0 0 0 0 0 0 0 0 0 0 0 0 0 0 0 0 
0 0 0 0 0 0 0 0 0 0 0 0 0 0 0 0 0 0 0 0 0 0 0 0 0 0 0 0 0 0 0 0 0 0 0 0 0 0 0 
0 0 0 0 0 0 0 0 0 0 0 0 0 0 0 0 0 0 0 0 0 0 0 0 0 0 0 0 0 0 0 0 0 0 0 0 0 0 0 
0 0 0 0 0 0 0 0 13 3 0 15 0 252 255 255 237 255 255 254 255 250 241 255 242 
255 238 245 19 0 0 0 0 0 0 0 0 0 0 0 0 0 0 0 0 0 0 0 0 0 0 0 0 0 0 0 0 0 0 0 0 
0 0 0 0 0 0 0 0 0 0 0 0 0 0 0 0 0 0 0 0 0 0 0 0 0 0 0 0 0 0 0 0 0 0 0 0 0 0 0 
0 0 0 0 0 0 0 0 0 0 0 0 0 0 0 0 0 0 0 0 0 0 0 0 0 0 0 0 0 0 0 0 0 0 0 0 0 0 0 
0 0 0 0 0 0 0 0 0 0 0 0 0 0 0 0 0 0 0 0 0 0 0 0 0 0 0 0 0 0 0 0 0 0 0 0 0 13 
0 1 0 0 255 242 246 243 255 246 249 253 243 251 255 246 247 255 253 255 232 
5 6 0 0 0 0 0 0 0 0 0 0 0 0 0 0 0 0 0 0 0 0 0 0 0 0 0 0 0 0 0 0 0 0 0 0 0 0 0 
0 0 0 0 0 0 0 0 0 0 0 0 0 0 0 0 0 0 0 0 0 0 0 0 0 0 0 0 0 0 0 0 0 0 0 0 0 0 0 
0 0 0 0 0 0 0 0 0 0 0 0 0 0 0 0 0 0 0 0 0 0 0 0 0 0 0 0 0 0 0 0 11 0 0 15 0 0 
5 3 4 0 7 0 2 6 0 9 0 0 10 0 0 0 0 0 0 0 0 0 0 0 0 0 0 0 0 0 0 0 5 0 9 253 245 
255 239 251 251 251 251 251 251 251 251 244 252 252 248 255 243 26 0 0 0 0 0 0 
0 0 0 0 0 0 0 0 0 0 0 2 0 5 8 0 7 0 0 0 0 18 0 0 16 0 3 0 4 0 0 3 0 7 2 0 0 0 
0 0 0 0 0 0 0 0 0 0 0 0 0 0 0 0 0 0 0 0 0 0 0 0 0 0 0 0 0 0 0 0 0 0 0 0 0 0 0 
0 0 0 0 0 0 0 0 0 0 0 0 0 0 0 0 0 0 0 0 0 0 0 0 0 15 0 0 8 0 0 3 0 0 247 255 
236 255 0 0 5 2 0 0 0 14 0 0 0 0 0 0 0 0 0 0 0 0 0 0 0 0 0 0 0 0 0 239 247 255 
254 251 251 251 251 251 251 251 251 255 238 248 255 245 246 229 4 0 0 0 0 0 0 
0 0 0 0 0 0 0 0 0 0 0 1 0 1 0 1 0 16 3 15 0 18 13 11 0 0 6 0 1 0 18 0 0 0 0 0 
0 0 0 0 0 0 0 0 0 0 0 0 0 0 0 0 0 0 0 0 0 0 0 0 0 0 0 0 0 0 0 0 0 0 0 0 0 0 0 
0 0 0 0 0 0 0 0 0 0 0 0 0 0 0 0 0 0 0 0 0 0 0 0 5 0 0 7 6 0 0 255 250 254 255 
245 247 255 226 255 241 7 0 0 6 0 0 10 0 0 0 0 0 0 0 0 0 0 0 0 0 0 0 0 2 6 0 17 
251 255 255 239 251 251 251 251 251 251 251 251 245 255 246 239 253 255 255 
0 0 0 0 0 0 0 0 0 0 0 0 0 0 0 0 0 0 4 0 0 14 3 0 0 0 0 8 241 255 231 255 255 
238 255 254 0 0 0 0 6 0 0 0 0 0 0 0 0 0 0 0 0 0 0 0 0 0 0 0 0 0 0 0 0 0 0 0 0 
0 0 0 0 0 0 0 0 0 0 0 0 0 0 0 0 0 0 0 0 0 0 0 0 0 0 0 0 0 0 0 0 0 0 0 0 0 13 
0 5 2 0 255 255 241 255 248 246 243 248 255 246 248 255 231 5 7 3 3 9 0 0 0 0 
0 0 0 0 0 0 0 0 0 0 0 0 0 5 0 6 241 243 255 248 251 251 251 251 251 251 251 
251 251 244 254 242 255 255 226 246 253 0 0 0 0 0 0 0 0 0 0 0 0 0 0 0 0 0 7 6 
1 0 0 20 14 6 255 240 253 249 255 255 242 254 241 255 248 0 13 6 0 0 0 0 0 0 0 
0 0 0 0 0 0 0 0 0 0 0 0 0 0 0 0 0 0 0 0 0 0 0 0 0 0 0 0 0 0 0 0 0 0 0 0 0 0 0 
0 0 0 0 0 0 0 0 0 0 0 0 0 0 0 0 0 0 0 0 0 0 7 0 247 255 248 249 247 247 255 
247 255 255 238 255 234 255 252 0 0 8 0 0 0 0 0 0 0 0 0 0 0 0 0 0 0 0 0 0 0 6 
0 255 251 249 253 255 251 251 251 251 251 251 251 251 250 244 254 250 246 255 
241 255 0 0 0 0 0 0 0 0 0 0 0 0 0 0 0 0 3 0 0 5 0 2 8 0 2 236 252 246 255 245 
242 251 255 238 240 254 252 0 0 0 0 0 0 0 0 0 0 0 0 0 0 0 0 0 0 0 0 0 0 0 0 0 
0 0 0 0 0 0 0 0 0 0 0 0 0 0 0 0 0 0 0 0 0 0 0 0 0 0 0 0 0 0 0 0 0 0 0 0 0 0 0 
0 0 0 0 8 22 0 0 253 231 255 254 255 251 250 251 241 233 255 247 255 255 245 
235 15 11 0 17 0 0 0 0 0 0 0 0 0 0 0 0 0 0 0 0 0 24 0 223 255 250 252 245 251 
251 251 251 251 251 251 251 255 242 253 248 255 241 255 242 0 0 0 0 0 0 0 0 0 
0 0 0 0 0 0 0 7 0 0 9 0 9 0 21 255 255 255 254 243 251 255 235 251 246 255 255 
237 249 16 0 0 0 0 0 0 0 0 0 0 0 0 0 0 0 0 0 0 0 0 0 0 0 0 0 0 0 0 0 0 0 0 0 0 
0 0 0 0 0 0 0 0 0 0 0 0 0 0 0 0 0 0 0 0 0 0 0 0 0 0 0 0 0 0 0 0 0 6 0 255 247 
255 229 252 255 239 248 253 255 253 255 240 238 253 249 255 255 0 23 0 0 0 0 0 
0 0 0 0 0 0 0 0 0 0 0 0 2 0 6 255 243 245 243 255 251 251 251 251 251 251 251 
251 239 255 254 226 255 252 231 10 0 0 0 0 0 0 0 0 0 0 0 0 0 0 0 0 0 10 6 9 0 
0 24 228 249 248 247 244 255 245 246 255 245 252 248 249 251 255 242 5 0 0 0 0 
0 0 0 0 0 0 0 0 0 0 0 0 0 0 0 0 0 0 0 0 0 0 0 0 0 0 0 0 0 0 0 0 0 0 0 0 0 0 0 
0 0 0 0 0 0 0 0 0 0 0 0 0 0 0 0 0 0 0 0 0 0 6 0 3 244 249 250 253 253 251 249 
255 246 254 239 254 250 255 255 238 255 232 8 0 2 0 0 0 0 0 0 0 0 0 0 0 0 0 0 
0 0 0 8 0 0 249 253 255 248 251 251 251 251 251 251 251 251 255 240 250 255 
245 245 255 0 0 0 0 0 0 0 0 0 0 0 0 0 0 0 0 0 0 9 0 3 9 5 0 255 253 255 255 
252 249 251 255 247 255 238 255 240 255 255 249 0 0 0 0 0 0 0 0 0 0 0 0 0 0 0 
0 0 0 0 0 0 0 0 0 0 0 0 0 0 0 0 0 0 0 0 0 0 0 0 0 0 0 0 23 3 0 10 2 0 0 6 0 3 
0 0 3 0 6 0 8 0 4 1 0 8 0 0 11 1 250 251 251 246 251 251 251 251 251 251 251 
251 251 244 255 250 255 239 3 0 2 0 0 0 0 0 0 0 0 0 0 0 0 0 0 0 0 0 2 9 4 249 
255 250 244 251 251 251 251 251 251 251 251 246 248 255 255 250 243 255 2 0 0 
0 0 0 0 0 0 0 0 0 0 0 0 0 0 2 0 1 1 0 2 251 251 251 251 251 251 251 251 251 
251 251 251 251 253 250 254 250 0 0 0 0 0 0 0 0 0 0 7 0 0 4 12 0 6 4 0 2 0 11 
0 2 0 0 0 0 0 0 0 0 0 0 0 0 0 0 0 0 0 0 18 0 3 11 3 0 0 11 0 0 1 7 7 1 0 0 20 
0 0 8 0 3 0 9 0 9 0 255 255 255 230 255 251 251 251 251 251 251 251 251 255 
239 247 255 240 255 0 0 0 0 0 0 0 0 0 0 0 0 0 0 0 0 0 0 7 10 0 0 255 229 255 
255 251 251 251 251 251 251 251 251 255 255 238 252 238 255 241 0 0 0 0 0 0 0 
0 0 0 0 0 0 0 0 0 0 2 0 1 1 0 2 251 251 251 251 251 251 251 251 251 251 251 
251 251 253 250 254 250 0 0 0 0 0 0 0 0 0 1 19 3 0 0 1 7 1 0 11 9 0 13 3 0 20 
0 0 0 0 0 0 0 0 0 0 0 0 0 0 0 0 0 0 4 15 0 0 0 15 0 8 0 2 0 0 2 0 8 0 22 8 0 18 
0 0 0 0 5 19 254 231 249 255 242 251 251 251 251 251 251 251 251 240 244 252 
247 249 240 5 0 0 0 0 0 0 0 0 0 0 0 0 0 0 0 0 0 1 0 10 2 247 255 243 241 251 
251 251 251 251 251 251 251 236 245 254 255 231 253 255 1 0 0 0 0 0 0 0 0 0 0 
0 0 0 0 0 0 2 0 1 1 0 2 251 251 251 251 251 251 251 251 251 251 251 251 251 
253 250 254 250 0 0 0 0 0 0 0 0 0 0 5 0 28 0 1 0 0 12 0 5 0 0 8 0 0 0 0 0 0 0 
0 0 0 0 0 0 0 0 0 0 0 0 0 7 0 0 17 0 0 0 0 0 6 3 3 6 0 0 25 0 2 0 7 7 0 4 10 
0 0 239 253 252 243 255 251 251 251 251 251 251 251 251 255 252 248 255 244 
255 0 9 0 0 0 0 0 0 0 0 0 0 0 0 0 0 0 0 0 5 0 0 0 255 229 255 251 251 251 251 
251 251 251 251 255 247 255 243 252 253 0 4 0 0 0 0 0 0 0 0 0 0 0 0 0 0 0 0 2 
0 1 1 0 2 251 251 251 251 251 251 251 251 251 251 251 251 251 253 250 254 250 
0 0 0 0 0 0 0 0 0 12 0 0 2 0 0 4 2 0 29 0 6 16 0 19 12 0 0 0 0 0 0 0 0 0 0 0 0 
0 0 0 0 0 2 0 10 0 4 0 28 7 1 4 247 250 250 247 4 1 0 13 0 0 0 3 0 8 0 8 0 12 
247 252 251 249 251 251 251 251 251 251 251 251 230 250 255 249 254 251 7 0 0 
0 0 0 0 0 0 0 0 0 0 0 0 0 0 0 7 1 5 0 0 255 255 232 251 251 251 251 251 251 
251 251 239 255 254 248 255 255 0 1 0 0 0 0 0 0 0 0 0 0 0 0 0 0 0 0 2 0 1 1 0 
2 251 251 251 251 251 251 251 251 251 251 251 251 251 253 250 254 250 0 0 0 0 
0 0 0 0 0 0 0 6 0 0 20 0 1 11 0 0 0 2 1 1 0 0 0 0 0 0 0 0 0 0 0 0 0 0 0 0 0 0 
6 0 0 0 3 0 0 238 255 247 255 251 251 255 247 255 17 0 27 0 11 0 3 0 3 0 14 0 
249 252 246 249 251 251 251 251 251 251 251 251 255 247 252 255 243 255 0 0 0 
0 0 0 0 0 0 0 0 0 0 0 0 0 0 0 0 0 0 26 0 0 255 255 251 251 251 251 251 251 251 
251 255 242 245 255 247 0 6 0 0 0 0 0 0 0 0 0 0 0 0 0 0 0 0 0 2 0 1 1 0 2 251 
251 251 251 251 251 251 251 251 251 251 251 251 253 250 254 250 0 0 0 0 0 0 0 
0 0 0 8 10 0 14 0 0 5 0 0 5 0 0 11 0 2 0 0 0 0 0 0 0 0 0 0 0 0 0 0 0 0 0 0 0 7 
0 10 0 255 255 243 255 238 254 254 238 255 243 252 0 16 0 0 7 0 5 4 8 0 0 5 255 
247 255 251 251 251 251 251 251 251 251 241 255 249 244 251 9 0 0 0 0 0 0 0 0 
0 0 0 0 0 0 0 0 0 0 0 10 0 0 6 12 0 246 251 251 251 251 251 251 251 251 255 
255 244 255 0 0 0 6 0 0 0 0 0 0 0 0 0 0 0 0 0 0 0 0 2 0 1 1 0 2 251 251 251 
251 251 251 251 251 251 251 251 251 251 253 250 254 250 0 0 0 0 0 0 0 0 0 8 0 
0 1 255 245 255 234 245 255 0 0 5 0 6 6 0 0 0 0 0 0 0 0 0 0 0 0 0 0 0 0 0 0 13 
0 14 0 250 249 249 251 252 251 252 252 251 252 251 250 255 0 2 7 0 0 2 0 0 15 
1 0 255 248 253 251 251 251 251 251 251 251 251 255 255 242 254 255 0 5 2 0 0 
0 0 0 0 0 0 0 0 0 0 0 0 0 0 4 0 0 5 0 0 7 0 251 251 251 251 251 251 251 251 
237 255 247 0 10 1 0 0 0 0 0 0 0 0 0 0 0 0 0 0 0 0 0 0 2 0 1 1 0 2 251 251 251 
251 251 251 251 251 251 251 251 251 251 253 250 254 250 0 0 0 0 0 0 0 0 0 0 255 
245 255 247 244 244 255 255 241 249 254 0 4 8 0 0 0 0 0 0 0 0 0 0 0 0 0 0 0 0 
0 0 8 0 0 1 5 240 255 242 251 251 251 251 251 251 251 251 248 255 245 0 0 18 
0 2 2 0 0 7 2 0 255 250 248 239 255 249 252 253 249 255 242 255 248 253 6 0 0 
2 0 0 0 0 0 0 0 0 8 0 0 0 0 0 8 0 0 4 1 0 0 0 6 4 246 255 244 255 254 245 255 
241 254 247 14 1 0 0 0 8 2 0 5 0 0 1 0 0 0 0 0 0 0 0 0 0 2 0 1 0 3 3 243 255 
245 255 255 228 255 255 242 254 253 255 248 248 250 255 0 4 6 0 0 1 11 0 4 0 251 
251 251 251 251 251 251 251 255 250 251 255 0 0 16 0 0 0 0 0 0 0 0 0 0 0 0 0 0 
0 0 0 0 0 0 15 0 255 255 243 255 251 251 251 251 251 251 251 251 250 242 248 
8 0 0 9 2 5 0 7 0 0 16 0 252 255 255 248 236 255 244 242 251 255 250 255 251 
0 0 20 0 0 0 0 0 0 0 0 0 0 1 8 0 0 21 0 0 5 1 0 4 4 0 0 0 1 231 255 230 253 
247 243 255 253 245 0 0 8 2 15 0 0 6 0 0 26 0 0 2 1 1 1 1 1 1 1 1 4 11 0 0 4 0 
9 255 251 248 245 255 242 241 250 255 247 255 248 255 251 0 8 8 0 15 12 0 0 0 
0 249 251 251 251 251 251 251 251 251 253 248 241 251 253 0 0 3 0 0 0 0 0 0 0 
0 0 0 0 0 0 0 0 0 0 7 0 0 4 232 247 255 250 251 251 251 251 251 251 251 251 
249 255 246 255 1 0 9 2 0 3 0 11 0 27 0 17 243 248 243 255 255 251 248 255 227 
255 239 0 17 0 0 0 0 0 0 0 0 0 0 0 15 0 0 0 6 0 0 0 0 6 0 0 15 10 17 1 255 255 
247 255 250 248 255 238 240 255 255 4 0 16 0 4 0 6 14 0 0 8 11 0 0 0 0 0 0 0 0 
0 2 0 8 0 9 0 0 0 248 255 251 236 252 255 255 236 255 239 248 254 0 0 33 0 11 
0 5 3 14 0 253 255 251 251 251 251 251 251 251 251 238 255 255 249 252 12 0 12 
0 0 0 0 0 0 0 0 0 0 0 0 0 0 0 0 0 0 11 17 0 255 236 255 241 251 251 251 251 
251 251 251 251 255 234 255 239 0 10 0 0 8 0 3 0 0 0 13 0 4 253 255 255 236 
255 245 244 255 231 255 0 0 10 4 6 0 0 0 0 0 0 0 0 0 10 0 24 0 0 11 0 2 0 2 9 
0 0 0 2 240 245 240 255 255 239 252 255 252 252 247 2 0 14 0 4 7 0 1 17 2 10 
0 0 1 1 1 1 1 1 1 1 3 0 15 0 0 10 12 5 250 250 243 249 246 237 242 255 248 255 
5 11 0 8 0 1 0 18 0 0 0 253 231 255 251 251 251 251 251 251 251 251 255 252 
236 255 242 238 31 0 0 0 0 0 0 0 0 0 0 0 0 0 0 0 0 0 0 10 0 0 7 252 245 255 
253 251 251 251 251 251 251 251 251 252 244 236 255 252 0 0 0 4 0 7 7 0 2 0 25 
4 0 239 233 255 242 255 255 243 243 255 0 0 0 5 0 0 0 0 0 0 0 0 0 0 0 4 0 0 3 
8 3 0 17 0 0 9 14 0 245 243 255 247 225 255 254 240 255 255 230 255 248 255 
0 1 0 9 0 0 253 0 8 0 8 0 0 0 0 0 0 0 0 4 0 0 0 14 3 0 2 1 254 255 255 255 255 
252 240 241 9 0 0 10 1 12 7 0 17 0 4 6 252 255 245 251 251 251 251 251 251 251 
251 237 241 255 254 244 255 0 3 0 0 0 0 0 0 0 0 0 0 0 0 0 0 0 0 0 0 7 16 0 255 
255 240 255 251 251 251 251 251 251 251 251 241 255 255 244 255 0 0 10 0 0 0 18 
0 8 22 0 0 0 6 253 239 247 255 235 255 252 249 246 21 3 0 14 0 0 0 0 0 0 0 0 0 
0 11 0 17 0 0 245 1 0 6 0 12 234 253 255 251 233 254 255 248 243 255 246 242 
255 243 255 248 255 249 248 236 255 236 251 255 248 7 0 0 0 0 0 0 0 0 0 0 1 13 
3 0 0 24 0 250 255 234 255 241 225 255 0 19 0 12 0 2 0 0 0 5 0 6 8 0 247 247 
255 251 251 251 251 251 251 251 251 255 255 255 240 255 240 0 12 0 0 0 0 0 0 0 
0 0 0 0 0 0 0 0 0 0 7 0 0 0 15 248 247 251 251 251 251 251 251 251 251 251 250 
253 239 255 246 8 0 2 9 0 3 0 8 0 0 20 14 0 0 254 255 244 253 255 255 252 255 
235 7 6 0 0 0 0 0 0 0 0 0 0 0 7 0 0 1 253 255 255 248 234 255 255 220 255 255 
242 255 255 250 237 243 255 255 247 255 255 240 251 254 239 255 253 250 255 
246 255 241 255 231 11 2 2 2 2 2 2 2 2 16 0 0 10 0 17 0 0 255 238 255 242 255 
255 239 0 0 16 0 0 4 4 13 4 9 0 4 0 0 255 249 245 251 251 251 251 251 251 251 
251 238 246 245 255 249 251 16 0 0 0 0 0 0 0 0 0 0 0 0 0 0 0 0 0 0 1 0 14 1 0 
255 246 252 251 251 251 251 251 251 251 251 253 255 240 253 255 239 13 0 0 8 0 
1 4 0 8 0 0 0 11 0 255 254 251 247 252 245 248 255 239 252 15 0 0 0 0 0 0 0 0 
0 0 8 0 0 255 245 248 253 249 255 240 248 255 242 239 255 250 247 255 255 248 
241 242 254 247 247 255 250 249 249 255 246 255 234 255 246 245 255 253 245 
250 250 250 250 250 250 250 250 0 15 5 5 0 0 255 252 250 243 255 248 252 249 
0 3 0 0 5 8 0 2 0 4 0 10 0 0 5 241 255 255 251 251 251 251 251 251 251 251 255 
251 254 244 255 255 0 0 0 0 0 0 0 0 0 0 0 0 0 0 0 0 0 0 0 0 10 4 0 5 255 238 
255 242 255 254 250 254 255 233 255 244 255 251 254 249 252 0 5 1 3 0 3 0 0 3 
0 0 0 6 8 246 246 255 244 251 251 251 251 251 251 251 251 251 251 251 251 251 
251 251 251 251 251 251 251 251 251 251 251 251 251 251 251 251 251 251 251 
251 251 251 251 251 251 251 251 251 251 251 251 251 251 251 251 251 251 251 
251 251 251 251 251 251 251 251 251 251 251 251 251 255 248 0 255 246 246 255 
235 255 242 255 248 242 246 255 0 0 0 5 0 8 0 1 3 0 14 0 7 255 241 255 255 251 
251 251 251 251 251 251 251 244 255 221 255 255 0 5 0 0 0 0 0 0 0 0 0 0 0 0 0 
0 0 0 0 0 11 0 0 6 0 250 255 226 255 235 239 252 255 237 255 255 255 242 253 
244 249 255 252 251 0 8 1 0 13 4 0 7 15 0 0 253 254 245 250 246 251 251 251 
251 251 251 251 251 251 251 251 251 251 251 251 251 251 251 251 251 251 251 
251 251 251 251 251 251 251 251 251 251 251 251 251 251 251 251 251 251 251 
251 251 251 251 251 251 251 251 251 251 251 251 251 251 251 251 251 251 251 
251 251 251 251 245 253 245 253 244 246 255 255 255 241 245 242 255 255 227 
23 14 0 5 10 0 0 10 0 12 0 14 243 247 255 234 253 251 251 251 251 251 251 251 
251 255 247 255 252 232 11 0 2 0 0 0 0 0 0 0 0 0 0 0 0 0 0 0 0 0 0 8 1 0 6 0 255 
255 236 255 255 255 241 255 255 250 242 255 245 255 252 244 252 245 255 234 
7 0 6 0 0 2 3 0 7 247 247 255 254 249 251 251 251 251 251 251 251 251 251 251 
251 251 251 251 251 251 251 251 251 251 251 251 251 251 251 251 251 251 251 
251 251 251 251 251 251 251 251 251 251 251 251 251 251 251 251 251 251 251 
251 251 251 251 251 251 251 251 251 251 251 251 251 251 251 251 250 245 255 
248 255 254 244 241 244 255 255 242 253 242 255 230 0 0 8 0 255 238 251 255 
251 244 241 255 239 239 255 246 251 251 251 251 251 251 251 251 241 251 247 
247 255 0 0 0 0 0 0 0 0 0 0 0 0 0 0 0 0 0 0 0 0 0 10 0 5 0 15 0 230 255 255 
255 236 252 255 226 252 249 255 241 248 248 255 238 255 237 255 254 0 0 9 0 4 
0 1 252 255 241 255 244 255 251 251 251 251 251 251 251 251 251 251 251 251 
251 251 251 251 251 251 251 251 251 251 251 251 251 251 251 251 251 251 251 
251 251 251 251 251 251 251 251 251 251 251 251 251 251 251 251 251 251 251 
251 251 251 251 251 251 251 251 251 251 251 251 251 251 250 255 224 255 255 
243 251 253 248 255 255 246 255 249 243 255 253 255 243 255 243 255 249 255 
238 255 254 244 255 252 249 251 251 251 251 251 251 251 251 251 255 249 246 
255 252 0 7 2 0 0 0 0 0 0 0 0 0 0 0 0 0 0 0 0 0 13 0 0 14 0 0 5 13 250 242 248 
251 255 249 255 253 255 238 255 248 248 241 255 249 255 234 246 255 255 0 8 0 
240 255 255 231 255 236 248 241 251 251 251 251 251 251 251 251 251 251 251 
251 251 251 251 251 251 251 251 251 251 251 251 251 251 251 251 251 251 251 
251 251 251 251 251 251 251 251 251 251 251 251 251 251 251 251 251 251 251 
251 251 251 251 251 251 251 251 251 251 251 251 251 251 251 255 248 255 241 
252 249 253 255 253 244 245 250 255 255 231 237 249 255 242 238 255 255 241 
249 255 255 229 255 246 254 247 255 251 251 251 251 251 251 251 251 255 241 
255 239 0 20 0 0 0 0 0 0 0 0 0 0 0 0 0 0 0 0 0 0 0 0 11 8 0 0 0 5 0 0 255 244 
252 239 249 241 255 245 252 244 252 255 245 255 242 242 255 250 255 240 234 
255 243 255 228 253 255 236 255 255 253 251 251 251 251 251 251 251 251 251 
251 251 251 251 251 251 251 251 251 251 251 251 251 251 251 251 251 251 251 
251 251 251 251 251 251 251 251 251 251 251 251 251 251 251 251 251 251 251 
251 251 251 251 251 251 251 251 251 251 251 251 251 251 251 251 251 254 240 
255 232 252 253 247 241 251 247 255 253 237 248 255 255 253 249 255 255 250 
247 255 255 245 242 255 249 255 250 255 239 251 251 251 251 251 251 251 251 
239 255 249 255 3 0 0 2 0 0 0 0 0 0 0 0 0 0 0 0 0 0 0 0 0 0 0 4 4 6 0 6 0 0 0 
0 255 251 255 252 251 251 252 255 249 244 253 242 255 255 225 255 242 253 255 
248 255 240 253 255 251 247 244 242 242 251 251 251 251 251 251 251 251 251 
251 251 251 251 251 251 251 251 251 251 251 251 251 251 251 251 251 251 251 
251 251 251 251 251 251 251 251 251 251 251 251 251 251 251 251 251 251 251 
251 251 251 251 251 251 251 251 251 251 251 251 251 251 251 251 251 241 255 
243 255 253 234 253 255 255 250 251 250 254 250 253 235 255 239 255 255 237 
244 255 243 255 255 244 251 251 246 237 255 251 251 251 251 251 251 251 251 
250 246 250 0 0 7 3 8 0 0 0 0 0 0 0 0 0 0 0 0 0 0 0 0 0 7 0 1 0 3 1 0 1 7 0 15 
0 0 0 2 0 5 0 252 249 254 251 255 244 242 255 225 255 246 249 255 244 246 255 
249 249 251 255 242 255 251 251 251 251 251 251 251 251 251 251 251 251 251 
251 251 251 251 251 251 251 251 251 251 251 251 251 251 251 251 251 251 251 
251 251 251 251 251 251 251 251 251 251 251 251 251 251 251 251 251 251 251 
251 251 251 251 251 251 251 251 251 251 251 251 251 255 252 240 246 255 250 
255 244 249 254 246 243 255 244 255 252 251 251 247 246 255 255 251 250 252 
243 255 245 252 253 255 240 251 251 251 251 251 251 251 251 252 251 3 0 2 0 0 
0 0 0 0 0 0 0 0 0 0 0 0 0 0 0 0 0 0 0 0 0 0 0 0 0 0 0 0 0 0 0 0 0 0 1 6 0 1 251 
243 255 240 255 247 255 245 255 244 252 249 251 251 251 251 251 251 251 251 
251 251 251 251 251 251 251 251 251 251 251 251 251 251 251 251 251 251 251 
251 251 251 251 251 251 251 251 251 251 251 251 251 251 251 251 251 251 251 
251 251 251 251 251 251 251 251 251 251 251 251 251 251 251 251 251 251 251 
251 251 251 251 251 251 251 251 251 251 251 251 251 251 251 251 251 251 251 
251 251 251 251 251 251 251 251 251 251 251 251 255 238 255 255 245 244 255 
246 250 250 250 250 250 250 250 250 0 0 0 0 0 0 0 0 0 0 0 0 0 0 0 0 0 0 0 0 0 
0 0 0 0 0 0 0 0 0 0 0 0 0 0 0 0 0 0 0 0 0 5 6 0 13 237 247 255 255 228 252 254 
240 255 247 255 251 251 251 251 251 251 251 251 251 251 251 251 251 251 251 
251 251 251 251 251 251 251 251 251 251 251 251 251 251 251 251 251 251 251 
251 251 251 251 251 251 251 251 251 251 251 251 251 251 251 251 251 251 251 
251 251 251 251 251 251 251 251 251 251 251 251 251 251 251 251 251 251 251 
251 251 251 251 251 251 251 251 251 251 251 251 251 251 251 251 251 251 251 
251 251 251 251 251 248 255 246 238 255 250 251 249 2 2 2 2 2 2 2 2 0 0 0 0 0 
0 0 0 0 0 0 0 0 0 0 0 0 0 0 0 0 0 0 0 0 0 0 0 0 0 0 0 0 0 0 0 0 0 0 0 0 0 0 0 
0 0 14 238 255 248 255 253 250 253 246 249 254 251 251 251 251 251 251 251 251 
251 251 251 251 251 251 251 251 251 251 251 251 251 251 251 251 251 251 251 
251 251 251 251 251 251 251 251 251 251 251 251 251 251 251 251 251 251 251 
251 251 251 251 251 251 251 251 251 251 251 251 251 251 251 251 251 251 251 
251 251 251 251 251 251 251 251 251 251 251 251 251 251 251 251 251 251 251 
251 251 251 251 251 251 251 251 251 251 251 251 250 240 255 243 254 247 0 0 0 
0 0 0 0 0 0 0 0 0 0 0 0 0 0 0 0 0 0 0 0 0 0 0 0 0 0 0 0 0 0 0 0 0 0 0 0 0 0 0 
0 0 0 0 0 0 0 0 0 4 2 0 11 5 6 0 231 243 253 243 246 255 244 246 247 251 251 
251 251 251 251 251 251 251 251 251 251 251 251 251 251 251 251 251 251 251 
251 251 251 251 251 251 251 251 251 251 251 251 251 251 251 251 251 251 251 
251 251 251 251 251 251 251 251 251 251 251 251 251 251 251 251 251 251 251 
251 251 251 251 251 251 251 251 251 251 251 251 251 251 251 251 251 251 251 
251 251 251 251 251 251 251 251 251 251 251 251 251 251 251 251 251 251 235 
255 246 255 0 1 0 9 0 0 0 0 0 0 0 0 0 0 0 0 0 0 0 0 0 0 0 0 0 0 0 0 0 0 0 0 0 
0 0 0 0 0 0 0 0 0 0 0 0 0 0 0 0 0 0 0 0 5 3 0 14 0 0 10 16 253 250 255 251 241 
255 243 255 251 251 251 251 251 251 251 251 251 251 251 251 251 251 251 251 
251 251 251 251 251 251 251 251 251 251 251 251 251 251 251 251 251 251 251 
251 251 251 251 251 251 251 251 251 251 251 251 251 251 251 251 251 251 251 
251 251 251 251 251 251 251 251 251 251 251 251 251 251 251 251 251 251 251 
251 251 251 251 251 251 251 251 251 251 251 251 251 251 251 251 251 251 251 
251 251 251 251 249 248 240 5 0 0 5 0 1 1 1 1 1 1 1 1 0 0 0 0 0 0 0 0 0 0 0 0 
0 0 0 0 0 0 0 0 0 0 0 0 0 0 0 0 0 0 0 0 0 0 0 0 0 0 0 0 0 0 19 1 0 0 7 0 0 4 242 
245 255 251 255 246 245 251 251 251 251 251 251 251 251 251 251 251 251 251 
251 251 251 251 251 251 251 251 251 251 251 251 251 251 251 251 251 251 251 
251 251 251 251 251 251 251 251 251 251 251 251 251 251 251 251 251 251 251 
251 251 251 251 251 251 251 251 251 251 251 251 251 251 251 251 251 251 251 
251 251 251 251 251 251 251 251 251 251 251 251 251 251 251 251 251 251 251 
251 251 251 251 251 251 251 255 231 4 0 13 0 0 13 0 0 0 0 0 0 0 0 0 0 0 0 0 0 
0 0 0 0 0 0 0 0 0 0 0 0 0 0 0 0 0 0 0 0 0 0 0 0 0 0 0 0 0 0 0 0 0 0 0 4 0 12 
5 3 0 2 17 0 249 255 240 241 237 255 255 251 251 251 251 251 251 251 251 251 
251 251 251 251 251 251 251 251 251 251 251 251 251 251 251 251 251 251 251 
251 251 251 251 251 251 251 251 251 251 251 251 251 251 251 251 251 251 251 
251 251 251 251 251 251 251 251 251 251 251 251 251 251 251 251 251 251 251 
251 251 251 251 251 251 251 251 251 251 251 251 251 251 251 251 251 251 251 
251 251 251 251 251 251 251 251 251 251 251 246 255 0 0 0 0 4 0 1 1 1 1 1 1 1 
1 0 0 0 0 0 0 0 0 0 0 0 0 0 0 0 0 0 0 0 0 0 0 0 0 0 0 0 0 0 0 0 0 0 0 0 0 0 0 
0 0 0 3 1 0 15 0 8 4 0 2 8 240 246 255 255 240 248 251 251 251 251 251 251 251 
251 251 251 251 251 251 251 251 251 251 251 251 251 251 251 251 251 251 251 
251 251 251 251 251 251 251 251 251 251 251 251 251 251 251 251 251 251 251 
251 251 251 251 251 251 251 251 251 251 251 251 251 251 251 251 251 251 251 
251 251 251 251 251 251 251 251 251 251 251 251 251 251 251 251 251 251 251 
251 251 251 251 251 251 251 251 251 251 251 251 251 251 0 2 0 1 5 0 5 0 0 0 0 
0 0 0 0 0 0 0 0 0 0 0 0 0 0 0 0 0 0 0 0 0 0 0 0 0 0 0 0 0 0 0 0 0 0 0 0 0 0 0 
0 0 0 0 0 0 0 0 0 0 0 0 0 0 0 0 255 242 249 241 246 254 251 251 251 251 251 
251 251 251 251 251 251 251 251 251 251 251 251 251 251 251 251 251 251 251 
251 251 251 251 251 251 251 251 251 251 251 251 251 251 251 251 251 251 251 
251 251 251 251 251 251 251 251 251 251 251 251 251 251 251 251 251 251 251 
251 251 251 251 251 251 251 251 251 251 251 251 251 251 251 251 251 251 251 
251 251 251 251 251 251 251 245 255 236 246 255 253 237 255 0 0 0 0 0 0 0 0 0 
0 0 0 0 0 0 0 0 0 0 0 0 0 0 0 0 0 0 0 0 0 0 0 0 0 0 0 0 0 0 0 0 0 0 0 0 0 0 0 
0 0 0 0 0 0 0 0 0 0 0 0 0 0 0 0 0 9 5 247 246 255 255 252 247 251 251 251 251 
251 251 251 251 251 251 251 251 251 251 251 251 251 251 251 251 251 251 251 
251 251 251 251 251 251 251 251 251 251 251 251 251 251 251 251 251 251 251 
251 251 251 251 251 251 251 251 251 251 251 251 251 251 251 251 251 251 251 
251 251 251 251 251 251 251 251 251 251 251 251 251 251 251 251 251 251 251 
251 251 251 251 251 251 251 251 245 255 255 252 236 241 255 228 0 0 0 0 0 0 0 
0 0 0 0 0 0 0 0 0 0 0 0 0 0 0 0 0 0 0 0 0 0 0 0 0 0 0 0 0 0 0 0 0 0 0 0 0 0 0 
0 0 0 0 0 0 0 0 0 0 0 0 0 0 0 0 0 0 0 6 0 0 255 243 245 252 255 251 251 251 
251 251 251 251 251 251 251 251 251 251 251 251 251 251 251 251 251 251 251 
251 251 251 251 251 251 251 251 251 251 251 251 251 251 251 251 251 251 251 
251 251 251 251 251 251 251 251 251 251 251 251 251 251 251 251 251 251 251 
251 251 251 251 251 251 251 251 251 251 251 251 251 251 251 251 251 251 251 
251 251 251 251 251 251 251 251 251 255 239 244 252 254 255 244 21 0 0 0 0 0 0 
0 0 0 0 0 0 0 0 0 0 0 0 0 0 0 0 0 0 0 0 0 0 0 0 0 0 0 0 0 0 0 0 0 0 0 0 0 0 0 
0 0 0 0 0 0 0 0 0 0 0 0 0 0 0 0 0 0 0 0 1 4 255 243 243 253 243 250 251 251 
251 251 251 251 251 251 251 251 251 251 251 251 251 251 251 251 251 251 251 
251 251 251 251 251 251 251 251 251 251 251 251 251 251 251 251 251 251 251 
251 251 251 251 251 251 251 251 251 251 251 251 251 251 251 251 251 251 251 
251 251 251 251 251 251 251 251 251 251 251 251 251 251 251 251 251 251 251 
251 251 251 251 251 251 251 251 251 251 254 242 250 247 250 250 255 0 0 0 0 0 
0 0 0 0 0 0 0 0 0 0 0 0 0 0 0 0 0 0 0 0 0 0 0 0 0 0 0 0 0 0 0 0 0 0 0 0 0 0 0 
0 0 0 0 0 0 0 0 0 0 0 0 0 0 0 0 0 0 0 0 0 0 0 0 238 255 255 252 252 255 251 
251 251 251 251 251 251 251 251 251 251 251 251 251 251 251 251 251 251 251 
251 251 251 251 251 251 251 251 251 251 251 251 251 251 251 251 251 251 251 
251 251 251 251 251 251 251 251 251 251 251 251 251 251 251 251 251 251 251 
251 251 251 251 251 251 251 251 251 251 251 251 251 251 251 251 251 251 251 
251 251 251 251 251 251 251 251 251 251 251 249 255 255 244 250 241 255 13 0 0 
0 0 0 0 0 0 0 0 0 0 0 0 0 0 0 0 0 0 0 0 0 0 0 0 0 0 0 0 0 0 0 0 0 0 0 0 0 0 0 
0 0 0 0 0 0 0 0 0 0 0 0 0 0 0 0 0 0 0 0 0 0 0 0 7 15 243 240 246 237 255 250 
251 251 251 251 251 251 251 251 251 251 251 251 251 251 251 251 251 251 251 
251 251 251 251 251 251 251 251 251 251 251 251 251 251 251 251 251 251 251 
251 251 251 251 251 251 251 251 251 251 251 251 251 251 251 251 251 251 251 
251 251 251 251 251 251 251 251 251 251 251 251 251 251 251 251 251 251 251 
251 251 251 251 251 251 251 251 251 251 251 251 252 255 247 241 255 251 240 
0 0 0 0 0 0 0 0 0 0 0 0 0 0 0 0 0 0 0 0 0 0 0 0 0 0 0 0 0 0 0 0 0 0 0 0 0 0 0 
0 0 0 0 0 0 0 0 0 0 0 0 0 0 0 0 0 0 0 0 0 0 0 0 0 0 0 0 0 255 250 255 255 248 
244 251 251 251 251 251 251 251 251 251 251 251 251 251 251 251 251 251 251 
251 251 251 251 251 251 251 251 251 251 251 251 251 251 251 251 251 251 251 
251 251 251 251 251 251 251 251 251 251 251 251 251 251 251 251 251 251 251 
251 251 251 251 251 251 251 251 251 251 251 251 251 251 251 251 251 251 251 
251 251 251 251 251 251 251 251 251 251 251 251 251 247 252 255 243 253 249 
247 16 0 0 0 0 0 0 0 0 0 0 0 0 0 0 0 0 0 0 0 0 0 0 0 0 0 0 0 0 0 0 0 0 0 0 0 0 
0 0 0 0 0 0 0 0 0 0 0 0 0 0 0 0 0 0 0 0 0 0 0 0 0 0 0 0 0 2 0 252 246 246 254 
240 255 251 251 251 251 251 251 251 251 251 251 251 251 251 251 251 251 251 
251 251 251 251 251 251 251 251 251 251 251 251 251 251 251 251 251 251 251 
251 251 251 251 251 251 251 251 251 251 251 251 251 251 251 251 251 251 251 
251 251 251 251 251 251 251 251 251 251 251 251 251 251 251 251 251 251 251 
251 251 251 251 251 251 251 251 251 251 251 251 251 251 254 248 255 251 247 
255 241 0 0 0 0 0 0 0 0 0 0 0 0 0 0 0 0 0 0 0 0 0 0 0 0 0 0 0 0 0 0 0 0 0 0 0 
0 0 0 0 0 0 0 0 0 0 0 0 0 0 0 0 0 0 0 0 0 0 0 0 0 0 0 0 0 0 0 0 9 0 4 246 254 
239 254 251 251 251 251 251 251 251 251 251 251 251 251 251 251 251 251 251 
251 251 251 251 251 251 251 251 251 251 251 251 251 251 251 251 251 251 251 
251 251 251 251 251 251 251 251 251 251 251 251 251 251 251 251 251 251 251 
251 251 251 251 251 251 251 251 251 251 251 251 251 251 251 251 251 251 251 
251 251 251 251 251 251 251 251 251 251 251 251 251 251 255 232 255 255 241 
251 0 0 0 0 0 0 0 0 0 0 0 0 0 0 0 0 0 0 0 0 0 0 0 0 0 0 0 0 0 0 0 0 0 0 0 0 0 
0 0 0 0 0 0 0 0 0 0 0 0 0 0 0 0 0 0 0 0 0 0 0 0 0 0 0 0 0 0 2 0 0 0 2 255 255 
247 251 251 251 251 251 251 251 251 251 251 251 251 251 251 251 251 251 251 
251 251 251 251 251 251 251 251 251 251 251 251 251 251 251 251 251 251 251 
251 251 251 251 251 251 251 251 251 251 251 251 251 251 251 251 251 251 251 
251 251 251 251 251 251 251 251 251 251 251 251 251 251 251 251 251 251 251 
251 251 251 251 251 251 251 251 251 251 251 251 251 245 255 251 246 255 0 8 3 
0 0 0 0 0 0 0 0 0 0 0 0 0 0 0 0 0 0 0 0 0 0 0 0 0 0 0 0 0 0 0 0 0 0 0 0 0 0 0 
0 0 0 0 0 0 0 0 0 0 0 0 0 0 0 0 0 0 0 0 0 0 0 0 0 0 4 4 3 3 0 6 238 247 251 
251 251 251 251 251 251 251 251 251 251 251 251 251 251 251 251 251 251 251 
251 251 251 251 251 251 251 251 251 251 251 251 251 251 251 251 251 251 251 
251 251 251 251 251 251 251 251 251 251 251 251 251 251 251 251 251 251 251 
251 251 251 251 251 251 251 251 251 251 251 251 251 251 251 251 251 251 251 
251 251 251 251 251 251 251 251 251 251 251 254 250 248 255 0 3 0 2 0 0 0 0 0 
0 0 0 0 0 0 0 0 0 0 0 0 0 0 0 0 0 0 0 0 0 0 0 0 0 0 0 0 0 0 0 0 0 0 0 0 0 0 0 
0 0 0 0 0 0 0 0 0 0 0 0 0 0 0 0 0 0 0 0 0 0 7 3 0 6 249 252 255 251 251 251 
251 251 251 251 251 251 251 251 251 251 251 251 251 251 251 251 251 251 251 
251 251 251 251 251 251 251 251 251 251 251 251 251 251 251 251 251 251 251 
251 251 251 251 251 251 251 251 251 251 251 251 251 251 251 251 251 251 251 
251 251 251 251 251 251 251 251 251 251 251 251 251 251 251 251 251 251 251 
251 251 251 251 251 251 251 251 251 254 252 255 240 0 23 2 0 0 0 0 0 0 0 0 0 0 
0 0 0 0 0 0 0 0 0 0 0 0 0 0 0 0 0 0 0 0 0 0 0 0 0 0 0 0 0 0 0 0 0 0 0 0 0 0 0 
0 0 0 0 0 0 0 0 0 0 0 0 0 0 0 0 0 3 2 0 15 0 234 255 239 251 251 251 251 251 
251 251 251 251 251 251 251 251 251 251 251 251 251 251 251 251 251 251 251 
251 251 251 251 251 251 251 251 251 251 251 251 251 251 251 251 251 251 251 
251 251 251 251 251 251 251 251 251 251 251 251 251 251 251 251 251 251 251 
251 251 251 251 251 251 251 251 251 251 251 251 251 251 251 251 251 251 251 
251 251 251 251 251 251 251 251 251 249 246 15 0 9 0 0 0 0 0 0 0 0 0 0 0 0 0 0 
0 0 0 0 0 0 0 0 0 0 0 0 0 0 0 0 0 0 0 0 0 0 0 0 0 0 0 0 0 0 0 0 0 0 0 0 0 0 0 
0 0 0 0 0 0 0 0 0 0 0 0 0 8 0 2 6 0 255 255 246 251 251 251 251 251 251 251 
251 251 251 251 251 251 251 251 251 251 251 251 251 251 251 251 251 251 251 
251 251 251 251 251 251 251 251 251 251 251 251 251 251 251 251 251 251 251 
251 251 251 251 251 251 251 251 251 251 251 251 251 251 251 251 251 251 251 
251 251 251 251 251 251 251 251 251 251 251 251 251 251 251 251 251 251 251 
251 251 251 251 251 254 247 250 255 14 2 2 0 0 0 0 0 0 0 0 0 0 0 0 0 0 0 0 0 0 
0 0 0 0 0 0 0 0 0 0 0 0 0 0 0 0 0 0 0 0 0 0 0 0 0 0 0 0 0 0 0 0 0 0 0 0 0 0 0 
0 0 0 0 0 0 0 0 0 6 0 10 0 6 253 234 253 251 251 251 251 251 251 251 251 251 
251 251 251 251 251 251 251 251 251 251 251 251 251 251 251 251 251 251 251 
251 251 251 251 251 251 251 251 251 251 251 251 251 251 251 251 251 251 251 
251 251 251 251 251 251 251 251 251 251 251 251 251 251 251 251 251 251 251 
251 251 251 251 251 251 251 251 251 251 251 251 251 251 251 251 251 251 251 
251 251 251 247 255 255 237 242 0 2 7 0 0 0 0 0 0 0 0 0 0 0 0 0 0 0 0 0 0 0 0 
0 0 0 0 0 0 0 0 0 0 0 0 0 0 0 0 0 0 0 0 0 0 0 0 0 0 0 0 0 0 0 0 0 0 0 0 0 0 0 
0 0 0 0 0 0 0 10 0 7 0 252 255 247 251 251 251 251 251 251 251 251 251 251 251 
251 251 251 251 251 251 251 251 251 251 251 251 251 251 251 251 251 251 251 
251 251 251 251 251 251 251 251 251 251 251 251 251 251 251 251 251 251 251 
251 251 251 251 251 251 251 251 251 251 251 251 251 251 251 251 251 251 251 
251 251 251 251 251 251 251 251 251 251 251 251 251 251 251 251 251 251 251 
251 252 247 251 249 255 9 0 0 0 0 0 0 0 0 0 0 0 0 0 0 0 0 0 0 0 0 0 0 0 0 0 0 
0 0 0 0 0 0 0 0 0 0 0 0 0 0 0 0 0 0 0 0 0 0 0 0 0 0 0 0 0 0 0 0 0 0 0 0 0 0 0 
0 0 13 0 1 0 0 255 242 246 251 246 254 251 255 245 255 244 237 255 237 244 255 
240 254 249 255 249 245 254 247 249 255 249 251 251 251 251 251 251 251 251 
251 251 251 251 251 251 251 251 251 251 251 251 251 251 251 251 251 251 251 
251 251 251 251 251 251 251 251 251 251 251 251 251 251 251 251 251 251 251 
251 251 250 243 255 251 250 238 255 251 243 255 246 255 248 255 238 255 249 
255 237 255 3 7 0 0 0 0 0 0 0 0 0 0 0 0 0 0 0 0 0 0 0 0 0 0 0 0 0 0 0 0 0 0 0 
0 0 0 0 0 0 0 0 0 0 0 0 0 0 0 0 0 0 0 0 0 0 0 0 0 0 0 0 0 0 0 0 0 0 0 0 0 13 
3 0 15 0 252 255 240 255 241 247 250 246 245 255 255 244 250 255 246 248 255 
244 250 247 255 255 255 245 235 255 251 251 251 251 251 251 251 251 251 251 
251 251 251 251 251 251 251 251 251 251 251 251 251 251 251 251 251 251 251 
251 251 251 251 251 251 251 251 251 251 251 251 251 251 251 251 251 251 251 
255 254 239 255 249 255 251 244 255 245 249 253 249 252 255 240 255 237 255 
244 0 0 6 7 0 0 0 0 0 0 0 0 0 0 0 0 0 0 0 0 0 0 0 0 0 0 0 0 0 0 0 0 0 0 0 0 0 
0 0 0 0 0 0 0 0 0 0 0 0 0 0 0 0 0 0 0 0 0 0 0 0 0 0 0 0 0 0 0 0 12 0 1 4 2 0 4 
0 255 247 255 255 255 255 251 243 255 235 251 250 239 251 252 251 247 254 255 
233 248 255 247 255 251 251 251 251 251 251 251 251 251 251 251 251 251 251 
251 251 251 251 251 251 251 251 251 251 251 251 251 251 251 251 251 251 251 
251 251 251 251 251 251 251 251 251 251 251 251 251 251 251 239 255 250 238 
255 251 237 255 250 237 255 255 235 246 255 253 226 255 255 0 16 0 6 0 0 0 0 0 
0 0 0 0 0 0 0 0 0 0 0 0 0 0 0 0 0 0 0 0 0 0 0 0 0 0 0 0 0 0 0 0 0 0 0 0 0 0 0 
0 0 0 0 0 0 0 0 0 0 0 0 0 0 0 0 0 0 0 0 0 0 0 0 17 0 0 21 0 3 0 2 243 255 242 
248 255 254 242 255 255 255 250 250 246 249 247 254 255 250 253 255 245 238 
251 251 251 251 251 251 251 251 251 251 251 251 251 251 251 251 251 251 251 
251 251 251 251 251 251 251 251 251 251 251 251 251 251 251 251 251 251 251 
251 251 251 251 251 251 251 251 251 251 255 249 245 255 233 255 255 244 251 
255 255 234 255 244 238 251 20 0 0 17 0 18 0 0 0 0 0 0 0 0 0 0 0 0 0 0 0 0 0 0 
0 0 0 0 0 0 0 0 0 0 0 0 0 0 0 0 0 0 0 0 0 0 0 0 0 0 0 0 0 0 0 0 0 0 0 0 0 0 0 
0 0 0 0 0 0 0 0 0 0 1 0 0 0 21 0 0 0 0 0 2 8 0 7 248 250 251 245 234 255 250 
235 255 245 255 246 245 255 255 237 255 255 251 251 251 251 251 251 251 251 
251 251 251 251 251 251 251 251 251 251 251 251 251 251 251 251 251 251 251 
251 251 251 251 251 251 251 251 251 251 251 251 251 251 251 251 251 251 251 
251 251 245 255 255 242 255 243 245 255 247 254 225 253 0 25 0 3 0 6 0 0 0 3 2 
13 0 0 0 0 0 0 0 0 0 0 0 0 0 0 0 0 0 0 0 0 0 0 0 0 0 0 0 0 0 0 0 0 0 0 0 0 0 0 
0 0 0 0 0 0 0 0 0 0 0 0 0 0 0 0 0 0 0 0 0 0 0 0 0 0 0 9 2 9 5 0 8 0 26 7 0 0 0 
0 0 3 0 2 253 255 219 255 255 254 255 255 250 242 249 244 248 255 238 251 251 
251 251 251 251 251 251 251 251 251 251 251 251 251 251 251 251 251 251 251 
251 251 251 251 251 251 251 251 251 251 251 251 251 251 251 251 251 251 251 
251 251 251 251 251 251 251 251 242 255 241 241 255 255 244 255 0 3 4 0 0 0 0 
0 0 11 3 14 0 0 0 0 0 0 0 0 0 0 0 0 0 0 0 0 0 0 0 0 0 0 0 0 0 0 0 0 0 0 0 0 0 
0 0 0 0 0 0 0 0 0 0 0 0 0 0 0 0 0 0 0 0 0 0 0 0 0 0 0 0 0 0 0 0 0 0 0 0 0 5 0 
0 7 1 11 0 0 5 4 0 3 9 0 10 0 0 0 16 0 0 9 0 247 252 255 244 253 255 227 255 
251 251 251 251 251 251 251 251 251 251 251 251 251 251 251 251 251 251 251 
251 251 251 251 251 251 251 251 251 251 251 251 251 251 251 251 251 251 251 
251 251 251 251 251 251 251 251 251 251 251 255 246 255 0 4 0 0 1 4 8 0 14 0 1 
4 2 0 0 12 0 8 5 0 0 0 0 0 0 0 0 0 0 0 0 0 0 0 0 0 0 0 0 0 0 0 0 0 0 0 0 0 0 0 
0 0 0 0 0 0 0 0 0 0 0 0 0 0 0 0 0 0 0 0 0 0 0 0 0 0 0 0 0 0 0 0 0 0 0 0 4 0 7 
0 0 3 5 6 0 5 0 0 0 4 0 0 5 0 0 5 4 0 12 9 0 14 0 5 0 13 242 251 251 251 251 
251 251 251 251 251 251 251 251 251 251 251 251 251 251 251 251 251 251 251 
251 251 251 251 251 251 251 251 251 251 251 251 251 251 251 251 251 251 251 
251 251 251 251 251 251 1 0 6 0 1 0 7 0 0 0 0 3 0 3 0 0 1 0 12 0 0 18 0 6 0 0 
0 0 0 0 0 0 0 0 0 0 0 0 0 0 0 0 0 0 0 0 0 0 0 0 0 0 0 0 0 0 0 0 0 0 0 0 0 0 0 
0 0 0 0 0 0 0 0 0 0 0 0 0 0 0 0 0 0 0 0 0 0 0 0 0 0 0 0 0 0 0 0 0 0 0 0 0 0 0 
0 0 0 0 0 0 0 0 0 0 0 0 0 0 0 0 0 8 0 14 0 4 0 13 241 250 250 250 250 250 250 
250 250 250 250 250 250 250 250 250 250 250 250 250 250 250 250 250 250 250 
250 250 250 250 250 250 250 0 0 0 0 0 0 0 0 0 0 0 0 0 0 0 0 0 0 0 0 0 0 0 0 0 
0 0 0 0 0 0 0 0 0 0 0 0 0 0 0 0 0 0 0 0 0 0 0 0 0 0 0 0 0 0 0 0 0 0 0 0 0 0 0 
0 0 0 0 0 0 0 0 0 0 0 0 0 0 0 0 0 0 0 0 0 0 0 0 0 0 0 0 0 0 0 0 0 0 0 0 0 0 0 
0 0 0 0 0 0 0 0 0 0 0 0 0 0 0 0 0 0 0 0 0 0 0 0 0 0 0 0 17 0 1 5 0 15 2 2 2 2 
2 2 2 2 2 2 2 2 2 2 2 2 2 2 2 2 2 2 2 2 2 2 2 2 2 2 2 2 0 0 0 0 0 0 0 0 0 0 0 
0 0 0 0 0 0 0 0 0 0 0 0 0 0 0 0 0 0 0 0 0 0 0 0 0 0 0 0 0 0 0 0 0 0 0 0 0 0 0 
0 0 0 0 0 0 0 0 0 0 0 0 0 0 0 0 0 0 0 0 0 0 0 0 0 0 0 0 0 0 0 0 0 0 0 0 0 0 0 
0 0 0 0 0 0 0 0 0 0 0 0 0 0 0 0 0 0 0 0 0 0 0 0 0 0 0 0 0 0 0 0 0 0 0 0 0 0 0 
0 8 2 0 1 0 0 13 0 0 0 0 0 0 0 0 0 0 0 0 0 0 0 0 0 0 0 0 0 0 0 0 0 0 0 0 0 0 0 
0 0 0 0 0 0 0 0 0 0 0 0 0 0 0 0 0 0 0 0 0 0 0 0 0 0 0 0 0 0 0 0 0 0 0 0 0 0 0 
0 0 0 0 0 0 0 0 0 0 0 0 0 0 0 0 0 0 0 0 0 0 0 0 0 0 0 0 0 0 0 0 0 0 0 0 0 0 0 
0 0 0 0 0 0 0 0 0 0 0 0 0 0 0 0 0 0 0 0 0 0 0 0 0 0 0 0 0 0 0 0 0 0 0 0 0 0 0 
0 0 0 0 0 0 0 0 0 0 0 0 0 0 3 0 0 19 2 0 9 5 0 0 0 0 0 0 0 0 0 0 0 0 0 0 0 0 0 
0 0 0 0 0 0 0 0 0 0 0 0 0 0 0 0 0 0 0 0 0 0 0 0 0 0 0 0 0 0 0 0 0 0 0 0 0 0 0 
0 0 0 0 0 0 0 0 0 0 0 0 0 0 0 0 0 0 0 0 0 0 0 0 0 0 0 0 0 0 0 0 0 0 0 0 0 0 0 
0 0 0 0 0 0 0 0 0 0 0 0 0 0 0 0 0 0 0 0 0 0 0 0 0 0 0 0 0 0 0 0 0 0 0 0 0 0 0 
0 0 0 0 0 0 0 0 0 0 0 0 0 0 0 0 0 0 0 0 0 0 0 0 0 0 0 0 2 2 0 1 3 0 0 1 1 1 1 
1 1 1 1 1 1 1 1 1 1 1 1 1 1 1 1 1 1 1 1 1 1 1 1 1 1 1 1 0 0 0 0 0 0 0 0 0 0 0 
0 0 0 0 0 0 0 0 0 0 0 0 0 0 0 0 0 0 0 0 0 0 0 0 0 0 0 0 0 0 0 0 0 0 0 0 0 0 0 
0 0 0 0 0 0 0 0 0 0 0 0 0 0 0 0 0 0 0 0 0 0 0 0 0 0 0 0 0 0 0 0 0 0 0 0 0 0 0 
0 0 0 0 0 0 0 0 0 0 0 0 0 0 0 0 0 0 0 0 0 0 0 0 0 0 0 0 0 0 0 0 0 0 0 0 0 0 0 
0 0 5 6 0 0 14 0 17 0 0 0 0 0 0 0 0 0 0 0 0 0 0 0 0 0 0 0 0 0 0 0 0 0 0 0 0 0 
0 0 0 0 0 0 0 0 0 0 0 0 0 0 0 0 0 0 0 0 0 0 0 0 0 0 0 0 0 0 0 0 0 0 0 0 0 0 0 
0 0 0 0 0 0 0 0 0 0 0 0 0 0 0 0 0 0 0 0 0 0 0 0 0 0 0 0 0 0 0 0 0 0 0 0 0 0 0 
0 0 0 0 0 0 0 0 0 0 0 0 0 0 0 0 0 0 0 0 0 0 0 0 0 0 0 0 0 0 0 0 0 0 0 0 0 0 0 
0 0 0 0 0 0 0 0 0 0 0 0 0 0 0 0 0 7 10 6 0 0 3 1 1 1 1 1 1 1 1 1 1 1 1 1 1 1 1 
1 1 1 1 1 1 1 1 1 1 1 1 1 1 1 1 0 0 0 0 0 0 0 0 0 0 0 0 0 0 0 0 0 0 0 0 0 0 0 
0 0 0 0 0 0 0 0 0 0 0 0 0 0 0 0 0 0 0 0 0 0 0 0 0 0 0 0 0 0 0 0 0 0 0 0 0 0 0 
0 0 0 0 0 0 0 0 0 0 0 0 0 0 0 0 0 0 0 0 0 0 0 0 0 0 0 0 0 0 0 0 0 0 0 0 0 0 0 
0 0 0 0 0 0 0 0 0 0 0 0 0 0 0 0 0 0 0 0 0 0 0 0 0 0 0 0 10 0 0 3 0 0 11 0 0 0 
0 0 0 0 0 0 0 0 0 0 0 0 0 0 0 0 0 0 0 0 0 0 0 0 0 0 0 0 0 0 0 0 0 0 0 0 0 0 0 
0 0 0 0 0 0 0 0 0 0 0 0 0 0 0 0 0 0 0 0 0 0 0 0 0 0 0 0 0 0 0 0 0 0 0 0 0 0 0 
0 0 0 0 0 0 0 0 0 0 0 0 0 0 0 0 0 0 0 0 0 0 0 0 0 0 0 0 0 0 0 0 0 0 0 0 0 0 0 
0 0 0 0 0 0 0 0 0 0 0 0 0 0 0 0 0 0 0 0 0 0 0 0 0 0 0 0 0 0 0 0 0 0 0 0 0 0 0 
0 0 0 0 0 0 0 0 0 0 0 0 0 0 0 0 0 0 0 0 0 0 0 0 0 0 0 0 0 0 0 0 0 0 0 0 0 0 0 
0 0 0 0 0 0 0 0 0 0 0 0 0 0 0 0 0 0 0 0 0 0 0 0 0 0 0 0 0 0 0 0 0 0 0 0 0 0 0 
0 0 0 0 0 0 0 0 0 0 0 0 0 0 0 0 0 0 0 0 0 0 0 0 0 0 0 0 0 0 0 0 0 0 0 0 0 0 0 
0 0 0 0 0 0 0 0 0 0 0 0 0 0 0 0 0 0 0 0 0 0 0 0 0 0 0 0 0 0 0 0 0 0 0 0 0 0 0 
0 0 0 0 0 0 0 0 0 0 0 0 0 0 0 0 0 0 0 0 0 0 0 0 0 0 0 0 0 0 0 0 0 0 0 0 0 0 0 
0 0 0 0 0 0 0 0 0 0 0 0 0 0 0 0 0 0 0 0 0 0 0 0 0 0 0 0 0 0 0 0 0 0 0 0 0 0 0 
0 0 0 0 0 0 0 0 0 0 0 0 0 0 0 0 0 0 0 0 0 0 0 0 0 0 0 0 0 0 0 0 0 0 0 0 0 0 0 
0 0 0 0 0 0 0 0 0 0 0 0 0 0 0 0 0 0 0 0 0 0 0 0 0 0 0 0 0 0 0 0 0 0 0 0 0 0 0 
0 0 0 0 0 0 0 0 0 0 0 0 0 0 0 0 0 0 0 0 0 0 0 0 0 0 0 0 0 0 0 0 0 0 0 0 0 0 0 
0 0 0 0 0 0 0 0 0 0 0 0 0 0 0 0 0 0 0 0 0 0 0 0 0 0 0 0 0 0 0 0 0 0 0 0 0 0 0 
0 0 0 0 0 0 0 0 0 0 0 0 0 0 0 0 0 0 0 0 0 0 0 0 0 0 0 0 0 0 0 0 0 0 0 0 0 0 0 
0 0 0 0 0 0 0 0 0 0 0 0 0 0 0 0 0 0 0 0 0 0 0 0 0 0 0 0 0 0 0 0 0 0 0 0 0 0 0 
0 0 0 0 0 0 0 0 0 0 0 0 0 0 0 0 0 0 0 0 0 0 0 0 0 0 0 0 0 0 0 0 0 0 0 0 0 0 0 
0 0 0 0 0 0 0 0 0 0 0 0 0 0 0 0 0 0 0 0 0 0 0 0 0 0 0 0 0 0 0 0 0 0 0 0 0 0 0 
0 0 0 0 0 0 0 0 0 0 0 0 0 0 0 0 0 0 0 0 0 0 0 0 0 0 0 0 0 0 0 0 0 0 0 0 0 0 0 
0 0 0 0 0 0 0 0 0 0 0 0 0 0 0 0 0 0 0 0 0 0 0 0 0 0 0 0 0 0 
