P2
104 63
255
0 0 0 0 0 0 0 0 0 0 0 0 0 0 0 0 0 0 0 0 0 0 0 0 0 0 0 0 0 0 0 0 0 0 0 0 0 0 0 
0 0 0 0 0 0 0 0 0 0 0 0 0 0 0 0 0 0 0 0 0 0 0 0 0 0 0 0 0 0 0 0 0 0 0 0 0 0 0 
0 0 0 0 0 0 0 0 0 0 0 0 0 0 0 0 0 0 0 0 0 0 0 0 0 0 0 0 0 0 0 0 0 0 0 0 0 0 0 
0 0 0 0 0 0 0 0 0 0 0 0 0 0 0 0 0 0 0 0 0 0 0 0 0 0 0 0 0 0 0 0 0 0 0 0 0 0 0 
0 0 0 0 0 0 0 0 0 0 0 0 0 0 0 0 0 0 0 0 0 0 0 0 0 0 0 0 0 0 0 0 0 0 0 0 0 0 0 
0 0 0 0 0 0 0 0 0 0 0 0 0 0 0 0 0 0 0 0 0 0 0 0 0 0 0 0 0 0 0 0 0 0 0 0 0 0 0 
0 0 0 0 0 0 0 0 0 0 0 0 0 0 0 0 0 0 0 0 0 0 0 0 0 0 0 0 0 0 0 0 0 0 0 0 0 0 0 
0 0 0 0 0 0 0 0 0 0 0 0 0 0 0 0 0 0 0 0 0 0 0 0 0 0 0 0 0 0 0 0 0 0 0 0 0 0 0 
0 0 0 0 0 0 0 0 0 0 0 0 0 0 0 0 0 0 0 0 0 0 0 0 0 0 0 0 0 0 0 0 0 0 0 0 0 0 0 
0 0 0 0 0 0 0 0 0 0 0 0 0 0 0 0 0 0 0 0 0 0 0 0 0 0 0 0 0 0 0 0 0 0 0 0 0 0 0 
0 0 0 0 0 0 0 0 0 0 0 0 0 0 0 0 0 0 0 0 0 0 0 0 0 0 0 0 0 0 0 0 0 0 0 0 0 0 0 
0 0 0 0 0 0 0 0 0 0 0 0 0 0 0 0 0 0 0 0 0 0 0 0 0 0 0 0 0 0 0 0 0 0 0 0 0 0 0 
0 0 0 0 0 0 0 0 0 0 0 0 0 0 0 0 0 0 0 0 0 0 0 0 0 0 0 0 0 0 0 0 0 0 0 0 0 0 0 
0 0 0 0 0 0 0 0 0 0 0 0 0 0 0 0 0 0 0 0 0 0 0 0 0 0 0 0 0 0 0 0 0 0 0 0 0 0 0 
0 0 0 0 0 0 0 0 0 0 0 0 0 0 0 0 0 0 0 0 0 0 0 0 0 0 0 0 0 0 0 0 0 0 0 0 0 0 0 
0 0 0 0 0 0 0 0 0 0 0 0 0 0 0 0 0 0 0 0 0 0 0 0 0 0 0 0 0 0 0 0 0 0 0 0 0 0 0 
0 0 0 0 0 0 0 0 0 0 0 0 0 0 0 0 0 0 0 0 0 0 0 0 0 0 0 0 0 0 0 0 0 0 0 0 0 0 0 
0 0 0 0 0 0 0 0 0 0 0 0 0 0 0 0 0 0 0 0 0 0 0 0 0 0 0 0 0 0 0 0 0 0 0 0 0 0 0 
0 0 0 0 0 0 0 0 0 0 0 0 0 0 0 0 0 0 0 0 0 0 0 0 0 0 0 0 0 0 0 0 0 0 0 0 0 0 0 
0 0 0 0 0 0 0 0 0 0 0 0 0 0 0 0 0 0 0 0 0 0 0 0 0 0 0 0 0 0 0 0 0 0 0 0 0 0 0 
0 0 0 0 0 0 0 0 0 0 0 0 0 0 0 0 0 0 0 0 0 0 0 0 0 0 0 0 0 0 0 0 0 0 0 0 0 0 0 
0 0 0 0 0 0 0 0 0 0 0 0 0 0 0 0 0 0 0 0 0 0 0 0 0 0 0 0 0 0 0 0 0 0 0 0 0 0 0 
0 0 0 0 0 0 0 0 0 0 0 0 0 0 2 0 5 8 0 7 0 0 2 0 0 8 0 0 0 0 0 0 7 0 8 5 0 2 0 
0 0 0 0 0 0 0 0 0 0 0 0 0 0 0 0 0 0 0 0 0 0 0 0 0 0 0 0 0 0 0 0 0 0 0 0 0 0 0 
0 0 0 0 0 0 0 0 0 0 0 0 0 0 0 0 0 0 0 0 0 0 0 0 0 0 0 0 0 0 0 0 0 0 0 0 0 0 0 
0 0 1 0 1 0 1 0 16 0 0 0 0 0 1 0 2 16 0 1 0 1 0 1 0 0 0 0 0 0 0 0 0 0 0 0 0 0 
0 0 0 0 0 0 0 0 0 0 0 0 0 0 0 0 0 0 0 0 0 0 0 0 0 0 0 0 0 0 0 0 0 0 0 0 0 0 0 
0 0 0 0 0 0 0 0 0 0 0 0 0 0 0 0 0 0 0 0 0 0 0 0 0 0 0 0 0 4 0 0 14 3 0 0 0 13 
0 0 12 0 0 0 0 0 3 14 0 0 4 0 0 0 0 0 0 0 0 0 0 0 0 0 0 0 0 0 0 0 0 0 0 0 0 0 
0 0 0 0 0 0 0 0 0 0 0 0 0 0 0 0 0 0 0 0 0 0 0 0 0 0 0 0 0 0 0 0 0 0 0 0 0 0 0 
0 0 0 0 0 0 0 0 0 0 0 0 0 0 0 0 0 0 7 6 1 0 0 20 14 0 0 1 0 4 7 0 1 14 20 0 0 
1 6 7 0 0 0 0 0 0 0 0 0 0 0 0 0 0 0 0 0 0 0 0 0 0 0 0 0 0 0 0 0 0 0 0 0 0 0 0 
0 0 0 0 0 0 0 0 0 0 0 0 0 0 0 0 0 0 0 0 0 0 0 0 0 0 0 0 0 0 0 0 0 0 0 0 0 0 0 
0 0 0 0 0 0 3 0 0 5 0 2 8 0 7 0 20 244 254 0 15 0 0 8 2 0 5 0 0 3 0 0 0 0 0 0 
0 0 0 0 0 0 0 0 0 0 0 0 0 0 0 0 0 0 0 0 0 0 0 0 0 0 0 0 0 0 0 0 0 0 0 0 0 0 0 
0 0 0 0 0 0 0 0 0 0 0 0 0 0 0 0 0 0 0 0 0 0 0 0 0 0 0 0 0 0 0 0 0 0 0 7 0 0 9 
0 9 0 21 14 254 232 255 239 255 0 0 21 0 9 0 9 0 0 7 0 0 0 0 0 0 0 0 0 0 0 0 0 
0 0 0 0 0 0 0 0 0 0 0 0 0 0 0 0 0 0 0 0 0 0 0 0 0 0 0 0 0 0 0 0 0 0 0 0 0 0 0 
0 0 0 0 0 0 0 0 0 0 0 0 0 0 0 0 0 0 0 0 0 0 0 0 0 0 0 0 0 10 6 9 0 0 24 228 
234 243 255 243 240 255 249 255 228 24 0 0 9 6 10 0 0 0 0 0 0 0 0 0 0 0 0 0 0 
0 0 0 0 0 0 0 0 0 0 0 0 0 0 0 0 0 0 0 0 0 0 0 0 0 0 0 0 0 0 0 0 0 0 0 0 0 0 0 
0 0 0 0 0 0 0 0 0 0 0 0 0 0 0 0 0 0 0 0 0 0 0 0 0 0 0 0 0 9 0 3 9 5 0 255 255 
255 231 255 248 236 253 252 255 0 5 9 3 0 9 0 0 0 0 0 0 0 0 0 0 0 0 0 0 0 0 0 
0 0 0 0 0 0 0 0 0 0 0 0 0 0 0 0 0 0 0 0 0 0 0 0 0 0 0 0 0 0 0 0 0 0 0 0 0 0 0 
0 0 0 0 0 0 0 0 0 2 0 5 8 0 7 0 0 2 0 3 4 0 0 7 0 14 0 7 0 0 3 250 255 251 251 
251 251 251 251 251 251 255 235 6 7 0 2 2 0 10 0 3 0 0 0 9 0 0 0 0 0 0 0 0 0 0 
0 0 0 0 0 0 0 0 0 0 0 0 0 0 0 0 0 0 0 0 0 0 0 0 0 0 0 0 0 0 0 0 0 0 0 0 0 0 0 
0 0 0 0 0 0 0 0 0 1 0 1 0 1 0 16 0 10 6 0 0 2 0 14 0 0 0 1 255 252 251 244 251 
251 251 251 251 251 251 251 235 255 241 0 18 0 0 1 0 0 3 3 10 0 2 9 0 0 0 0 0 
0 0 0 0 0 0 0 0 0 0 0 0 0 0 0 0 0 0 0 0 0 0 0 0 0 0 0 0 0 0 0 0 0 0 0 0 0 0 0 
0 0 0 0 0 0 0 0 0 0 0 0 0 4 0 0 14 3 0 0 9 1 0 8 0 6 10 0 7 8 6 0 244 252 255 
255 251 251 251 251 251 251 251 251 251 248 255 0 0 13 2 1 14 8 0 12 0 16 7 0 
0 0 0 0 0 0 0 0 0 0 0 0 0 0 0 0 0 0 0 0 0 0 0 0 0 0 0 0 0 0 0 0 0 0 0 0 0 0 0 
0 0 0 0 0 0 0 0 0 0 0 0 0 0 0 0 0 0 7 6 1 0 0 20 14 0 245 255 0 0 13 0 0 0 0 0 
255 242 255 240 248 251 251 251 251 251 251 251 251 248 238 252 250 0 3 3 3 0 
0 3 2 255 254 236 32 0 0 0 0 0 0 0 0 0 0 0 0 0 0 0 0 0 0 0 0 0 0 0 0 0 0 0 0 0 
0 0 0 0 0 0 0 0 0 0 0 0 0 0 0 0 0 0 0 0 0 0 0 0 0 0 0 3 0 0 5 0 2 8 0 255 247 
246 255 247 7 0 13 12 3 255 240 255 251 229 255 251 251 251 251 251 251 251 
251 255 255 255 241 255 0 0 0 0 6 0 253 246 237 255 234 0 0 0 0 0 0 0 0 0 0 0 
0 0 0 0 0 0 0 0 0 0 0 0 0 0 0 0 0 0 0 0 0 0 0 0 0 0 0 0 0 0 0 0 0 0 0 0 0 0 0 
0 0 0 0 0 0 7 0 0 9 0 9 0 21 245 252 246 244 255 0 5 0 0 0 255 243 244 255 255 
254 251 251 251 251 251 251 251 251 247 245 243 245 255 2 5 12 0 14 248 255 
254 255 251 255 0 0 0 0 0 0 0 0 0 0 0 0 0 0 0 0 0 0 0 0 0 0 0 0 0 0 0 0 0 0 0 
0 0 0 0 0 0 0 0 0 0 0 0 0 0 0 0 0 0 0 0 0 0 0 0 0 0 10 6 9 0 0 24 228 247 255 
238 255 247 249 0 9 0 255 229 255 255 234 247 251 251 251 251 251 251 251 251 
251 238 255 255 249 251 9 0 0 1 255 239 241 255 248 237 255 0 0 0 0 0 0 0 0 0 
0 0 0 0 0 0 0 0 0 0 0 0 0 0 0 0 0 0 0 0 0 0 0 0 0 0 0 0 0 0 0 0 0 0 0 0 0 0 0 
0 0 0 0 0 0 0 0 0 9 0 3 9 5 0 255 253 247 255 241 249 250 255 247 246 248 255 
241 254 255 255 251 251 251 251 251 251 251 251 251 253 249 246 252 241 2 5 0 
0 248 250 255 243 255 255 245 0 0 0 0 0 0 0 0 0 0 0 0 0 0 0 0 0 0 0 0 0 0 0 0 
0 0 0 0 0 0 0 0 0 0 0 0 0 0 0 0 4 0 0 2 0 7 0 0 3 9 0 10 0 0 5 0 0 1 0 0 0 14 
0 254 251 251 251 251 251 251 251 251 251 251 251 251 251 251 251 251 251 251 
251 251 251 251 251 251 255 248 254 255 242 0 13 0 251 251 251 251 251 251 251 
251 248 0 0 14 0 0 0 9 7 0 15 0 4 4 0 0 7 0 7 3 0 6 4 1 0 0 0 0 0 0 0 0 0 0 0 
0 0 0 0 0 6 12 0 0 8 11 0 255 233 251 248 252 248 249 248 254 13 0 0 0 7 0 255 
241 251 251 251 251 251 251 251 251 251 251 251 251 251 251 251 251 251 251 
251 251 251 251 251 251 237 255 242 247 255 234 255 255 251 251 251 251 251 
251 251 251 248 8 5 0 3 30 5 0 0 255 255 0 0 0 14 0 0 15 0 0 10 0 0 0 0 0 0 0 
0 0 0 0 0 0 0 0 0 0 0 0 0 0 3 6 0 250 247 241 255 255 250 239 255 255 249 253 
241 252 252 255 228 241 251 249 251 251 251 251 251 251 251 251 251 251 251 
251 251 251 251 251 251 251 251 251 251 251 251 251 252 255 246 251 246 255 
236 242 251 251 251 251 251 251 251 251 255 0 0 9 0 220 255 249 254 255 242 
246 245 255 0 12 0 0 7 3 7 0 1 18 0 0 0 0 0 0 0 0 0 0 0 0 0 0 0 0 16 0 0 12 241 
251 253 255 238 232 255 255 251 246 245 254 255 243 241 255 250 255 232 255 
251 251 251 251 251 251 251 251 251 251 251 251 251 251 251 251 251 251 251 
251 251 251 251 251 255 240 255 252 255 252 240 255 251 251 251 251 251 251 
251 251 255 0 5 5 0 255 255 249 240 251 253 253 255 249 255 240 255 246 238 
6 0 10 5 0 0 0 0 0 0 0 0 0 0 0 0 0 0 0 0 0 0 2 0 0 255 253 255 242 255 241 247 
255 245 254 255 247 248 240 255 250 255 248 255 238 251 251 251 251 251 251 
251 251 251 251 251 251 251 251 251 251 251 251 251 251 251 251 251 251 252 
255 255 233 251 238 253 252 251 251 251 251 251 251 251 251 244 254 7 0 246 
255 235 255 255 253 236 250 242 255 238 255 248 252 255 8 0 0 6 0 0 0 0 0 0 0 
0 0 0 0 0 0 0 0 0 0 0 10 4 8 2 0 7 245 233 255 244 255 245 255 255 247 255 255 
255 236 243 255 233 255 251 251 251 251 251 251 251 251 251 251 251 251 251 
251 251 251 251 251 251 251 251 251 251 251 240 255 245 252 255 255 255 242 
251 251 251 251 251 251 251 251 254 241 249 255 255 238 255 241 241 255 255 
255 255 228 244 255 249 247 250 236 18 0 0 9 0 0 0 0 0 0 0 0 0 0 0 0 0 0 0 0 6 
0 0 0 14 19 0 17 23 226 255 255 242 245 240 255 244 234 246 255 255 233 255 
246 251 251 251 251 251 251 251 251 251 251 251 251 251 251 251 251 251 251 
251 251 251 251 251 251 255 255 234 249 252 243 243 255 251 251 251 251 251 
251 251 251 254 255 239 253 249 255 243 251 254 248 242 241 255 247 255 234 
255 255 239 255 0 5 11 0 0 0 0 0 0 0 0 0 0 0 0 0 0 0 0 0 0 13 0 7 0 0 3 0 0 255 
246 242 248 255 242 255 253 255 243 250 250 254 243 255 251 251 251 251 251 
251 251 251 251 251 251 251 251 251 251 251 251 251 251 251 251 251 251 251 
245 249 255 249 255 245 245 254 251 251 251 251 251 251 251 251 250 247 255 
242 255 247 249 255 252 247 255 248 244 254 234 255 0 0 7 1 0 0 0 6 0 0 0 0 0 
0 0 0 0 0 0 0 0 0 0 0 0 0 0 0 0 0 0 0 7 0 255 241 251 254 252 252 251 251 251 
251 251 251 251 251 251 251 251 251 251 251 251 251 251 251 251 251 251 251 
251 251 251 251 251 251 251 251 251 251 251 251 251 251 251 251 251 251 251 
251 251 251 251 251 251 251 251 251 251 251 251 251 251 251 237 255 252 241 
255 245 255 0 0 0 0 0 0 0 0 0 0 0 0 0 0 0 0 0 0 0 0 0 0 0 0 0 0 0 0 0 0 0 0 0 
0 0 252 253 241 255 241 247 251 251 251 251 251 251 251 251 251 251 251 251 
251 251 251 251 251 251 251 251 251 251 251 251 251 251 251 251 251 251 251 
251 251 251 251 251 251 251 251 251 251 251 251 251 251 251 251 251 251 251 
251 251 251 251 251 251 255 255 239 249 255 255 0 0 0 0 0 0 0 0 0 0 0 0 0 0 0 
0 0 0 0 0 0 0 0 0 0 0 0 0 0 0 0 0 0 0 8 0 0 252 249 247 253 255 251 251 251 
251 251 251 251 251 251 251 251 251 251 251 251 251 251 251 251 251 251 251 
251 251 251 251 251 251 251 251 251 251 251 251 251 251 251 251 251 251 251 
251 251 251 251 251 251 251 251 251 251 251 251 251 251 251 251 238 250 255 
243 0 5 8 0 0 0 0 0 0 0 0 0 0 0 0 0 0 0 0 0 0 0 0 0 0 0 0 0 0 0 0 0 0 0 0 9 3 
0 6 0 251 255 238 251 251 251 251 251 251 251 251 251 251 251 251 251 251 251 
251 251 251 251 251 251 251 251 251 251 251 251 251 251 251 251 251 251 251 
251 251 251 251 251 251 251 251 251 251 251 251 251 251 251 251 251 251 251 
251 251 251 247 255 246 8 3 3 0 0 0 0 0 0 0 0 0 0 0 0 0 0 0 0 0 0 0 0 0 0 0 0 
0 0 0 0 0 0 0 0 0 0 0 0 12 3 2 0 242 254 251 251 251 251 251 251 251 251 251 
251 251 251 251 251 251 251 251 251 251 251 251 251 251 251 251 251 251 251 
251 251 251 251 251 251 251 251 251 251 251 251 251 251 251 251 251 251 251 
251 251 251 251 251 251 251 251 251 255 247 0 2 0 2 15 1 0 0 0 0 0 0 0 0 0 0 0 
0 0 0 0 0 0 0 0 0 0 0 0 0 0 0 0 0 0 0 0 0 5 17 0 0 2 12 0 255 251 251 251 251 
251 251 251 251 251 251 251 251 251 251 251 251 251 251 251 251 251 251 251 
251 251 251 251 251 251 251 251 251 251 251 251 251 251 251 251 251 251 251 
251 251 251 251 251 251 251 251 251 251 251 251 251 251 231 11 0 11 0 0 0 0 0 
0 0 0 0 0 0 0 0 0 0 0 0 0 0 0 0 0 0 0 0 0 0 0 0 0 0 0 0 0 0 0 0 1 0 0 7 0 10 
0 251 251 251 251 251 251 251 251 251 251 251 251 251 251 251 251 251 251 251 
251 251 251 251 251 251 251 251 251 251 251 251 251 251 251 251 251 251 251 
251 251 251 251 251 251 251 251 251 251 251 251 251 251 251 251 251 251 255 
1 4 0 2 0 0 4 0 0 0 0 0 0 0 0 0 0 0 0 0 0 0 0 0 0 0 0 0 0 0 0 0 0 0 0 0 0 0 0 
2 0 11 1 0 7 0 1 251 251 251 251 251 251 251 251 251 251 251 251 251 251 251 
251 251 251 251 251 251 251 251 251 251 251 251 251 251 251 251 251 251 251 
251 251 251 251 251 251 251 251 251 251 251 251 251 251 251 251 251 251 251 
251 251 251 251 1 0 7 0 11 0 0 0 0 0 0 0 0 0 0 0 0 0 0 0 0 0 0 0 0 0 0 0 0 0 0 
0 0 0 0 0 0 0 0 0 0 0 0 0 0 0 0 241 255 242 247 255 240 250 255 251 251 251 
251 251 251 251 251 251 251 251 251 251 251 251 251 251 251 251 251 251 251 
251 251 251 251 251 251 251 251 251 251 251 251 251 251 251 251 251 251 255 
228 248 255 241 249 252 255 241 13 0 4 0 14 0 8 0 0 0 0 0 0 0 0 0 0 0 0 0 0 0 
0 0 0 0 0 0 0 0 0 0 0 0 0 0 0 0 0 0 0 0 0 0 0 0 0 0 249 248 255 225 255 251 
246 251 251 251 251 251 251 251 251 251 251 251 251 251 251 251 251 251 251 
251 251 251 251 251 251 251 251 251 251 251 251 251 251 251 251 251 251 251 
251 251 251 233 255 248 240 248 255 255 240 15 0 5 1 0 17 0 0 0 0 0 0 0 0 0 0 
0 0 0 0 0 0 0 0 0 0 0 0 0 0 0 0 0 0 0 0 0 0 0 0 0 0 0 0 0 0 0 0 0 255 252 243 
255 245 255 255 251 251 251 251 251 251 251 251 251 251 251 251 251 251 251 
251 251 251 251 251 251 251 251 251 251 251 251 251 251 251 251 251 251 251 
251 251 251 251 251 251 255 247 236 255 255 251 236 251 0 13 0 0 1 0 2 8 0 0 0 
0 0 0 0 0 0 0 0 0 0 0 0 0 0 0 0 0 0 0 0 0 0 0 0 0 0 0 0 0 0 0 0 0 0 0 0 0 0 0 
255 254 254 250 237 246 251 251 251 251 251 251 251 251 251 251 251 251 251 
251 251 251 251 251 251 251 251 251 251 251 251 251 251 251 251 251 251 251 
251 251 251 251 251 251 251 251 252 244 255 252 234 252 255 255 5 9 0 2 19 0 0 
3 0 0 0 0 0 0 0 0 0 0 0 0 0 0 0 0 0 0 0 0 0 0 0 0 0 0 0 0 0 0 0 0 0 0 0 0 0 0 
0 0 1 0 255 235 246 255 249 251 251 251 251 251 251 251 251 251 251 251 251 
251 251 251 251 251 251 251 251 251 251 251 251 251 251 251 251 251 251 251 
251 251 251 251 251 251 251 251 251 251 249 253 241 252 247 255 223 244 0 0 3 
1 0 2 2 0 0 0 0 0 0 0 0 0 0 0 0 0 0 0 0 0 0 0 0 0 0 0 0 0 0 0 0 0 0 0 0 0 0 0 
0 0 0 0 0 0 0 0 6 255 246 248 251 255 251 251 251 251 251 251 251 251 251 251 
251 251 251 251 251 251 251 251 251 251 251 251 251 251 251 251 251 251 251 
251 251 251 251 251 251 251 251 251 251 251 245 255 251 252 248 251 255 13 17 
0 14 0 0 6 5 0 0 0 0 0 0 0 0 0 0 0 0 0 0 0 0 0 0 0 0 0 0 0 0 0 0 0 0 0 0 0 0 0 
0 0 0 0 0 0 0 0 14 3 0 0 248 251 255 242 251 251 251 251 251 251 251 251 251 
251 251 251 251 251 251 251 251 251 251 251 251 251 251 251 251 251 251 251 
251 251 251 251 251 251 251 251 251 251 251 251 254 255 244 254 241 253 0 0 3 
0 0 6 10 7 0 0 0 0 0 0 0 0 0 0 0 0 0 0 0 0 0 0 0 0 0 0 0 0 0 0 0 0 0 0 0 0 0 0 
0 0 0 0 0 0 0 0 0 5 0 0 248 255 239 254 251 251 251 251 251 251 251 251 251 
251 251 251 251 251 251 251 251 251 251 251 251 251 251 251 251 251 251 251 
251 251 251 251 251 251 251 251 251 251 251 251 252 238 255 237 255 1 2 2 0 11 
0 0 3 0 0 10 0 0 0 0 0 0 0 0 0 0 0 0 0 0 0 0 0 0 0 0 0 0 0 0 0 0 0 0 0 0 0 0 0 
0 0 0 0 0 0 0 0 8 4 0 254 249 241 255 250 249 255 255 239 254 252 255 252 252 
255 248 255 248 251 252 251 251 251 251 251 251 251 251 251 251 251 251 251 
251 251 251 252 251 248 255 248 255 252 252 252 249 243 253 246 0 1 0 0 0 0 0 
0 0 0 0 0 0 0 0 0 0 0 0 0 0 0 0 0 0 0 0 0 0 0 0 0 0 0 0 0 0 0 0 0 0 0 0 0 0 0 
0 0 0 0 0 6 6 0 5 0 0 255 245 246 251 229 255 248 255 253 230 250 247 243 255 
237 253 250 247 250 250 250 250 250 250 250 250 250 250 250 250 250 250 250 
250 247 250 253 237 255 243 247 250 252 254 255 255 0 20 0 4 0 0 0 0 0 0 0 0 0 
0 0 0 0 0 0 0 0 0 0 0 0 0 0 0 0 0 0 0 0 0 0 0 0 0 0 0 0 0 0 0 0 0 0 0 0 0 0 0 
2 0 11 0 0 5 0 0 3 3 3 255 253 255 227 255 255 248 247 251 255 255 255 251 251 
251 251 251 251 251 251 251 251 251 251 251 251 251 251 251 251 255 255 255 
251 247 248 255 240 8 0 0 0 0 0 4 0 0 0 0 0 0 0 0 0 0 0 0 0 0 0 0 0 0 0 0 0 0 
0 0 0 0 0 0 0 0 0 0 0 0 0 0 0 0 0 0 0 0 0 0 0 0 0 0 0 1 1 2 0 0 0 11 0 7 0 0 0 
0 13 0 4 0 26 0 253 226 255 248 251 251 251 251 251 251 251 251 251 251 251 
251 251 251 251 251 248 255 226 253 0 26 0 4 0 0 0 0 11 27 0 0 0 0 0 0 0 0 0 0 
0 0 0 0 0 0 0 0 0 0 0 0 0 0 0 0 0 0 0 0 0 0 0 0 0 0 0 0 0 0 0 0 0 0 0 0 0 0 0 
0 12 19 0 16 6 0 29 0 2 0 12 1 18 0 8 2 0 0 0 17 0 7 13 0 0 0 0 0 0 0 0 0 0 0 
0 0 0 0 0 0 0 13 7 0 17 0 0 0 2 2 3 0 4 0 4 0 0 0 0 0 0 0 0 0 0 0 0 0 0 0 0 0 
0 0 0 0 0 0 0 0 0 0 0 0 0 0 0 0 0 0 0 0 0 0 0 0 0 0 0 0 0 0 0 0 0 0 8 0 0 5 0 
12 9 2 0 6 0 15 0 0 1 14 0 0 16 5 0 0 0 0 0 0 0 0 0 0 0 0 0 0 0 0 0 0 0 0 5 16 
0 0 14 1 2 0 6 4 0 4 2 0 0 0 0 0 0 0 0 0 0 0 0 0 0 0 0 0 0 0 0 0 0 0 0 0 0 0 0 
0 0 0 0 0 0 0 0 0 0 0 0 0 0 0 0 0 0 0 0 0 20 0 3 13 0 9 11 0 0 0 0 0 5 0 16 0 
0 6 2 0 2 0 0 11 0 0 0 0 0 0 0 0 0 0 0 0 0 0 0 0 11 0 0 2 0 2 6 0 0 0 1 0 7 0 
0 5 0 0 0 0 0 0 0 0 0 0 0 0 0 0 0 0 0 0 0 0 0 0 0 0 0 0 0 0 0 0 0 0 0 0 0 0 0 
0 0 0 0 0 0 0 0 0 0 0 0 2 0 11 0 2 0 4 0 13 0 15 0 0 9 0 8 0 5 0 3 0 13 0 0 0 
0 0 0 0 0 0 0 0 0 0 0 0 0 0 0 13 0 3 0 5 0 8 5 9 0 4 0 0 19 0 0 0 0 0 0 0 0 0 
0 0 0 0 0 0 0 0 0 0 0 0 0 0 0 0 0 0 0 0 0 0 0 0 0 0 0 0 0 0 0 0 0 0 0 0 0 0 0 
0 0 0 0 0 0 0 0 0 0 0 0 0 0 0 0 0 0 0 0 0 0 0 0 0 0 0 0 0 0 0 0 0 0 0 0 0 0 0 
0 0 0 0 0 0 0 0 0 0 0 0 0 0 0 0 0 0 0 0 0 0 0 0 0 0 0 0 0 0 0 0 0 0 0 0 0 0 0 
0 0 0 0 0 0 0 0 0 0 0 0 0 0 0 0 0 0 0 0 0 0 0 0 0 0 0 0 0 0 0 0 0 0 0 0 0 0 0 
0 0 0 0 0 0 0 0 0 0 0 0 0 0 0 0 0 0 0 0 0 0 0 0 0 0 0 0 0 0 0 0 0 0 0 0 0 0 0 
0 0 0 0 0 0 0 0 0 0 0 0 0 0 0 0 0 0 0 0 0 0 0 0 0 0 0 0 0 0 0 0 0 0 0 0 0 0 0 
0 0 0 0 0 0 0 0 0 0 0 0 0 0 0 0 0 0 0 0 0 0 0 0 0 0 0 0 0 0 0 0 0 0 0 0 0 0 0 
0 0 0 0 0 0 0 0 0 0 0 0 0 0 0 0 0 0 0 0 0 0 0 0 0 0 0 0 0 0 0 0 0 0 0 0 0 0 0 
0 0 0 0 0 0 0 0 0 0 0 0 0 0 0 0 0 0 0 0 0 0 0 0 0 0 0 0 0 0 0 0 0 0 0 0 0 0 0 
0 0 0 0 0 0 0 0 0 0 0 0 0 0 0 0 0 0 0 0 0 0 0 0 0 0 0 0 0 0 0 0 0 0 0 0 0 0 0 
0 0 0 0 0 0 0 0 0 0 0 0 0 0 0 0 0 0 0 0 0 0 0 0 0 0 0 0 0 0 0 0 0 0 0 0 0 0 0 
0 0 0 0 0 0 0 0 0 0 0 0 0 0 0 0 0 0 0 0 0 0 0 0 0 0 0 0 0 0 0 0 0 0 0 0 0 0 0 
0 0 0 0 0 0 0 0 0 0 0 0 0 0 0 0 0 0 0 0 0 0 0 0 0 0 0 0 0 0 0 0 0 0 0 0 0 0 0 
0 0 0 0 0 0 0 0 0 0 0 0 0 0 0 0 0 0 0 0 0 0 0 0 0 0 0 0 0 0 0 0 0 0 0 0 0 0 0 
0 0 0 0 0 0 0 0 0 0 0 0 0 0 0 0 0 0 0 0 0 0 0 0 0 0 0 0 0 0 0 0 0 0 0 0 0 0 0 
0 0 0 0 0 0 0 0 0 0 0 0 0 0 0 0 0 0 0 0 0 0 0 0 0 0 0 0 0 0 0 0 0 0 0 0 0 0 0 
0 0 0 0 0 0 0 0 0 0 0 0 0 0 0 0 0 0 0 0 0 0 0 0 0 0 0 0 0 0 0 0 0 0 0 0 0 0 0 
0 0 0 0 0 0 0 0 0 0 0 0 0 0 0 0 0 0 0 0 0 0 0 0 0 0 0 0 0 0 0 0 0 0 0 0 0 0 0 
0 0 0 0 0 0 0 0 0 0 0 0 0 0 0 0 0 0 0 0 0 0 0 0 0 0 0 0 0 0 0 0 0 0 0 0 0 0 0 
0 0 0 
