P2
108 117
255
0 0 0 0 0 0 0 0 0 0 0 0 0 0 0 0 0 0 0 0 0 0 0 0 0 0 0 0 0 0 0 0 0 0 0 0 0 0 0 
0 0 0 0 0 0 0 0 0 0 0 0 0 0 0 0 0 0 0 0 0 0 0 0 0 0 0 0 0 0 0 0 0 0 0 0 0 0 0 
0 0 0 0 0 0 0 0 0 0 0 0 0 0 0 0 0 0 0 0 0 0 0 0 0 0 0 0 0 0 0 0 0 0 0 0 0 0 0 
0 0 0 0 0 0 0 0 0 0 0 0 0 0 0 0 0 0 0 0 0 0 0 0 0 0 0 0 0 0 0 0 0 0 0 0 0 0 0 
0 0 0 0 0 0 0 0 0 0 0 0 0 0 0 0 0 0 0 0 0 0 0 0 0 0 0 0 0 0 0 0 0 0 0 0 0 0 0 
0 0 0 0 0 0 0 0 0 0 0 0 0 0 0 0 0 0 0 0 0 0 0 0 0 0 0 0 0 0 0 0 0 0 0 0 0 0 0 
0 0 0 0 0 0 0 0 0 0 0 0 0 0 0 0 0 0 0 0 0 0 0 0 0 0 0 0 0 0 0 0 0 0 0 0 0 0 0 
0 0 0 0 0 0 0 0 0 0 0 0 0 0 0 0 0 0 0 0 0 0 0 0 0 0 0 0 0 0 0 0 0 0 0 0 0 0 0 
0 0 0 0 0 0 0 0 0 0 0 0 0 0 0 0 0 0 0 0 0 0 0 0 0 0 0 0 0 0 0 0 0 0 0 0 0 0 0 
0 0 0 0 0 0 0 0 0 0 0 0 0 0 0 0 0 0 0 0 0 0 0 0 0 0 0 0 0 0 0 0 0 0 0 0 0 0 0 
0 0 0 0 0 0 0 0 0 0 0 0 0 0 0 0 0 0 0 0 0 0 0 0 0 0 0 0 0 0 0 0 0 0 0 0 0 0 0 
0 0 0 0 0 0 0 0 0 0 0 0 0 0 0 0 0 0 0 0 0 0 0 0 0 0 0 0 0 0 0 0 0 0 0 0 0 0 0 
0 0 0 0 0 0 0 0 0 0 0 0 0 0 0 0 0 0 0 0 0 0 0 0 0 0 0 0 0 0 0 0 0 0 0 0 0 0 0 
0 0 0 0 0 0 0 0 0 0 0 0 0 0 0 0 0 0 0 0 0 0 0 0 0 0 0 0 0 0 0 0 0 0 0 0 0 0 0 
0 0 0 0 0 0 0 0 0 0 0 0 0 0 0 0 0 0 0 0 0 0 0 0 0 0 0 0 0 0 0 0 0 0 0 0 0 0 0 
0 0 0 0 0 0 0 0 0 0 0 0 0 0 0 0 0 0 0 0 0 0 0 0 0 0 0 0 0 0 0 0 0 0 0 0 0 0 0 
0 0 0 0 0 0 0 0 0 0 0 0 0 0 0 0 0 0 0 0 0 0 0 0 0 0 0 0 0 0 0 0 0 0 0 0 0 0 0 
0 0 0 0 0 0 0 0 0 0 0 0 0 0 0 0 0 0 0 0 0 0 0 0 0 0 0 0 0 0 0 0 0 0 0 0 0 0 0 
0 0 0 0 0 0 0 0 0 0 0 0 0 0 0 0 0 0 0 0 0 0 0 0 0 0 0 0 0 0 0 0 0 0 0 0 0 0 0 
0 0 0 0 0 0 0 0 0 0 0 0 0 0 0 0 0 0 0 0 0 0 0 0 0 0 0 0 0 0 0 0 0 0 0 0 0 0 0 
0 0 0 0 0 0 0 0 0 0 0 0 0 0 0 0 0 0 0 0 0 0 0 0 0 0 0 0 0 0 0 0 0 0 0 0 0 0 0 
0 0 0 0 0 0 0 0 0 0 0 0 0 0 0 0 0 0 0 0 0 0 0 0 0 0 0 0 0 0 0 0 0 0 0 0 0 0 0 
0 0 0 0 0 0 0 0 0 0 0 0 0 0 0 0 0 0 0 0 0 0 0 0 0 0 0 0 0 0 0 5 0 4 3 0 3 2 9 
2 0 4 0 0 14 0 6 4 2 0 1 1 0 1 0 0 0 0 0 0 0 0 1 0 2 12 0 15 0 8 0 0 0 0 0 0 0 
0 0 10 0 0 6 8 0 0 0 0 4 2 0 0 7 3 0 0 0 0 0 0 0 0 0 0 0 0 0 0 0 0 0 0 0 0 0 0 
0 0 0 0 0 0 0 0 0 0 0 0 0 0 0 0 0 0 0 0 0 0 0 20 0 0 13 0 0 0 0 0 4 0 5 14 0 4 
0 0 4 14 0 0 23 0 0 0 0 0 0 0 0 0 3 13 0 0 0 0 19 0 0 0 0 0 0 0 0 0 5 0 15 0 4 
0 7 0 1 7 0 1 2 4 0 0 0 0 0 0 0 0 0 0 0 0 0 0 0 0 0 0 0 0 0 0 0 0 0 0 0 0 0 0 
0 0 0 0 0 0 0 0 0 0 0 0 0 0 0 0 7 0 2 1 0 7 0 8 13 12 0 9 0 0 0 0 10 11 3 0 12 
0 0 11 0 0 0 0 0 0 0 0 0 0 15 1 6 2 0 13 0 0 0 0 0 0 0 0 0 0 0 30 0 4 22 0 0 23 
0 1 0 0 0 9 0 0 0 0 0 0 0 0 0 0 0 0 0 0 0 0 0 0 0 0 0 0 0 0 0 0 0 0 0 0 0 0 0 
0 0 0 0 0 0 0 0 0 0 0 2 18 0 0 2 0 0 255 242 241 247 245 255 237 23 0 0 0 0 0 
13 0 18 0 0 0 0 0 0 0 0 0 8 0 0 0 0 24 0 2 0 0 0 0 0 0 0 0 7 1 8 0 0 11 0 1 0 
0 0 4 3 3 0 2 0 0 0 0 0 0 0 0 0 0 0 0 0 0 0 0 0 0 0 0 0 0 0 0 0 0 0 0 0 0 0 0 
0 0 0 0 0 0 0 0 0 0 0 0 0 0 8 0 255 244 255 236 253 255 246 255 236 255 244 
252 253 254 22 0 0 1 15 0 0 0 0 0 0 0 0 0 0 0 8 0 12 0 0 244 251 251 251 251 
251 251 251 251 252 248 249 255 255 255 0 8 29 0 10 0 0 6 4 0 0 0 0 0 0 0 0 0 
0 0 0 0 0 0 0 0 0 0 0 0 0 0 0 0 0 0 0 0 0 0 0 0 0 0 0 0 0 0 0 0 0 0 0 0 22 1 0 
250 253 248 255 253 249 250 251 235 255 255 214 255 248 244 246 255 0 0 4 6 0 
0 0 0 0 0 0 0 0 0 0 7 0 4 250 255 251 251 251 251 251 251 251 251 242 255 253 
242 248 249 255 0 0 0 1 0 0 0 4 3 0 0 0 0 0 0 0 0 0 0 0 0 0 0 0 0 0 0 0 0 0 0 
0 0 0 0 0 0 0 0 0 0 0 0 0 0 0 0 0 0 0 0 0 0 0 0 17 252 242 252 230 253 250 254 
249 255 243 243 255 254 243 255 242 251 255 243 14 0 0 0 0 0 0 0 0 0 5 0 7 7 0 
0 255 237 250 250 250 250 250 250 250 250 253 254 255 235 255 255 232 255 0 34 
0 14 8 7 0 0 0 0 0 0 0 0 0 0 0 0 0 0 0 0 0 0 0 0 0 0 0 0 0 0 0 0 0 0 0 0 0 0 0 
0 0 0 0 0 0 0 0 0 0 0 0 0 244 244 255 243 255 246 248 248 250 252 254 251 252 
246 255 242 255 248 250 255 241 4 0 0 0 0 0 0 0 0 0 10 0 0 9 0 248 254 251 251 
251 251 251 251 251 251 246 255 247 255 255 246 255 249 251 247 4 1 0 7 0 3 0 
0 0 0 0 0 0 0 0 0 0 0 0 0 0 0 0 0 0 0 0 0 0 0 0 0 0 0 0 0 0 0 0 0 0 0 4 0 7 0 
10 0 1 0 0 255 246 242 248 255 242 255 251 251 251 251 251 251 251 251 251 248 
252 253 245 246 250 0 0 0 0 0 0 0 0 0 0 9 0 3 9 5 0 255 255 250 251 241 251 
244 255 247 251 251 251 251 251 251 251 251 247 255 246 3 3 0 11 0 0 0 0 0 0 0 
0 0 0 0 0 0 0 0 0 0 0 0 0 0 0 0 0 0 0 0 0 0 0 0 0 0 0 0 0 0 0 9 0 0 0 0 0 11 
23 227 255 255 242 245 241 255 251 251 251 251 251 251 251 251 255 251 254 243 
255 255 249 0 0 0 0 0 0 0 0 0 0 10 6 9 0 0 24 228 240 255 254 255 255 255 242 
254 251 251 251 251 251 251 251 251 251 250 255 229 6 5 0 16 0 0 0 0 0 0 0 0 0 
0 0 0 0 0 0 0 0 0 0 0 0 0 0 0 0 0 0 0 0 0 0 0 0 0 0 0 0 0 7 17 2 0 13 0 230 
255 242 253 242 255 255 244 251 251 251 251 251 251 251 251 242 255 243 237 
245 252 240 0 0 0 0 0 0 0 0 0 7 0 0 9 0 9 0 21 252 238 255 249 234 244 253 251 
251 251 251 251 251 251 251 251 255 243 252 253 243 0 6 0 0 0 0 0 0 0 0 0 0 0 
0 0 0 0 0 0 0 0 0 0 0 0 0 0 0 0 0 0 0 0 0 0 0 0 0 0 9 1 0 0 3 0 0 252 255 243 
249 255 246 255 255 248 251 251 251 251 251 251 251 251 252 252 255 255 250 
255 0 3 0 0 0 0 0 0 0 0 3 0 0 5 0 2 8 0 0 255 255 248 255 255 250 242 251 251 
251 251 251 251 251 251 252 250 255 252 255 9 0 10 0 0 0 0 0 0 0 0 0 0 0 0 0 0 
0 0 0 0 0 0 0 0 0 0 0 0 0 0 0 0 0 0 0 0 0 0 0 0 9 0 0 15 3 255 237 231 255 255 
250 245 244 253 251 251 251 251 251 251 251 251 246 255 246 254 236 255 6 0 0 
0 0 0 0 0 0 0 0 7 6 1 0 0 20 14 0 248 236 255 252 242 255 255 251 251 251 251 
251 251 251 251 246 255 250 244 237 255 2 2 0 0 0 0 0 0 0 0 0 0 0 0 0 0 0 0 0 
0 0 0 0 0 0 0 0 0 0 0 0 0 0 0 0 0 0 0 6 0 11 0 2 3 239 247 255 255 248 237 253 
255 247 251 251 251 251 251 251 251 251 251 255 249 237 255 253 0 9 2 0 0 0 0 
0 0 0 0 0 4 0 0 14 3 0 0 4 12 248 249 255 240 254 245 251 251 251 251 251 251 
251 251 255 235 246 255 255 241 0 0 0 0 0 0 0 0 0 0 0 0 0 0 0 0 0 0 0 0 0 0 0 
0 0 0 0 0 0 0 0 0 0 0 0 0 0 0 0 12 0 0 24 0 254 255 235 253 250 254 250 251 
250 255 251 251 251 251 251 251 251 251 253 251 255 224 248 18 0 2 0 0 0 0 0 0 
0 0 0 1 0 1 0 1 0 16 0 0 255 227 255 255 239 254 251 251 251 251 251 251 251 
251 242 255 255 251 227 255 251 10 0 0 0 0 0 0 0 0 0 0 0 0 0 0 0 0 0 0 0 0 0 0 
0 0 0 0 0 0 0 0 0 0 0 0 0 0 6 0 0 21 0 243 255 241 252 255 244 255 243 246 254 
249 251 251 251 251 251 251 251 251 251 243 255 255 0 14 0 1 0 0 0 0 0 0 0 0 2 
0 5 8 0 7 0 0 10 0 8 255 230 255 255 245 251 251 251 251 251 251 251 251 246 
255 243 242 255 242 244 0 0 0 0 0 0 0 0 0 0 0 0 0 0 0 0 0 0 0 0 0 0 0 0 0 0 0 
0 0 0 0 0 0 0 0 0 0 0 0 0 15 239 254 248 254 251 251 251 251 251 251 251 251 
251 251 251 251 251 251 251 251 255 233 253 255 0 0 9 0 0 0 0 0 0 0 0 0 0 0 0 
0 0 0 0 0 1 0 10 252 243 254 255 251 251 251 251 251 251 251 251 251 251 251 
251 251 251 251 251 251 5 0 7 0 2 0 0 6 0 0 0 0 0 0 0 0 0 0 0 0 0 0 0 0 0 0 0 
0 0 0 0 0 0 0 0 0 1 3 2 0 255 247 255 240 251 251 251 251 251 251 251 251 251 
251 251 251 251 251 251 251 237 255 255 0 20 0 0 8 0 0 0 0 0 0 0 0 0 0 0 0 0 0 
0 0 2 13 0 0 255 245 249 247 251 251 251 251 251 251 251 251 251 251 251 251 
251 251 251 251 0 0 0 11 0 7 0 0 0 0 0 0 0 0 0 0 0 0 0 0 0 0 0 0 0 0 0 0 0 0 0 
0 0 0 0 0 6 0 11 255 240 255 233 255 251 251 251 251 251 251 251 251 251 251 
251 251 251 251 251 251 248 255 253 0 2 0 21 0 0 0 0 0 0 0 0 0 0 0 0 0 0 0 0 0 
2 0 2 9 242 252 255 248 251 251 251 251 251 251 251 251 251 251 251 251 251 
251 251 251 255 0 5 0 16 0 21 2 0 0 0 0 0 0 0 0 0 0 0 0 0 0 0 0 0 0 0 0 0 0 0 
0 0 0 0 0 0 8 0 244 255 250 255 249 251 251 251 251 251 251 251 251 251 251 
251 251 251 251 251 251 255 244 0 12 0 6 0 0 0 0 0 0 0 0 0 0 0 0 0 0 0 0 0 0 0 
0 0 4 0 240 246 246 251 251 251 251 251 251 251 251 251 251 251 251 251 251 
251 251 238 2 0 6 0 0 0 4 0 0 0 0 0 0 0 0 0 0 0 0 0 0 0 0 0 0 0 0 0 0 0 0 0 0 
0 0 22 6 5 255 237 236 255 250 251 251 251 251 251 251 251 251 251 251 251 251 
251 251 251 251 255 0 16 0 9 0 11 6 0 0 0 0 0 0 0 0 0 0 0 0 0 0 0 0 0 7 0 11 
2 255 246 255 251 251 251 251 251 251 251 251 251 251 251 251 251 251 251 251 
250 253 0 1 6 0 11 0 0 0 0 0 0 0 0 0 0 0 0 0 0 0 0 0 0 0 0 0 0 0 0 0 0 0 0 0 0 
0 237 248 255 255 255 244 251 251 251 251 251 251 251 251 251 251 251 251 251 
251 251 251 243 12 0 1 0 0 0 0 0 0 0 0 0 0 0 0 0 0 0 0 0 0 0 0 3 0 0 8 0 0 255 
243 251 251 251 251 251 251 251 251 251 251 251 251 251 251 251 251 239 255 
5 0 4 3 0 17 0 0 0 0 0 0 0 0 0 0 0 0 0 0 0 0 0 0 0 0 0 0 0 0 0 0 0 0 9 0 255 
255 246 249 248 252 251 251 251 251 251 251 251 251 251 251 251 251 251 251 
251 251 3 0 6 0 3 12 0 25 0 0 0 0 0 0 0 0 0 0 0 0 0 0 0 0 4 0 0 0 12 0 255 245 
251 251 251 251 251 251 251 251 251 251 251 251 251 251 251 251 255 255 0 21 
1 0 14 0 0 0 0 0 0 0 0 0 0 0 0 0 0 0 0 0 0 0 0 0 0 0 0 0 0 0 0 0 0 255 232 255 
248 255 249 253 251 251 251 251 251 251 251 251 251 251 251 251 251 251 251 
251 0 13 0 0 8 4 0 0 0 0 0 0 0 0 0 0 0 0 0 0 0 0 0 0 0 13 10 0 0 3 0 255 251 
251 251 251 251 251 251 251 251 251 251 251 251 251 251 251 245 251 255 0 2 11 
0 10 0 0 0 0 0 0 0 0 0 0 0 0 0 0 0 0 0 0 0 0 0 18 0 0 5 0 0 1 10 238 254 247 
255 237 255 243 251 251 251 251 251 251 251 251 239 250 252 255 246 246 245 
254 0 0 0 0 0 0 0 0 0 0 0 0 0 0 0 0 0 0 0 0 0 0 0 0 0 9 0 3 9 5 0 255 252 251 
247 249 254 250 255 247 251 251 251 251 251 251 251 251 253 248 255 0 1 15 0 0 
0 0 0 0 0 0 0 0 0 0 0 0 0 0 0 0 0 0 0 0 0 0 0 13 4 0 11 2 236 255 246 250 255 
234 251 255 251 251 251 251 251 251 251 251 255 253 245 245 242 255 245 0 0 0 
0 0 0 0 0 0 0 0 0 0 0 0 0 0 0 0 0 0 0 0 0 0 0 10 6 9 0 0 24 228 239 254 255 
255 244 244 253 255 251 251 251 251 251 251 251 251 255 247 255 5 0 0 8 4 0 0 
0 0 0 0 0 0 0 0 0 0 0 0 0 0 0 0 0 0 6 9 2 0 0 21 0 0 255 238 251 255 250 255 
249 243 251 251 251 251 251 251 251 251 241 246 251 245 255 231 255 3 0 0 0 0 
0 0 0 0 0 0 0 0 0 0 0 0 0 0 0 0 0 0 0 0 7 0 0 9 0 9 0 21 255 248 241 247 254 
255 252 248 251 251 251 251 251 251 251 251 249 246 252 249 0 14 0 3 0 0 0 0 0 
0 0 0 0 0 0 0 0 0 0 0 0 0 0 0 0 9 0 26 0 0 4 0 246 242 255 249 232 255 255 248 
251 251 251 251 251 251 251 251 255 255 251 255 254 255 0 0 0 0 0 0 0 0 0 0 0 
0 0 0 0 0 0 0 0 0 0 0 0 0 0 0 3 0 0 5 0 2 8 0 239 244 246 255 248 244 238 255 
251 251 251 251 251 251 251 251 249 251 252 247 12 0 8 0 0 0 0 0 0 0 0 0 0 0 0 
0 0 0 0 0 0 0 0 0 6 9 0 0 5 7 0 250 255 255 248 250 253 249 249 255 251 251 
251 251 251 251 251 251 255 229 250 255 227 238 26 3 0 0 0 0 0 0 0 0 0 0 0 0 0 
0 0 0 0 0 0 0 0 0 0 0 0 7 6 1 0 0 20 14 246 255 251 243 247 255 246 250 251 
251 251 251 251 251 251 251 255 243 252 253 239 0 0 10 0 0 0 0 0 0 0 0 0 0 0 0 
0 0 0 0 0 0 0 0 0 13 7 0 10 0 0 255 234 252 237 252 255 245 246 252 251 251 
251 251 251 251 251 251 255 252 249 255 255 246 0 0 0 0 0 0 0 0 0 0 0 0 0 0 0 
0 0 0 0 0 0 0 0 0 0 0 0 4 0 0 14 3 0 0 0 215 255 255 251 255 249 243 251 251 
251 251 251 251 251 251 242 255 249 231 254 19 5 0 0 0 0 0 0 0 0 0 0 0 0 0 0 0 
0 0 0 0 0 0 0 3 0 28 0 0 252 246 248 255 255 245 241 244 255 255 251 251 251 
251 251 251 251 251 247 255 253 242 238 12 3 1 0 0 0 0 0 0 0 0 0 0 0 0 0 0 0 0 
0 0 0 0 0 0 0 0 0 1 0 1 0 1 0 16 14 255 252 239 244 254 255 251 251 251 251 
251 251 251 251 251 255 230 255 255 255 0 9 0 0 0 0 0 0 0 0 0 0 0 0 0 0 0 0 0 
0 0 0 0 5 0 14 0 0 11 250 252 252 240 253 255 248 255 253 241 251 251 251 251 
251 251 251 251 247 248 243 255 255 0 1 1 0 0 0 0 0 0 0 0 0 0 0 0 0 0 0 0 0 0 
0 0 0 0 0 0 2 0 5 8 0 7 0 0 0 255 241 255 255 240 244 250 251 251 251 251 251 
251 251 251 251 246 251 251 250 1 11 0 0 0 0 0 0 0 0 0 0 0 0 0 0 0 0 0 0 0 0 0 
13 0 9 0 0 0 255 248 251 251 251 251 251 251 251 251 251 251 251 251 251 251 
251 251 247 255 253 249 251 9 0 3 0 0 0 0 0 0 0 0 0 0 0 0 0 0 0 0 0 0 0 0 0 0 
0 0 0 0 0 0 0 0 0 0 1 0 253 252 247 255 247 244 251 251 251 251 251 251 251 
251 255 254 244 255 255 0 9 0 0 0 0 0 0 0 0 0 0 0 0 0 0 0 0 0 0 0 0 0 0 8 13 
0 0 255 234 244 251 251 251 251 251 251 251 251 251 251 251 251 251 251 251 
251 247 255 240 246 9 0 15 4 0 0 0 0 0 0 0 0 0 0 0 0 0 0 0 0 0 0 0 0 0 0 0 0 0 
0 0 0 0 0 0 0 4 2 248 255 251 243 255 255 251 251 251 251 251 251 251 251 249 
239 245 255 250 0 0 2 0 0 0 0 0 0 0 0 0 0 0 0 0 0 0 0 0 0 0 0 2 0 0 4 5 222 
255 255 251 251 251 251 251 251 251 251 251 251 251 251 251 251 251 251 251 
251 255 255 3 5 6 0 0 0 0 0 0 0 0 0 0 0 0 0 0 0 0 0 0 0 0 0 0 0 0 0 0 0 0 0 0 
0 0 0 0 14 248 248 249 255 255 234 251 251 251 251 251 251 251 251 250 255 255 
247 243 255 0 6 0 0 0 0 0 0 0 0 0 0 0 0 0 0 0 0 0 0 0 0 0 12 0 1 8 255 240 242 
251 251 251 251 251 251 251 251 251 251 251 251 251 251 251 251 250 241 255 
228 0 2 0 16 0 0 0 0 0 0 0 0 0 0 0 0 0 0 0 0 0 0 0 0 0 0 0 0 0 0 0 0 0 0 0 0 0 
0 255 238 255 254 252 255 251 251 251 251 251 251 251 251 243 255 251 241 255 
255 0 0 0 0 0 0 0 0 0 0 0 0 0 0 0 0 0 0 0 0 0 0 4 0 14 0 0 255 243 255 251 251 
251 251 251 251 251 251 251 251 251 251 251 251 251 251 255 255 240 5 21 3 0 0 
0 0 0 0 0 0 0 0 0 0 0 0 0 0 0 0 0 0 0 0 0 0 0 0 0 0 0 0 0 0 0 0 3 13 0 255 236 
254 253 235 251 251 251 251 251 251 251 251 249 239 251 255 229 245 0 14 0 0 0 
0 0 0 0 0 0 0 0 0 0 0 0 0 0 0 0 0 1 11 0 8 254 254 247 252 251 251 251 251 251 
251 251 251 251 251 251 251 251 251 251 251 242 254 255 23 0 6 4 0 0 0 0 0 0 0 
0 0 0 0 0 0 0 0 0 0 0 0 0 0 0 0 0 0 0 0 0 0 0 0 0 0 10 0 0 255 248 253 247 255 
251 251 251 251 251 251 251 251 249 255 246 237 255 255 0 2 0 0 0 0 0 0 0 0 0 
0 0 0 0 0 0 0 0 0 0 0 0 3 9 7 247 243 245 255 251 251 251 251 251 251 251 251 
251 251 251 251 251 251 251 251 255 254 244 0 13 3 0 3 0 0 0 0 0 0 0 0 0 0 0 0 
0 0 0 0 0 0 0 0 0 0 0 0 0 0 0 0 0 0 0 0 0 1 0 250 247 255 249 236 251 251 251 
251 251 251 251 251 251 245 250 255 242 255 0 9 0 0 0 0 0 0 0 0 0 0 0 0 0 0 0 
0 0 0 0 0 5 0 0 0 255 255 248 251 251 251 251 251 251 251 251 251 251 251 251 
251 251 251 251 251 242 255 246 2 0 7 0 4 0 0 0 0 0 0 0 0 0 0 0 0 0 0 0 0 0 0 
0 0 0 0 0 0 0 0 0 0 0 0 0 0 0 7 0 253 251 247 255 255 251 251 251 251 251 251 
251 251 248 249 255 242 255 240 255 0 0 0 0 0 0 0 0 0 0 0 0 0 0 0 0 0 0 0 0 0 
9 0 1 0 239 251 241 255 251 251 251 251 251 251 251 251 251 251 251 251 251 
251 251 251 251 255 0 0 2 0 7 0 0 0 0 0 0 0 0 0 0 0 0 0 0 0 0 0 0 0 0 0 0 0 0 
0 0 0 0 0 0 0 0 0 7 0 5 255 244 252 252 246 251 251 251 251 251 251 251 251 
254 248 255 251 247 255 241 0 0 0 0 0 0 0 0 0 0 0 0 0 0 0 0 0 0 0 0 0 0 4 4 1 
255 255 248 242 251 251 251 251 251 251 251 251 251 251 251 251 251 251 251 
251 255 244 4 14 3 3 0 0 0 0 0 0 0 0 0 0 0 0 0 0 0 0 0 0 0 0 0 0 0 0 0 0 0 0 0 
0 0 0 0 0 0 3 7 225 255 252 254 251 251 251 251 251 251 251 251 251 247 252 
255 243 253 249 247 16 0 0 0 0 0 0 0 0 0 0 0 0 0 0 0 0 0 0 0 0 12 0 0 9 233 
223 255 249 251 251 251 251 251 251 251 251 251 251 251 251 251 251 251 251 
247 242 9 0 0 12 9 0 0 0 0 0 0 0 0 0 0 0 0 0 0 0 0 0 0 0 0 0 0 0 0 0 0 0 0 0 0 
0 0 0 0 12 0 255 251 255 240 255 251 251 251 251 251 251 251 251 252 255 247 
241 255 251 240 0 0 0 0 0 0 0 0 0 0 0 0 0 0 0 0 0 0 0 0 0 0 1 12 241 255 255 
255 240 251 251 251 251 251 251 251 251 251 251 251 251 251 251 251 251 255 
255 1 0 19 0 4 0 0 0 0 0 0 0 0 0 0 0 0 0 0 0 0 0 0 0 0 0 0 0 0 0 0 0 0 0 0 0 0 
0 7 0 5 255 246 229 254 248 251 251 251 251 251 251 251 251 249 255 255 244 
250 241 255 13 0 0 0 0 0 0 0 0 0 0 0 0 0 0 0 0 0 0 0 0 7 0 5 255 246 229 254 
248 251 251 251 251 251 251 251 251 251 251 251 251 251 251 251 251 245 0 0 7 
0 15 0 5 0 0 0 0 0 0 0 0 0 0 0 0 0 0 0 0 0 0 0 0 0 0 0 0 0 0 0 0 0 0 0 0 0 1 12 
241 255 255 255 240 251 251 251 251 251 251 251 251 254 242 250 247 250 250 
255 0 0 0 0 0 0 0 0 0 0 0 0 0 0 0 0 0 0 0 0 0 0 12 0 255 251 255 240 255 251 
251 251 251 251 251 251 251 251 251 251 251 251 251 251 251 255 11 0 4 22 0 0 
0 0 0 0 0 0 0 0 0 0 0 0 0 0 0 0 0 0 0 0 0 0 0 0 0 0 0 0 0 0 0 0 0 12 0 0 9 233 
223 255 249 251 251 251 251 251 251 251 251 255 239 244 252 254 255 244 21 0 0 
0 0 0 0 0 0 0 0 0 0 0 0 0 0 0 0 0 0 0 3 7 225 255 252 254 251 251 251 251 251 
251 251 251 251 251 251 251 251 251 251 251 251 246 10 0 0 0 0 3 0 0 0 0 0 0 0 
0 0 0 0 0 0 0 0 0 0 0 0 0 0 0 0 0 0 0 0 0 0 0 0 0 0 0 4 4 1 255 255 248 242 
251 251 251 251 251 251 251 251 245 255 255 252 236 241 255 228 0 0 0 0 0 0 0 
0 0 0 0 0 0 0 0 0 0 0 0 0 7 0 5 255 244 252 252 246 251 251 251 251 251 251 
251 251 251 251 251 251 251 251 251 251 250 0 5 6 0 8 0 2 0 0 0 0 0 0 0 0 0 0 
0 0 0 0 0 0 0 0 0 0 0 0 0 0 0 0 0 0 0 0 0 0 9 0 1 0 239 251 241 255 251 251 
251 251 251 251 251 251 245 255 236 246 255 253 237 255 0 0 0 0 0 0 0 0 0 0 0 
0 0 0 0 0 0 0 0 0 0 0 3 249 253 250 251 251 251 251 251 251 251 251 251 251 
251 251 251 251 251 251 251 251 251 1 0 1 0 0 0 0 0 0 0 0 0 0 0 0 0 0 0 0 0 0 
0 0 0 0 0 0 0 0 0 0 0 0 0 0 0 0 0 0 0 12 0 0 255 251 255 243 251 251 251 251 
251 251 251 251 251 251 251 251 251 251 251 251 0 0 0 0 0 0 0 0 0 0 0 0 0 0 0 
0 0 0 0 0 0 0 3 249 253 250 251 251 251 251 251 251 251 251 251 251 251 251 
251 251 251 251 251 251 251 1 0 1 0 0 0 0 0 0 0 0 0 0 0 0 0 0 0 0 0 0 0 0 0 0 
0 0 0 0 0 0 0 0 0 0 0 0 0 0 1 0 0 0 247 239 248 255 251 251 251 251 251 251 
251 251 251 251 251 251 251 251 251 251 0 0 0 0 0 0 0 0 0 0 0 0 0 0 0 0 0 0 0 
0 0 0 3 249 253 250 251 251 251 251 251 251 251 251 251 251 251 251 251 251 
251 251 251 251 251 1 0 1 0 0 0 0 0 0 0 0 0 0 0 0 0 0 0 0 0 0 0 0 0 0 0 0 0 0 
0 0 0 0 0 0 0 0 0 0 0 0 9 0 245 255 255 238 251 251 251 251 251 251 251 251 
251 251 251 251 251 251 251 251 0 0 0 0 0 0 0 0 0 0 0 0 0 0 0 0 0 0 0 0 0 0 3 
249 253 250 251 251 251 251 251 251 251 251 251 251 251 251 251 251 251 251 
251 251 251 1 0 1 0 0 0 0 0 0 0 0 0 0 0 0 0 0 0 0 0 0 0 0 0 0 0 0 0 0 0 0 0 0 
0 0 0 0 0 0 0 12 0 0 255 236 247 251 251 251 251 251 251 251 251 251 251 251 
251 251 251 251 251 251 0 0 0 0 0 0 0 0 0 0 0 0 0 0 0 0 0 0 0 0 0 0 3 249 253 
250 251 251 251 251 251 251 251 251 251 251 251 251 251 251 251 251 251 251 
251 1 0 1 0 0 0 0 0 0 0 0 0 0 0 0 0 0 0 0 0 0 0 0 0 0 0 0 0 0 0 0 0 0 0 0 0 0 
0 0 1 0 0 255 238 255 255 246 251 251 251 251 251 251 251 251 251 251 251 251 
251 251 251 251 0 0 0 0 0 0 0 0 0 0 0 0 0 0 0 0 0 0 0 0 0 0 3 249 253 250 251 
251 251 251 251 251 251 251 251 251 251 251 251 251 251 251 251 251 251 1 0 1 
0 0 0 0 0 0 0 0 0 0 0 0 0 0 0 0 0 0 0 0 0 0 0 0 0 0 0 0 0 0 0 0 0 0 0 0 0 4 0 
255 253 233 249 255 251 251 251 251 251 251 251 251 251 251 251 251 251 251 
251 251 0 0 0 0 0 0 0 0 0 0 0 0 0 0 0 0 0 0 0 0 0 0 3 249 253 250 251 251 251 
251 251 251 251 251 251 251 251 251 251 251 251 251 251 251 251 1 0 1 0 0 0 0 
0 0 0 0 0 0 0 0 0 0 0 0 0 0 0 0 0 0 0 0 0 0 0 0 0 0 0 0 0 0 0 0 0 9 0 255 252 
255 255 238 251 251 251 251 251 251 251 251 251 251 251 251 251 251 251 251 
0 0 0 0 0 0 0 0 0 0 0 0 0 0 0 0 0 0 0 0 0 0 3 249 253 250 251 251 251 251 251 
251 251 251 251 251 251 251 251 251 251 251 251 251 251 1 0 1 0 0 0 0 0 0 0 0 
0 0 0 0 0 0 0 0 0 0 0 0 0 0 0 0 0 0 0 0 0 0 0 0 0 0 0 0 3 0 2 255 237 251 252 
254 251 251 251 251 251 251 251 251 251 251 251 251 251 251 251 251 0 0 0 0 0 
0 0 0 0 0 0 0 0 0 0 0 0 0 0 0 9 0 5 249 251 244 255 247 251 251 251 251 251 
251 251 251 251 251 251 251 251 251 251 251 255 0 1 0 0 0 2 4 0 0 0 0 0 0 0 0 
0 0 0 0 0 0 0 0 0 0 0 0 0 0 0 0 0 0 0 0 0 0 0 0 3 0 0 255 251 254 244 252 251 
251 251 251 251 251 251 251 248 251 243 255 246 255 247 0 0 0 0 0 0 0 0 0 0 0 
0 0 0 0 0 0 0 0 0 0 0 0 7 255 238 248 255 248 251 251 251 251 251 251 251 251 
251 251 251 251 251 251 251 251 236 18 9 2 0 7 0 0 0 0 0 0 0 0 0 0 0 0 0 0 0 0 
0 0 0 0 0 0 0 0 0 0 0 0 0 0 0 0 0 0 0 0 255 255 233 255 244 255 251 251 251 
251 251 251 251 251 255 244 253 248 255 253 240 16 0 0 0 0 0 0 0 0 0 0 0 0 0 0 
0 0 0 0 0 0 9 0 0 228 255 245 247 252 251 251 251 251 251 251 251 251 251 251 
251 251 251 251 251 251 255 247 0 0 8 0 0 20 0 0 0 0 0 0 0 0 0 0 0 0 0 0 0 0 0 
0 0 0 0 0 0 0 0 0 0 0 0 0 0 0 0 5 247 240 255 244 242 250 251 251 251 251 251 
251 251 251 248 255 247 255 239 235 255 0 0 0 0 0 0 0 0 0 0 0 0 0 0 0 0 0 0 0 
0 0 0 0 11 246 230 248 255 251 251 251 251 251 251 251 251 251 251 251 251 251 
251 251 251 251 249 235 17 0 8 0 4 0 0 0 0 0 0 0 0 0 0 0 0 0 0 0 0 0 0 0 0 0 0 
0 0 0 0 0 0 0 0 0 0 0 5 17 250 245 244 255 238 255 251 251 251 251 251 251 251 
251 239 255 237 255 245 255 255 0 0 0 0 0 0 0 0 0 0 0 0 0 0 0 0 0 0 0 0 0 1 10 
0 23 255 249 255 235 251 251 251 251 251 251 251 251 251 251 251 251 251 251 
251 251 255 255 0 2 0 13 3 0 0 0 0 0 0 0 0 0 0 0 0 0 0 0 0 0 0 0 0 0 0 0 0 0 0 
0 0 0 0 0 0 0 3 0 252 255 246 247 255 241 251 251 251 251 251 251 251 251 255 
251 243 248 255 255 224 13 0 0 0 0 0 0 0 0 0 0 0 0 0 0 0 0 0 0 0 0 0 0 0 0 248 
246 245 255 251 251 251 251 251 251 251 251 251 251 251 251 251 251 251 251 
248 234 255 0 7 0 0 5 0 0 0 0 0 0 0 0 0 0 0 0 0 0 0 0 0 0 0 0 0 0 0 0 0 0 0 0 
0 0 0 0 7 4 246 249 247 255 229 255 251 251 251 251 251 251 251 251 255 251 
248 248 247 236 255 0 0 0 0 0 0 0 0 0 0 0 0 0 0 0 0 0 0 0 0 0 4 0 11 5 242 255 
236 247 251 251 251 251 251 251 251 251 251 251 251 251 251 251 251 251 242 
255 244 5 9 4 0 0 0 0 0 0 0 0 0 0 0 0 0 0 0 0 0 0 0 0 0 0 0 0 0 0 0 0 0 0 0 0 
0 0 0 241 255 255 245 249 255 251 251 251 251 251 251 251 251 251 241 251 249 
255 248 255 246 2 0 0 0 0 0 0 0 0 0 0 0 0 0 0 0 0 0 0 0 0 4 0 0 2 0 242 255 
248 251 251 251 251 251 251 251 251 251 251 251 251 251 251 251 251 255 240 
249 251 0 0 8 0 0 0 0 0 0 0 0 0 0 0 0 0 0 0 0 0 0 0 0 0 0 0 0 0 0 0 0 0 0 0 0 
0 1 255 247 245 252 242 255 240 251 251 251 251 251 251 251 251 255 250 255 
245 248 255 1 0 0 0 0 0 0 0 0 0 0 0 0 0 0 0 0 0 0 0 0 0 6 0 0 21 0 243 255 241 
252 240 253 255 248 255 253 241 251 251 251 251 251 251 251 251 255 241 247 
255 246 0 13 0 3 0 6 0 0 0 5 4 0 0 0 0 0 0 0 0 0 0 0 0 0 0 0 0 5 0 10 4 0 0 4 
0 251 251 251 251 251 251 251 251 251 251 251 251 251 251 251 251 245 255 249 
248 255 244 0 9 0 0 0 0 0 0 0 0 0 0 0 0 0 0 0 0 0 0 0 0 0 12 0 0 24 0 254 255 
248 255 255 245 241 244 255 255 251 251 251 251 251 251 251 251 240 255 254 
245 255 1 0 25 0 16 0 0 16 1 0 0 0 0 0 0 0 0 0 0 0 0 0 0 0 0 0 0 0 11 0 0 0 9 
0 255 251 251 251 251 251 251 251 251 251 251 251 251 251 251 251 251 255 232 
247 255 237 248 15 0 0 0 0 0 0 0 0 0 0 0 0 0 0 0 0 0 0 0 0 0 6 0 11 0 2 3 239 
247 234 252 237 252 255 245 246 252 251 251 251 251 251 251 251 251 254 243 
250 255 245 255 0 0 0 0 10 2 7 6 0 11 0 0 0 0 0 0 0 0 0 0 0 0 0 0 0 0 21 0 0 14 
10 1 3 240 251 251 251 251 251 251 251 251 251 251 251 251 251 251 251 251 246 
255 255 242 246 255 0 0 0 0 0 0 0 0 0 0 0 0 0 0 0 0 0 0 0 0 0 0 0 0 9 0 0 15 
3 255 255 255 248 250 253 249 249 255 251 251 251 251 251 251 251 251 255 241 
255 246 255 236 251 21 11 0 11 0 0 4 0 0 0 0 0 0 0 0 0 0 0 0 0 0 0 0 0 0 0 11 
0 2 0 0 250 255 251 251 251 251 251 251 251 251 251 251 251 251 251 251 251 
251 255 242 252 246 255 0 2 7 0 0 0 0 0 0 0 0 0 0 0 0 0 0 0 0 0 0 0 0 9 1 0 0 
3 0 0 252 246 242 255 249 232 255 255 248 251 251 251 251 251 251 251 251 238 
255 255 237 251 254 246 238 11 0 0 0 18 0 0 5 0 0 0 0 0 0 0 0 0 0 0 0 0 0 0 0 
3 7 0 2 0 248 250 247 251 251 251 251 251 251 251 251 251 251 251 251 251 251 
251 251 243 248 255 249 244 0 0 0 0 0 0 0 0 0 0 0 0 0 0 0 0 0 0 0 0 0 0 0 0 0 
7 17 2 0 13 0 255 238 251 255 250 255 249 243 251 251 251 251 251 251 251 251 
255 240 243 255 255 255 246 255 240 0 11 6 2 0 3 0 0 0 0 0 0 0 0 0 0 0 0 0 0 0 
0 0 0 7 0 3 234 255 255 245 251 251 251 251 251 251 251 251 251 251 251 251 
251 251 251 251 250 254 234 248 255 9 0 10 0 0 0 0 0 0 0 0 0 0 0 0 0 0 0 0 0 0 
0 0 0 9 0 0 0 0 0 11 236 255 246 250 255 234 251 255 251 251 251 251 251 251 
251 251 255 255 247 247 245 251 245 252 253 255 252 0 0 7 0 8 0 0 0 0 0 0 0 0 
0 0 0 0 0 0 0 0 10 0 255 247 255 254 232 255 251 251 251 251 251 251 251 251 
251 251 251 251 251 251 251 251 255 248 255 247 2 0 0 0 0 0 0 0 0 0 0 0 0 0 0 
0 0 0 0 0 0 0 0 0 4 0 7 0 10 0 1 0 10 238 254 247 255 237 255 243 251 251 251 
251 251 251 251 251 244 254 250 255 248 250 253 250 249 244 246 255 251 0 12 
0 0 0 0 0 0 0 0 0 0 0 0 0 0 0 0 0 0 255 232 249 255 244 255 253 251 251 251 
251 251 251 251 251 251 251 251 251 251 251 251 251 248 255 240 255 0 5 4 5 0 
0 0 0 0 0 0 0 0 0 0 0 0 0 0 0 0 0 0 0 0 0 0 0 0 0 0 0 5 248 250 254 241 254 
246 241 250 250 250 250 250 250 250 250 251 251 251 251 251 251 251 251 243 
255 237 255 247 254 238 10 1 0 6 0 1 0 7 0 0 0 0 0 7 15 0 255 251 251 251 251 
251 251 251 251 251 251 251 251 251 251 251 251 251 251 251 251 251 251 251 
251 255 248 253 254 0 17 0 12 0 0 0 0 0 0 0 0 0 0 0 0 0 0 0 0 0 0 0 0 0 0 0 0 
0 0 0 0 0 0 235 254 254 239 246 254 250 250 250 250 250 250 250 250 251 251 
251 251 251 251 251 251 255 251 234 255 250 246 255 236 251 255 246 255 0 4 0 
0 1 255 247 255 238 235 255 234 251 251 251 251 251 251 251 251 251 251 251 
251 251 251 251 251 251 251 251 251 251 251 251 251 250 251 255 0 0 0 21 0 0 0 
0 0 0 0 0 0 0 0 0 0 0 0 0 0 0 0 0 0 0 0 0 0 0 0 0 0 0 0 254 228 239 254 243 
251 250 250 250 250 250 250 250 250 251 251 251 251 251 251 251 251 243 249 
255 250 255 251 238 255 242 255 241 241 255 255 244 255 249 250 237 255 246 
255 255 255 251 251 251 251 251 251 251 251 251 251 251 251 251 251 251 251 
251 251 251 251 251 251 251 251 249 251 255 0 16 15 0 5 0 0 0 0 0 0 0 0 0 0 0 
0 0 0 0 0 0 0 0 0 0 0 0 0 0 0 0 0 6 0 4 251 254 243 254 240 250 250 250 250 
250 250 250 250 251 251 251 251 251 251 251 251 248 255 255 232 249 255 242 
246 245 255 255 242 255 243 245 255 255 232 255 254 244 255 250 238 251 251 
251 251 251 251 251 251 251 251 251 251 251 251 251 251 251 251 251 251 251 
251 251 251 255 253 2 8 0 0 5 0 0 0 0 0 0 0 0 0 0 0 0 0 0 0 0 0 0 0 0 0 0 0 0 
0 0 0 0 0 4 0 0 17 227 247 254 254 250 250 250 250 250 250 250 250 251 251 251 
251 251 251 251 251 255 249 249 253 250 248 255 255 255 249 245 255 233 255 
255 244 246 243 251 255 253 237 255 255 251 251 251 251 251 251 251 251 251 
251 251 251 251 251 251 251 251 251 251 251 251 251 251 251 241 244 0 2 0 0 22 
0 0 0 0 0 0 0 0 0 0 0 0 0 0 0 0 0 0 0 0 0 0 0 0 0 0 0 0 0 3 4 0 0 13 245 246 
241 250 250 250 250 250 250 250 250 251 251 251 251 251 251 251 251 252 246 
245 255 252 237 252 234 239 255 250 238 255 251 237 255 255 252 255 234 250 
255 239 242 251 251 251 251 251 251 251 251 251 251 251 251 251 251 251 251 
251 251 251 251 251 251 251 251 255 2 0 12 0 0 2 2 0 0 0 0 0 0 0 0 0 0 0 0 0 0 
0 0 0 0 0 0 0 0 0 0 0 0 0 0 0 0 23 0 2 246 245 254 250 250 250 250 250 250 250 
250 251 251 251 251 251 251 251 251 255 255 244 241 245 255 255 248 255 254 
239 255 249 255 251 244 242 255 240 255 255 240 252 255 251 251 251 251 251 
251 251 251 251 251 251 251 251 251 251 251 251 251 251 251 251 251 251 251 
0 0 8 0 19 5 0 4 0 0 0 0 0 0 0 0 0 0 0 0 0 0 0 0 0 0 0 0 0 0 0 0 0 0 0 0 6 10 
0 1 0 3 253 246 250 250 250 250 250 250 250 250 251 251 251 251 251 251 251 
251 241 253 255 248 255 253 240 252 250 243 255 251 250 238 255 251 250 255 
255 255 239 255 255 247 251 251 251 251 251 251 251 251 251 251 251 251 251 
251 251 251 251 251 251 251 251 251 251 251 1 5 0 3 0 0 7 0 0 0 0 0 0 0 0 0 0 
0 0 0 0 0 0 0 0 0 0 0 0 0 0 0 0 0 0 0 7 0 13 0 3 0 12 240 251 245 244 254 243 
238 254 244 251 251 251 251 251 251 251 251 251 251 251 251 251 251 251 251 
251 251 251 251 251 251 251 251 251 251 251 251 251 251 251 251 251 251 251 
251 251 251 251 251 251 251 251 251 251 251 251 251 250 255 251 246 247 255 
238 1 0 0 0 0 0 0 0 0 0 0 0 0 0 0 0 0 0 0 0 0 0 0 0 0 0 0 0 0 0 0 0 0 0 0 0 0 
0 0 16 0 0 4 0 14 254 243 254 254 254 251 247 248 251 251 251 251 251 251 251 
251 251 251 251 251 251 251 251 251 251 251 251 251 251 251 251 251 251 251 
251 251 251 251 251 251 251 251 251 251 251 251 251 251 251 251 251 251 251 
251 251 251 253 233 255 255 235 251 10 7 0 0 0 0 0 0 0 0 0 0 0 0 0 0 0 0 0 0 0 
0 0 0 0 0 0 0 0 0 0 0 0 0 0 0 0 0 7 1 0 0 0 0 12 0 0 254 245 229 254 245 247 
251 251 251 251 251 251 251 251 251 251 251 251 251 251 251 251 251 251 251 
251 251 251 251 251 251 251 251 251 251 251 251 251 251 251 251 251 251 251 
251 251 251 251 251 251 251 251 251 251 251 250 255 242 250 255 0 0 0 0 0 0 0 
0 0 0 0 0 0 0 0 0 0 0 0 0 0 0 0 0 0 0 0 0 0 0 0 0 0 0 0 0 0 0 0 2 0 0 18 1 0 8 
4 5 4 252 254 238 254 253 254 251 251 251 251 251 251 251 251 251 251 251 251 
251 251 251 251 251 251 251 251 251 251 251 251 251 251 251 251 251 251 251 
251 251 251 251 251 251 251 251 251 251 251 251 251 251 251 251 251 252 253 
239 253 2 3 0 8 0 0 0 0 0 0 0 0 0 0 0 0 0 0 0 0 0 0 0 0 0 0 0 0 0 0 0 0 0 0 0 
0 0 0 0 0 0 1 1 0 0 2 0 0 0 0 7 252 254 232 252 235 251 251 251 251 251 251 
251 251 251 251 251 251 251 251 251 251 251 251 251 251 251 251 251 251 251 
251 251 251 251 251 251 251 251 251 251 251 251 251 251 251 251 251 251 251 
251 251 251 251 248 248 255 0 0 0 18 0 0 0 0 0 0 0 0 0 0 0 0 0 0 0 0 0 0 0 0 0 
0 0 0 0 0 0 0 0 0 0 0 0 0 0 0 0 0 4 5 0 0 13 0 16 5 0 0 0 247 254 254 244 251 
251 251 251 251 251 251 251 251 251 251 251 251 251 251 251 251 251 251 251 
251 251 251 251 251 251 251 251 251 251 251 251 251 251 251 251 251 251 251 
251 251 251 251 251 251 251 251 251 255 252 1 4 0 15 0 9 0 0 0 0 0 0 0 0 0 0 0 
0 0 0 0 0 0 0 0 0 0 0 0 0 0 0 0 0 0 0 0 0 0 0 0 0 0 0 6 9 5 0 0 2 0 1 9 0 1 0 
240 254 251 251 251 251 251 251 251 251 251 251 251 251 251 251 251 251 251 
251 251 251 251 251 251 251 251 251 251 251 251 251 251 251 251 251 251 251 
251 251 251 251 251 251 251 251 251 251 251 251 240 0 0 5 13 0 12 5 0 0 0 0 0 
0 0 0 0 0 0 0 0 0 0 0 0 0 0 0 0 0 0 0 0 0 0 0 0 0 0 0 0 0 0 0 9 0 0 2 0 0 10 
0 7 0 0 0 14 0 7 250 251 251 251 251 251 251 251 251 251 251 251 251 251 251 
251 251 251 251 251 251 251 251 251 251 251 251 251 251 251 251 251 251 251 
251 251 251 251 251 251 251 251 251 251 251 251 251 251 251 0 10 0 9 0 7 0 0 0 
0 0 0 0 0 0 0 0 0 0 0 0 0 0 0 0 0 0 0 0 0 0 0 0 0 0 0 0 0 0 0 0 0 0 0 0 0 0 0 
0 0 0 0 0 0 0 0 0 0 0 0 2 250 253 252 250 245 250 255 247 255 248 251 251 244 
255 245 248 255 255 254 240 240 255 252 252 255 240 240 254 255 255 248 249 
255 237 251 255 251 249 254 244 255 249 250 255 244 8 3 0 0 0 0 0 0 0 0 0 0 0 
0 0 0 0 0 0 0 0 0 0 0 0 0 0 0 0 0 0 0 0 0 0 0 0 0 0 0 0 0 0 0 0 0 0 0 0 0 0 0 
0 0 0 0 0 0 0 0 0 0 0 9 0 246 255 255 247 248 247 251 245 255 236 255 241 255 
255 241 239 255 255 253 247 244 244 247 253 255 255 239 241 255 255 238 255 
232 248 233 246 252 255 255 245 245 255 3 0 0 0 0 0 0 0 0 0 0 0 0 0 0 0 0 0 0 
0 0 0 0 0 0 0 0 0 0 0 0 0 0 0 0 0 0 0 0 0 0 0 0 0 0 0 0 0 0 0 0 0 0 0 0 0 0 0 
0 0 0 0 0 1 0 0 11 0 248 255 244 250 250 255 234 240 255 244 248 254 242 255 
252 228 245 255 248 248 255 245 228 252 255 242 254 247 241 244 255 242 255 
255 243 244 232 255 0 0 12 0 7 0 0 0 0 0 0 0 0 0 0 0 0 0 0 0 0 0 0 0 0 0 0 0 0 
0 0 0 0 0 0 0 0 0 0 0 0 0 0 0 0 0 0 0 0 0 0 0 0 0 0 0 0 0 0 0 0 0 0 0 0 2 0 14 
0 0 5 0 250 255 242 247 255 255 251 255 242 247 255 248 245 255 255 221 255 
255 221 255 255 245 248 255 247 255 255 243 250 254 247 245 255 9 3 1 0 5 0 0 
1 0 0 0 0 0 0 0 0 0 0 0 0 0 0 0 0 0 0 0 0 0 0 0 0 0 0 0 0 0 0 0 0 0 0 0 0 0 0 
0 0 0 0 0 0 0 0 0 0 0 0 0 0 0 0 0 0 0 0 0 0 0 0 5 3 2 2 10 0 0 0 3 251 248 236 
255 255 244 247 255 243 241 255 254 255 255 254 255 241 243 255 247 244 240 
250 251 248 245 255 0 0 0 0 1 0 9 2 9 0 0 0 0 0 0 0 0 0 0 0 0 0 0 0 0 0 0 0 0 
0 0 0 0 0 0 0 0 0 0 0 0 0 0 0 0 0 0 0 0 0 0 0 0 0 0 0 0 0 0 0 0 0 0 0 0 0 0 0 
0 0 8 17 0 0 2 0 0 14 0 9 0 0 8 23 0 255 255 235 255 255 244 255 248 243 243 
248 255 244 255 255 235 255 255 0 3 5 11 0 0 12 0 8 9 0 0 6 11 0 0 0 0 0 0 0 0 
0 0 0 0 0 0 0 0 0 0 0 0 0 0 0 0 0 0 0 0 0 0 0 0 0 0 0 0 0 0 0 0 0 0 0 0 0 0 0 
0 0 0 0 0 0 0 0 0 0 0 0 0 0 0 0 8 5 0 15 0 0 0 6 0 9 18 0 8 0 0 4 0 0 17 0 16 
247 247 16 0 17 0 0 4 0 0 10 1 0 10 0 0 1 6 0 0 14 0 8 0 4 0 0 0 0 0 0 0 0 0 0 
0 0 0 0 0 0 0 0 0 0 0 0 0 0 0 0 0 0 0 0 0 0 0 0 0 0 0 0 0 0 0 0 0 0 0 0 0 0 0 
0 0 0 0 0 0 0 0 0 0 0 5 0 0 8 3 0 19 0 0 1 0 0 0 5 8 0 11 0 7 0 0 8 0 7 7 0 8 
0 0 7 0 11 1 0 7 0 0 6 0 4 0 4 0 0 6 0 11 0 0 0 0 0 0 0 0 0 0 0 0 0 0 0 0 0 0 
0 0 0 0 0 0 0 0 0 0 0 0 0 0 0 0 0 0 0 0 0 0 0 0 0 0 0 0 0 0 0 0 0 0 0 0 0 0 0 
0 0 0 0 0 0 0 0 0 0 0 0 0 0 0 0 0 0 0 0 0 0 0 0 0 0 0 0 0 0 0 0 0 0 0 0 0 0 0 
0 0 0 0 0 0 0 0 0 0 0 0 0 0 0 0 0 0 0 0 0 0 0 0 0 0 0 0 0 0 0 0 0 0 0 0 0 0 0 
0 0 0 0 0 0 0 0 0 0 0 0 0 0 0 0 0 0 0 0 0 0 0 0 0 0 0 0 0 0 0 0 0 0 0 0 0 0 0 
0 0 0 0 0 0 0 0 0 0 0 0 0 0 0 0 0 0 0 0 0 0 0 0 0 0 0 0 0 0 0 0 0 0 0 0 0 0 0 
0 0 0 0 0 0 0 0 0 0 0 0 0 0 0 0 0 0 0 0 0 0 0 0 0 0 0 0 0 0 0 0 0 0 0 0 0 0 0 
0 0 0 0 0 0 0 0 0 0 0 0 0 0 0 0 0 0 0 0 0 0 0 0 0 0 0 0 0 0 0 0 0 0 0 0 0 0 0 
0 0 0 0 0 0 0 0 0 0 0 0 0 0 0 0 0 0 0 0 0 0 0 0 0 0 0 0 0 0 0 0 0 0 0 0 0 0 0 
0 0 0 0 0 0 0 0 0 0 0 0 0 0 0 0 0 0 0 0 0 0 0 0 0 0 0 0 0 0 0 0 0 0 0 0 0 0 0 
0 0 0 0 0 0 0 0 0 0 0 0 0 0 0 0 0 0 0 0 0 0 0 0 0 0 0 0 0 0 0 0 0 0 0 0 0 0 0 
0 0 0 0 0 0 0 0 0 0 0 0 0 0 0 0 0 0 0 0 0 0 0 0 0 0 0 0 0 0 0 0 0 0 0 0 0 0 0 
0 0 0 0 0 0 0 0 0 0 0 0 0 0 0 0 0 0 0 0 0 0 0 0 0 0 0 0 0 0 0 0 0 0 0 0 0 0 0 
0 0 0 0 0 0 0 0 0 0 0 0 0 0 0 0 0 0 0 0 0 0 0 0 0 0 0 0 0 0 0 0 0 0 0 0 0 0 0 
0 0 0 0 0 0 0 0 0 0 0 0 0 0 0 0 0 0 0 0 0 0 0 0 0 0 0 0 0 0 0 0 0 0 0 0 0 0 0 
0 0 0 0 0 0 0 0 0 0 0 0 0 0 0 0 0 0 0 0 0 0 0 0 0 0 0 0 0 0 0 0 0 0 0 0 0 0 0 
0 0 0 0 0 0 0 0 0 0 0 0 0 0 0 0 0 0 0 0 0 0 0 0 0 0 0 0 0 0 0 0 0 0 0 0 0 0 0 
0 0 0 0 0 0 0 0 0 0 0 0 0 0 0 0 0 0 0 0 0 0 0 0 0 0 0 0 0 0 0 0 0 0 0 0 0 0 0 
0 0 0 0 0 0 0 0 0 0 0 0 0 0 0 0 0 0 0 0 0 0 0 0 0 0 0 0 0 0 0 0 0 0 0 0 0 0 0 
0 0 0 0 0 0 0 0 0 0 0 0 0 0 0 0 0 0 0 0 0 0 0 0 0 0 0 0 0 0 0 0 0 0 0 0 0 0 0 
0 0 0 0 0 0 0 0 0 0 0 0 0 0 0 0 0 0 0 0 0 0 0 0 0 0 0 0 0 0 0 0 0 0 0 0 0 0 0 
0 0 0 0 0 0 0 0 0 0 0 0 0 0 0 0 0 0 0 0 0 0 0 0 0 0 0 0 0 0 0 0 0 0 0 0 0 0 0 
0 0 0 0 0 0 0 0 0 0 0 0 0 0 0 0 0 0 0 0 0 0 0 0 0 0 0 0 0 0 0 0 0 0 0 0 0 0 0 
0 0 0 0 0 0 0 0 0 0 0 0 0 0 0 0 0 0 0 0 0 0 0 0 0 0 0 0 0 0 0 0 0 0 0 0 0 0 0 
0 0 0 0 0 0 0 0 0 0 0 0 0 0 0 0 0 0 0 0 0 0 0 0 0 0 0 0 0 0 0 0 0 0 0 0 0 0 0 
0 0 0 0 0 0 0 0 0 0 0 0 0 0 0 0 0 0 0 0 0 0 0 0 0 0 0 0 0 0 0 0 0 0 0 0 0 0 0 
0 0 0 0 0 0 0 0 0 0 0 0 0 0 0 0 0 0 0 0 0 0 0 0 0 0 0 0 0 0 0 0 0 0 0 0 0 0 0 
0 0 0 0 0 0 0 0 0 0 0 0 0 0 0 0 0 0 0 0 0 0 0 0 0 0 0 0 0 0 0 0 0 0 0 0 0 0 0 
0 0 0 0 0 0 0 0 0 0 0 0 0 0 0 0 0 0 0 0 0 0 0 0 0 0 0 0 0 0 0 0 0 0 0 0 0 0 0 
0 0 0 0 0 0 0 0 0 0 0 0 0 0 0 0 0 0 0 0 0 0 0 0 0 0 0 0 0 0 0 0 0 0 0 0 0 0 0 
0 0 0 0 0 0 0 0 0 0 0 0 0 0 0 0 0 0 0 0 0 0 0 0 0 0 0 0 0 0 0 0 0 0 0 0 0 0 0 
0 0 0 0 0 0 0 0 0 0 0 0 0 0 0 0 0 0 0 0 0 0 0 0 0 0 0 0 0 0 0 0 0 0 0 0 0 0 0 
0 0 0 0 0 0 0 0 0 0 0 0 0 0 0 0 0 0 0 0 0 0 0 0 0 0 0 0 0 0 0 0 0 0 0 0 0 0 0 
0 0 0 0 0 0 0 0 0 0 0 0 0 0 0 0 0 0 0 0 0 0 0 0 0 0 0 0 0 0 0 0 0 0 0 0 0 0 0 
0 0 0 0 0 0 0 0 0 0 0 0 0 0 0 0 0 0 0 0 0 0 0 0 0 0 0 0 0 0 0 0 0 0 0 0 0 0 0 
0 0 0 0 0 0 0 0 0 0 0 0 0 0 0 0 0 0 0 0 0 0 0 0 0 0 0 0 0 0 0 0 0 0 0 0 0 0 0 
0 0 0 0 0 0 0 0 0 0 0 0 0 0 0 0 0 0 0 0 0 0 0 0 0 0 0 0 0 0 0 0 0 0 0 0 0 0 0 
0 0 0 0 0 0 0 0 0 0 0 
