P2
108 117
255
0 0 0 0 0 0 0 0 0 0 0 0 0 0 0 0 0 0 0 0 0 0 0 0 0 0 0 0 0 0 0 0 0 0 0 0 0 0 0 
0 0 0 0 0 0 0 0 0 0 0 0 0 0 0 0 0 0 0 0 0 0 0 0 0 0 0 0 0 0 0 0 0 0 0 0 0 0 0 
0 0 0 0 0 0 0 0 0 0 0 0 0 0 0 0 0 0 0 0 0 0 0 0 0 0 0 0 0 0 0 0 0 0 0 0 0 0 0 
0 0 0 0 0 0 0 0 0 0 0 0 0 0 0 0 0 0 0 0 0 0 0 0 0 0 0 0 0 0 0 0 0 0 0 0 0 0 0 
0 0 0 0 0 0 0 0 0 0 0 0 0 0 0 0 0 0 0 0 0 0 0 0 0 0 0 0 0 0 0 0 0 0 0 0 0 0 0 
0 0 0 0 0 0 0 0 0 0 0 0 0 0 0 0 0 0 0 0 0 0 0 0 0 0 0 0 0 0 0 0 0 0 0 0 0 0 0 
0 0 0 0 0 0 0 0 0 0 0 0 0 0 0 0 0 0 0 0 0 0 0 0 0 0 0 0 0 0 0 0 0 0 0 0 0 0 0 
0 0 0 0 0 0 0 0 0 0 0 0 0 0 0 0 0 0 0 0 0 0 0 0 0 0 0 0 0 0 0 0 0 0 0 0 0 0 0 
0 0 0 0 0 0 0 0 0 0 0 0 0 0 0 0 0 0 0 0 0 0 0 0 0 0 0 0 0 0 0 0 0 0 0 0 0 0 0 
0 0 0 0 0 0 0 0 0 0 0 0 0 0 0 0 0 0 0 0 0 0 0 0 0 0 0 0 0 0 0 0 0 0 0 0 0 0 0 
0 0 0 0 0 0 0 0 0 0 0 0 0 0 0 0 0 0 0 0 0 0 0 0 0 0 0 0 0 0 0 0 0 0 0 0 0 0 0 
0 0 0 0 0 0 0 0 0 0 0 0 0 0 0 0 0 0 0 0 0 0 0 0 0 0 0 0 0 0 0 0 0 0 0 0 0 0 0 
0 0 0 0 0 0 0 0 0 0 0 0 0 0 0 0 0 0 0 0 0 0 0 0 0 0 0 0 0 0 0 0 0 0 0 0 0 0 0 
0 0 0 0 0 0 0 0 0 0 0 0 0 0 0 0 0 0 0 0 0 0 0 0 0 0 0 0 0 0 0 0 0 0 0 0 0 0 0 
0 0 0 0 0 0 0 0 0 0 0 0 0 0 0 0 0 0 0 0 0 0 0 0 0 0 0 0 0 0 0 0 0 0 0 0 0 0 0 
0 0 0 0 0 0 0 0 0 0 0 0 0 0 0 0 0 0 0 0 0 0 0 0 0 0 0 0 0 0 0 0 0 0 0 0 0 0 0 
0 0 0 0 0 0 0 0 0 0 0 0 0 0 0 0 0 0 0 0 0 0 0 0 0 0 0 0 0 0 0 0 0 0 0 0 0 0 0 
0 0 0 0 0 0 0 0 0 0 0 0 0 0 0 0 0 0 0 0 0 0 0 0 0 0 0 0 0 0 0 0 0 0 0 0 0 0 0 
0 0 0 0 0 0 0 0 0 0 0 0 0 0 0 0 0 0 0 0 0 0 0 0 0 0 0 0 0 0 0 0 0 0 0 0 0 0 0 
0 0 0 0 0 0 0 0 0 0 0 0 0 0 0 0 0 0 0 0 0 0 0 0 0 0 0 0 0 0 0 0 0 0 0 0 0 0 0 
0 0 0 0 0 0 0 0 0 0 0 0 0 0 0 0 0 0 0 0 0 0 0 0 0 0 0 0 0 0 0 0 0 0 0 0 0 0 0 
0 0 0 0 0 0 0 0 0 0 0 0 0 0 0 0 0 0 0 0 0 0 0 0 0 0 0 0 0 0 0 0 0 0 0 0 0 0 0 
0 0 0 0 0 0 0 0 0 0 0 0 0 0 0 0 0 0 0 0 0 0 0 0 0 0 0 0 0 0 0 0 0 0 0 0 0 0 0 
0 0 0 0 0 0 0 3 0 0 8 0 13 0 0 0 2 0 0 0 0 2 0 0 0 13 0 8 0 0 3 0 0 0 0 0 0 0 
0 0 0 0 0 0 0 0 0 0 0 0 0 0 0 0 0 0 0 0 0 0 0 0 0 0 0 0 0 0 0 0 0 0 0 0 0 0 0 
0 0 0 0 0 0 0 0 0 0 0 0 0 0 0 0 0 0 0 0 0 0 0 0 0 0 0 0 0 0 0 0 0 0 0 0 0 0 8 
0 0 4 1 0 9 14 1 0 0 10 10 0 0 1 14 9 0 1 4 0 0 8 0 0 0 0 0 0 0 0 0 0 0 0 0 0 
0 0 0 0 0 0 0 0 0 0 0 0 0 0 0 0 0 0 0 0 0 0 0 0 0 0 0 0 0 0 0 0 0 0 0 0 0 0 0 
0 0 0 0 0 0 0 0 0 0 0 0 0 0 0 0 0 0 0 0 0 0 0 0 0 0 0 0 0 0 0 0 6 5 10 0 0 9 0 
0 10 0 0 0 0 10 0 0 9 0 0 10 5 6 0 0 0 0 0 0 0 0 0 0 0 0 0 0 0 0 0 0 0 0 0 0 0 
0 0 0 0 0 0 0 0 0 0 0 0 0 0 0 0 0 0 0 0 0 0 0 0 0 0 0 0 0 0 0 0 0 0 0 0 0 0 0 
0 0 0 0 0 0 0 0 0 0 0 0 0 0 0 0 0 0 0 0 0 0 0 2 3 0 2 0 12 7 2 0 0 17 0 0 17 
0 0 2 7 12 0 2 0 3 2 0 0 0 0 0 0 0 0 0 0 0 0 0 0 0 0 0 0 0 0 0 0 0 0 0 0 0 0 0 
0 0 0 0 0 0 0 0 0 0 0 0 0 0 0 0 0 0 0 0 0 0 0 0 0 0 0 0 0 0 0 0 0 0 0 0 0 0 0 
0 0 0 0 0 0 0 0 0 0 0 0 0 0 0 0 17 0 0 11 0 3 0 7 3 0 0 0 0 0 0 3 7 0 3 0 11 
0 0 17 0 0 0 0 0 0 0 0 0 0 0 0 0 0 0 0 0 0 0 0 0 0 0 0 0 0 0 0 0 0 0 0 0 0 0 0 
0 0 0 0 0 0 0 0 0 0 0 0 0 0 0 0 0 0 0 0 0 0 0 0 0 0 0 0 0 0 0 0 0 0 0 0 0 0 0 
0 0 0 0 0 0 0 0 0 0 0 15 0 0 0 5 1 3 0 15 0 0 15 0 3 1 5 0 0 0 15 0 0 0 0 0 0 
0 0 0 0 0 0 0 0 0 0 0 0 0 0 0 0 0 0 0 0 0 0 0 0 0 0 0 0 0 0 0 0 0 0 0 0 0 0 0 
0 0 0 0 0 0 0 0 0 0 0 0 0 0 0 0 0 0 0 0 0 0 0 0 0 0 0 0 0 0 0 0 0 0 0 0 0 0 0 
0 0 10 19 0 16 1 0 10 0 1 4 0 255 255 0 4 1 0 10 0 1 16 0 19 10 0 0 0 0 0 0 0 
0 0 0 0 0 0 0 0 0 0 0 0 0 0 0 0 0 0 0 0 0 0 0 0 0 0 0 0 0 0 0 0 0 0 0 0 0 0 0 
0 0 0 0 0 0 0 0 0 0 0 0 0 0 0 0 0 0 0 0 0 0 0 0 0 0 0 0 0 0 0 0 0 0 0 0 0 0 0 
12 0 241 255 253 246 255 250 247 255 249 249 255 247 250 255 246 253 255 241 
0 12 0 0 0 0 0 0 0 0 0 0 0 0 0 0 0 0 0 0 0 0 0 0 0 0 0 0 0 0 0 0 0 0 0 0 0 0 0 
0 0 0 0 0 0 0 0 0 0 0 0 0 0 0 0 0 0 0 0 0 0 0 0 0 0 0 0 0 0 0 0 4 0 2 0 8 5 0 
0 0 12 5 1 17 0 247 251 251 251 251 251 251 251 251 251 251 251 251 251 251 
251 251 251 251 251 251 251 251 251 251 251 255 0 4 0 10 2 0 9 1 0 21 0 1 1 0 
13 0 0 0 0 0 0 0 0 0 0 0 0 0 0 0 0 0 0 0 0 0 0 0 0 0 0 0 0 0 0 0 0 0 0 0 0 0 0 
0 0 0 0 0 0 0 0 0 0 0 0 0 0 4 13 4 4 0 0 16 0 12 0 0 0 248 255 255 255 251 251 
251 251 251 251 251 251 251 251 251 251 251 251 251 251 251 251 251 251 251 
251 251 251 242 255 247 253 255 0 0 0 0 20 0 3 0 17 15 0 0 0 0 0 0 0 0 0 0 0 0 
0 0 0 0 0 0 0 0 0 0 0 0 0 0 0 0 0 0 0 0 0 0 0 0 0 0 0 0 0 0 0 0 0 0 0 0 0 0 0 
0 0 0 0 0 2 0 12 0 19 0 255 253 255 251 236 255 234 251 251 251 251 251 251 
251 251 251 251 251 251 251 251 251 251 251 251 251 251 251 251 251 251 255 
251 255 248 243 236 255 7 0 0 10 0 11 0 0 6 0 0 0 0 0 0 0 0 0 0 0 0 0 0 0 0 0 
0 0 0 0 0 0 0 0 0 0 0 0 0 0 0 0 0 0 0 0 0 0 0 0 0 0 0 0 0 0 0 0 0 0 0 7 12 1 10 
0 0 9 241 255 236 255 240 252 255 236 255 251 251 251 251 251 251 251 251 251 
251 251 251 251 251 251 251 251 251 251 251 251 251 251 251 245 247 248 255 
251 255 255 251 255 5 0 0 0 14 0 14 0 0 0 0 0 0 0 0 0 0 0 0 0 0 0 0 0 0 0 0 0 
0 0 0 0 0 0 0 0 0 0 0 0 0 0 0 0 0 0 0 0 0 0 0 0 0 0 0 0 0 0 0 1 0 8 0 11 5 255 
248 233 255 249 238 255 251 255 253 251 251 251 251 251 251 251 251 251 251 
251 251 251 251 251 251 251 251 251 251 251 251 251 251 245 255 238 255 242 
241 244 241 255 234 255 0 0 0 0 0 0 0 0 0 0 0 0 0 0 0 0 0 0 0 0 0 0 0 0 0 0 0 
0 0 0 0 0 0 0 0 0 0 0 0 0 0 0 0 0 0 0 0 0 0 0 0 0 0 0 0 0 0 0 33 0 0 254 248 
239 255 253 255 248 255 250 255 234 254 251 251 251 251 251 251 251 251 251 
251 251 251 251 251 251 251 251 251 251 251 251 251 251 251 255 252 238 255 
255 239 255 255 239 244 245 255 255 9 2 9 0 0 0 0 0 0 0 0 0 0 0 0 0 0 0 0 0 0 
0 0 0 0 0 0 0 0 0 0 0 0 0 0 0 0 0 0 0 0 0 0 0 0 0 0 0 0 0 0 0 0 0 0 8 8 0 251 
255 248 255 247 253 226 255 243 250 244 255 251 251 251 251 251 251 251 251 
251 251 251 251 251 251 251 251 251 251 251 251 251 251 251 251 251 252 241 
255 247 237 247 251 241 255 255 239 253 248 246 0 2 0 0 0 0 0 0 0 0 0 0 0 0 0 
0 0 0 0 0 0 0 0 0 0 0 0 0 0 0 0 0 0 0 0 0 0 0 0 0 0 0 0 0 0 0 0 0 0 0 0 0 0 0 
4 0 255 250 248 248 255 253 248 255 238 255 241 255 251 248 251 251 251 251 
251 251 251 251 251 251 251 251 251 251 251 251 251 251 251 251 251 251 251 
251 250 255 234 255 255 255 244 255 247 247 248 250 254 246 255 246 0 0 0 0 0 
0 0 0 0 0 0 0 0 0 0 0 0 0 0 0 0 0 0 0 0 0 0 0 0 0 0 0 0 0 0 0 0 0 0 0 0 0 0 0 
0 12 0 4 8 4 0 0 10 238 254 247 255 237 255 243 251 251 251 251 251 251 251 
251 251 251 251 251 251 251 251 251 251 251 251 251 251 251 251 251 251 251 
251 251 251 251 251 251 251 251 251 251 251 251 251 251 251 251 251 251 251 
251 251 251 253 0 4 3 3 0 5 0 0 0 0 0 0 0 0 0 0 0 0 0 0 0 0 0 0 0 0 0 0 0 0 0 
0 0 0 0 0 0 0 0 0 0 0 0 5 0 0 7 0 14 9 2 236 255 246 250 255 234 251 255 251 
251 251 251 251 251 251 251 251 251 251 251 251 251 251 251 251 251 251 251 
251 251 251 251 251 251 251 251 251 251 251 251 251 251 251 251 251 251 251 
251 251 251 251 251 251 251 251 251 243 255 0 0 2 0 6 1 0 0 0 0 0 0 0 0 0 0 0 
0 0 0 0 0 0 0 0 0 0 0 0 0 0 0 0 0 0 0 0 0 0 0 0 0 6 3 26 0 19 0 0 249 255 238 
251 255 250 255 249 243 251 251 251 251 251 251 251 251 251 251 251 251 251 
251 251 251 251 251 251 251 251 251 251 251 251 251 251 251 251 251 251 251 
251 251 251 251 251 251 251 251 251 251 251 251 251 251 251 251 253 236 247 
9 0 0 2 0 0 0 0 0 0 0 0 0 0 0 0 0 0 0 0 0 0 0 0 0 0 0 0 0 0 0 0 0 0 0 0 0 0 0 
0 0 0 0 0 6 2 0 253 247 246 242 255 249 232 255 255 248 251 251 251 251 251 
251 251 251 251 251 251 251 251 251 251 251 251 251 251 251 251 251 251 251 
251 251 251 251 251 251 251 251 251 251 251 251 251 251 251 251 251 251 251 
251 251 251 251 251 253 255 249 255 0 5 5 5 0 0 0 0 0 0 0 0 0 0 0 0 0 0 0 0 0 
0 0 0 0 0 0 0 0 0 0 0 0 0 0 0 0 0 0 0 16 0 1 0 0 255 231 255 255 255 248 250 
253 249 249 255 251 251 251 251 251 251 251 251 251 251 251 251 251 251 251 
251 251 251 251 251 251 251 251 251 251 251 251 251 251 251 251 251 251 251 
251 251 251 251 251 251 251 251 251 251 251 251 251 251 255 255 244 255 229 
22 0 0 0 0 0 0 0 0 0 0 0 0 0 0 0 0 0 0 0 0 0 0 0 0 0 0 0 0 0 0 0 0 0 0 0 0 0 0 
0 11 10 2 252 255 249 249 234 252 237 252 255 245 246 252 251 251 251 251 251 
251 251 251 251 251 251 251 251 251 251 251 251 251 251 251 251 251 251 251 
251 251 251 251 251 251 251 251 251 251 251 251 251 251 251 251 251 251 251 
251 251 251 251 251 236 245 255 243 255 236 8 3 0 0 0 0 0 0 0 0 0 0 0 0 0 0 0 
0 0 0 0 0 0 0 0 0 0 0 0 0 0 0 0 0 0 0 0 0 14 0 0 8 255 247 237 255 248 255 255 
245 241 244 255 255 251 251 251 251 251 251 251 251 251 251 251 251 251 251 
251 251 251 251 251 251 251 251 251 251 251 251 251 251 251 251 251 251 251 
251 251 251 251 251 251 251 251 251 251 251 251 251 251 251 242 255 248 245 
248 255 240 3 0 0 0 0 0 0 0 0 0 0 0 0 0 0 0 0 0 0 0 0 0 0 0 0 0 0 0 0 0 0 0 0 
0 0 0 0 0 9 0 255 241 255 255 244 252 240 253 255 248 255 253 241 251 251 251 
251 251 251 251 251 251 251 251 251 251 251 251 251 251 251 251 251 251 251 
251 251 251 251 251 251 251 251 251 251 251 251 251 251 251 251 251 251 251 
251 251 251 251 251 251 251 254 245 244 255 242 251 251 0 0 0 0 0 0 0 0 0 0 0 
0 0 0 0 0 0 0 0 0 0 0 0 0 0 0 0 0 0 10 0 0 3 0 0 11 0 0 1 240 255 255 237 255 
246 251 251 251 251 251 251 251 251 251 251 251 251 251 251 251 251 248 255 
254 240 250 255 237 255 242 255 255 245 253 243 252 248 255 252 249 254 253 
245 253 253 250 249 255 255 239 246 255 245 251 251 251 251 251 251 251 251 
251 251 251 251 251 251 251 251 8 0 1 0 0 17 0 1 0 0 0 0 0 0 0 0 0 0 0 0 0 0 0 
0 0 0 0 0 0 0 7 10 6 0 0 3 5 0 255 255 223 255 248 251 251 251 251 251 251 251 
251 251 251 251 251 251 251 251 251 251 252 252 242 255 255 249 255 252 255 
255 234 249 255 255 246 250 234 255 238 255 231 251 251 247 248 255 236 250 
255 252 234 250 251 251 251 251 251 251 251 251 251 251 251 251 251 251 251 
251 233 22 0 11 14 0 10 1 0 0 0 0 0 0 0 0 0 0 0 0 0 0 0 0 0 0 0 0 0 5 6 0 0 14 
0 17 0 255 253 241 255 244 238 255 251 251 251 251 251 251 251 251 251 251 251 
251 251 251 251 251 251 235 255 240 250 241 255 243 243 247 255 243 245 253 
239 255 255 255 249 255 255 244 254 254 251 255 255 252 227 253 252 255 251 
251 251 251 251 251 251 251 251 251 251 251 251 251 251 251 252 255 1 0 0 7 0 
0 0 0 0 0 0 0 0 0 0 0 0 0 0 0 0 0 0 0 0 0 0 2 2 0 1 3 0 0 1 255 244 246 253 
255 242 245 251 251 251 251 251 251 251 251 251 251 251 251 251 251 251 251 
255 247 253 255 255 255 248 251 255 247 255 0 7 0 33 0 255 237 253 244 241 255 
255 240 247 246 244 250 255 255 233 254 251 251 251 251 251 251 251 251 251 
251 251 251 251 251 251 251 252 253 0 0 7 8 2 15 0 0 0 0 0 0 0 0 0 0 0 0 0 0 0 
0 0 0 0 0 3 0 0 19 2 0 9 5 251 247 255 255 225 255 242 255 251 251 251 251 251 
251 251 251 251 251 251 251 251 251 251 251 247 255 255 247 234 0 0 4 9 0 10 
7 0 10 0 15 0 0 5 13 10 238 255 255 255 239 255 250 238 242 255 248 251 251 
251 251 251 251 251 251 251 251 251 251 251 251 251 251 250 252 255 2 0 0 22 
0 0 0 0 0 0 0 0 0 0 0 0 0 0 0 0 0 0 0 0 0 8 2 0 1 0 0 13 0 254 255 230 255 255 
249 242 245 251 251 251 251 251 251 251 251 251 251 251 251 251 251 251 251 
246 255 237 0 21 0 3 3 0 0 6 0 5 18 0 0 0 24 0 0 6 12 0 255 247 254 248 255 
255 246 255 252 251 251 251 251 251 251 251 251 251 251 251 251 251 251 251 
251 255 247 239 9 0 0 0 17 0 0 0 0 0 0 0 0 0 0 0 0 0 0 0 0 0 0 0 0 0 0 17 0 1 
5 0 15 249 240 255 247 238 253 252 254 251 251 251 251 251 251 251 251 251 251 
251 251 251 251 251 251 254 246 15 4 0 2 15 0 9 5 0 0 0 0 0 13 8 0 14 0 9 0 0 
7 0 255 255 232 251 255 234 255 251 251 251 251 251 251 251 251 251 251 251 
251 251 251 251 251 238 255 250 245 7 12 0 0 0 0 0 0 0 0 0 0 0 0 0 0 0 0 0 0 0 
0 0 0 8 0 14 0 4 0 13 241 250 251 255 246 255 255 233 255 251 251 251 251 251 
251 251 251 251 251 251 251 251 251 251 251 2 1 0 0 9 0 0 8 0 2 7 0 16 0 6 0 0 
7 0 0 0 5 14 0 7 0 0 244 255 247 244 255 251 251 251 251 251 251 251 251 251 
251 251 251 251 251 251 251 255 235 252 255 0 5 2 2 0 0 0 0 0 0 0 0 0 0 0 0 0 
0 0 0 0 0 0 0 0 8 0 0 0 2 1 252 251 251 251 251 251 251 251 251 251 251 251 
251 251 251 251 251 246 248 252 238 255 252 241 6 0 0 0 0 0 0 0 0 0 0 0 0 0 0 
0 0 0 0 0 0 0 0 0 0 0 9 4 10 241 248 250 250 252 255 244 255 243 246 254 249 
251 251 251 251 251 251 251 251 250 249 249 255 252 0 12 2 0 0 0 0 0 0 0 0 0 0 
0 0 0 0 0 0 0 0 0 0 0 0 0 13 0 1 0 249 251 251 251 251 251 251 251 251 251 251 
251 251 251 251 251 251 255 255 249 255 229 255 0 0 0 0 0 0 0 0 0 0 0 0 0 0 0 
0 0 0 0 0 0 0 0 0 0 0 12 0 1 6 2 245 255 241 235 253 250 254 250 251 250 255 
251 251 251 251 251 251 251 251 253 238 255 255 239 15 0 0 0 0 0 0 0 0 0 0 0 0 
0 0 0 0 0 0 0 0 0 0 2 0 7 0 0 2 255 250 251 251 251 251 251 251 251 251 251 
251 251 251 251 251 251 251 235 242 253 245 255 4 1 1 0 0 0 0 0 0 0 0 0 0 0 0 
0 0 0 0 0 0 0 0 0 0 0 0 0 19 6 0 10 0 251 249 255 255 248 237 253 255 247 251 
251 251 251 251 251 251 251 251 255 250 254 246 255 231 5 19 0 0 0 0 0 0 0 0 0 
0 0 0 0 0 0 0 0 0 0 0 2 0 3 3 3 0 236 255 251 251 251 251 251 251 251 251 251 
251 251 251 251 251 251 251 255 255 241 255 242 0 13 0 0 0 0 0 0 0 0 0 0 0 0 0 
0 0 0 0 0 0 0 0 0 0 0 0 9 0 0 1 10 0 0 255 237 231 255 255 250 245 244 253 251 
251 251 251 251 251 251 251 243 237 243 255 248 255 9 0 0 0 0 0 0 0 0 0 0 0 0 
0 0 0 0 0 0 0 0 0 0 6 0 0 5 22 250 251 251 251 251 251 251 251 251 251 251 251 
251 251 251 251 251 251 253 241 251 240 9 15 1 0 0 0 0 0 0 0 0 0 0 0 0 0 0 0 0 
0 0 0 0 0 0 0 0 0 2 0 14 0 0 1 2 253 255 243 249 255 246 255 255 248 251 251 
251 251 251 251 251 251 255 255 255 253 245 246 247 6 0 0 0 0 0 0 0 0 0 0 0 0 
0 0 0 0 0 0 0 0 6 0 7 13 0 0 242 255 251 251 251 251 251 251 251 251 251 251 
251 251 251 251 251 251 248 251 252 21 0 3 5 0 0 0 0 0 0 0 0 0 0 0 0 0 0 0 0 0 
0 0 0 0 0 0 0 0 5 0 4 12 0 16 0 0 230 255 242 253 242 255 255 244 251 251 251 
251 251 251 251 251 227 255 251 248 248 246 255 0 0 0 0 0 0 0 0 0 0 0 0 0 0 0 
0 0 0 0 0 0 0 12 0 0 18 255 245 252 251 251 251 251 251 251 251 251 251 251 
251 251 251 251 251 251 255 254 244 4 5 0 10 0 0 0 0 0 0 0 0 0 0 0 0 0 0 0 0 0 
0 0 0 0 0 0 0 0 0 12 0 0 0 0 23 5 23 227 255 255 242 245 241 255 251 251 251 
251 251 251 251 251 255 253 244 255 253 252 246 254 0 0 0 0 0 0 0 0 0 0 0 0 0 
0 0 0 0 0 0 0 5 0 6 12 0 237 255 252 251 251 251 251 251 251 251 251 251 251 
251 251 251 251 251 251 239 254 0 0 0 0 3 0 0 0 0 0 0 0 0 0 0 0 0 0 0 0 0 0 0 
0 0 0 0 0 0 0 0 0 0 8 5 3 0 0 0 255 246 242 248 255 242 255 251 251 251 251 
251 251 251 251 248 246 255 240 255 253 247 253 0 0 0 0 0 0 0 0 0 0 0 0 0 0 0 
0 0 0 0 0 5 0 0 7 0 246 255 244 251 251 251 251 251 251 251 251 251 251 251 
251 251 251 251 251 251 255 0 0 2 0 7 0 0 0 0 0 0 0 0 0 0 0 0 0 0 0 0 0 0 0 0 
0 0 0 0 0 0 0 0 0 0 0 0 0 2 4 254 255 246 254 240 255 251 251 251 251 251 251 
251 251 251 251 251 251 251 251 251 251 11 0 5 0 7 0 15 0 0 0 0 0 0 0 0 0 0 0 
0 0 0 0 0 0 26 244 248 251 251 251 251 251 251 251 251 251 251 251 251 251 251 
251 251 251 255 244 4 14 3 3 0 0 0 0 0 0 0 0 0 0 0 0 0 0 0 0 0 0 0 0 0 0 0 0 0 
0 0 0 0 0 0 0 0 0 3 0 255 235 255 255 242 237 251 251 251 251 251 251 251 251 
251 251 251 251 251 251 251 251 237 21 0 0 5 0 0 6 0 0 0 0 0 0 0 0 0 0 0 0 0 11 
0 0 0 255 239 255 251 251 251 251 251 251 251 251 251 251 251 251 251 251 251 
251 247 242 9 0 0 12 9 0 0 0 0 0 0 0 0 0 0 0 0 0 0 0 0 0 0 0 0 0 0 0 0 0 0 0 0 
0 0 0 0 0 0 0 255 255 242 255 238 255 251 251 251 251 251 251 251 251 251 251 
251 251 251 251 251 251 255 0 1 4 0 10 0 0 0 0 0 0 0 0 0 0 0 0 0 0 3 0 22 5 0 
246 255 244 251 251 251 251 251 251 251 251 251 251 251 251 251 251 251 251 
255 255 1 0 19 0 4 0 0 0 0 0 0 0 0 0 0 0 0 0 0 0 0 0 0 0 0 0 0 0 0 0 0 0 0 0 0 
0 0 0 2 0 9 238 253 252 255 220 251 251 251 251 251 251 251 251 251 251 251 
251 251 251 251 251 247 0 19 0 0 14 4 0 0 0 0 0 0 0 0 0 0 0 0 0 11 0 0 0 10 239 
250 251 251 251 251 251 251 251 251 251 251 251 251 251 251 251 251 251 245 
0 0 7 0 15 0 5 0 0 0 0 0 0 0 0 0 0 0 0 0 0 0 0 0 0 0 0 0 0 0 0 0 0 0 0 0 0 0 0 
8 1 0 255 246 255 252 255 251 251 251 251 251 251 251 251 251 251 251 251 251 
251 251 251 255 3 0 0 0 2 0 6 0 0 0 0 0 0 0 0 0 0 0 0 2 0 28 18 242 255 255 
239 251 251 251 251 251 251 251 251 251 251 251 251 251 251 251 251 255 11 0 4 
22 0 0 0 0 0 0 0 0 0 0 0 0 0 0 0 0 0 0 0 0 0 0 0 0 0 0 0 0 0 0 0 0 0 0 0 0 14 
0 255 253 235 255 249 251 251 251 251 251 251 251 251 251 251 251 251 251 251 
251 251 235 0 0 1 13 0 0 2 0 0 0 0 0 0 0 0 0 0 0 0 9 3 0 0 250 247 247 255 251 
251 251 251 251 251 251 251 251 251 251 251 251 251 251 251 246 10 0 0 0 0 3 0 
0 0 0 0 0 0 0 0 0 0 0 0 0 0 0 0 0 0 0 0 0 0 0 0 0 0 0 0 0 0 0 0 0 0 25 239 251 
255 237 252 251 251 251 251 251 251 251 251 251 251 251 251 251 251 251 251 
249 15 11 0 0 0 2 4 0 0 0 0 0 0 0 0 0 0 0 0 0 10 0 12 255 250 255 242 251 251 
251 251 251 251 251 251 251 251 251 251 251 251 251 251 250 0 5 6 0 8 0 2 0 0 
0 0 0 0 0 0 0 0 0 0 0 0 0 0 0 0 0 0 0 0 0 0 0 0 0 0 0 0 0 0 2 0 0 242 255 255 
252 251 251 251 251 251 251 251 251 251 251 251 251 251 251 251 251 251 253 
0 4 4 0 10 0 0 0 0 0 0 0 0 0 0 0 0 0 0 3 6 0 0 252 244 254 250 251 251 251 251 
251 251 251 251 251 251 251 251 251 251 251 251 241 13 0 4 0 14 0 8 0 0 0 0 0 
0 0 0 0 0 0 0 0 0 0 0 0 0 0 0 0 0 0 0 0 0 0 0 0 0 0 0 0 0 3 249 253 250 251 
251 251 251 251 251 251 251 251 251 251 251 251 251 251 251 251 251 251 1 0 1 
0 0 0 0 0 0 0 0 0 0 0 0 0 0 0 0 0 4 9 19 234 255 250 249 251 251 251 251 251 
251 251 251 251 251 251 251 251 251 251 251 15 0 5 1 0 17 0 0 0 0 0 0 0 0 0 0 
0 0 0 0 0 0 0 0 0 0 0 0 0 0 0 0 0 0 0 0 0 0 0 0 0 0 3 249 253 250 251 251 251 
251 251 251 251 251 251 251 251 251 251 251 251 251 251 251 251 1 0 1 0 0 0 0 
0 0 0 0 0 0 0 0 0 0 0 0 4 0 0 0 250 255 232 255 251 251 251 251 251 251 251 
251 251 251 251 251 251 251 251 251 0 13 0 0 1 0 2 8 0 0 0 0 0 0 0 0 0 0 0 0 0 
0 0 0 0 0 0 0 0 0 0 0 0 0 0 0 0 0 0 0 0 0 3 249 253 250 251 251 251 251 251 
251 251 251 251 251 251 251 251 251 251 251 251 251 251 1 0 1 0 0 0 0 0 0 0 0 
0 0 0 0 0 0 0 0 2 4 0 5 255 255 243 251 251 251 251 251 251 251 251 251 251 
251 251 251 251 251 251 251 5 9 0 2 19 0 0 3 0 0 0 0 0 0 0 0 0 0 0 0 0 0 0 0 0 
0 0 0 0 0 0 0 0 0 0 0 0 0 0 0 0 0 3 249 253 250 251 251 251 251 251 251 251 
251 251 251 251 251 251 251 251 251 251 251 251 1 0 1 0 0 0 0 0 0 0 0 0 0 0 0 
0 0 0 0 0 9 0 15 229 251 255 241 251 251 251 251 251 251 251 251 251 251 251 
251 251 251 251 251 0 0 3 1 0 2 2 0 0 0 0 0 0 0 0 0 0 0 0 0 0 0 0 0 0 0 0 0 0 
0 0 0 0 0 0 0 0 0 0 0 0 0 3 249 253 250 251 251 251 251 251 251 251 251 251 
251 251 251 251 251 251 251 251 251 251 1 0 1 0 0 0 0 0 0 0 0 0 0 0 0 0 0 0 0 
1 5 0 0 255 247 252 254 251 251 251 251 251 251 251 251 251 251 251 251 251 
251 251 251 17 0 14 0 0 6 5 0 0 0 0 0 0 0 0 0 0 0 0 0 0 0 0 0 0 0 0 0 0 0 0 0 
0 0 0 0 0 0 0 0 0 0 3 249 253 250 251 251 251 251 251 251 251 251 251 251 251 
251 251 251 251 251 251 251 251 1 0 1 0 0 0 0 0 0 0 0 0 0 0 0 0 0 0 0 5 0 9 1 
241 255 234 253 251 251 251 251 251 251 251 251 251 251 251 251 251 251 251 
251 3 0 0 6 10 7 0 0 0 0 0 0 0 0 0 0 0 0 0 0 0 0 0 0 0 0 0 0 0 0 0 0 0 0 0 0 0 
0 0 0 0 0 3 249 253 250 251 251 251 251 251 251 251 251 251 251 251 251 251 
251 251 251 251 251 251 1 0 1 0 0 0 0 0 0 0 0 0 0 0 0 0 0 0 0 6 0 5 9 0 254 
253 252 251 251 251 251 251 251 251 251 251 251 251 251 251 251 251 251 0 11 
0 0 3 0 0 10 0 0 0 0 0 0 0 0 0 0 0 0 0 0 0 0 0 0 0 0 0 0 0 0 0 0 0 0 0 0 0 0 0 
0 3 249 253 250 251 251 251 251 251 251 251 251 251 251 251 251 251 251 251 
251 251 251 251 1 0 1 0 0 0 0 0 0 0 0 0 0 0 0 0 0 0 0 5 0 6 2 0 255 240 255 
251 251 251 251 251 251 251 251 251 251 251 251 251 251 251 251 251 1 0 1 0 0 
0 0 0 0 0 0 0 0 0 0 0 0 0 0 0 0 0 0 0 0 0 0 0 0 0 0 0 0 0 0 0 0 0 0 5 0 0 255 
237 244 255 245 251 251 251 251 251 251 251 251 251 251 251 251 251 251 251 
251 255 0 5 9 3 0 9 0 0 0 0 0 0 0 0 0 0 0 0 0 0 5 5 0 14 218 255 245 251 251 
251 251 251 251 251 251 251 251 251 251 251 251 251 251 251 1 0 1 0 0 0 0 0 0 
0 0 0 0 0 0 0 0 0 0 0 0 0 0 0 0 0 0 0 0 0 0 0 0 0 0 0 0 0 0 6 1 255 224 255 
255 233 253 251 251 251 251 251 251 251 251 251 251 251 251 251 251 251 251 
228 24 0 0 9 6 10 0 0 0 0 0 0 0 0 0 0 0 0 0 0 0 0 0 0 255 240 255 251 251 251 
251 251 251 251 251 251 251 251 251 251 251 251 251 251 1 0 1 0 0 0 0 0 0 0 0 
0 0 0 0 0 0 0 0 0 0 0 0 0 0 0 0 0 0 0 0 0 0 0 0 0 0 0 0 0 0 252 255 237 241 
255 250 251 251 251 251 251 251 251 251 251 251 251 251 251 251 251 251 21 0 9 
0 9 0 0 7 0 0 0 0 0 0 0 0 0 0 0 0 0 7 9 0 1 233 246 246 251 251 251 251 251 
251 251 251 251 251 251 251 251 251 251 251 251 1 0 1 0 0 0 0 0 0 0 0 0 0 0 0 
0 0 0 0 0 0 0 0 0 0 0 0 0 0 0 0 0 0 0 0 0 0 0 0 10 2 255 234 253 255 255 236 
251 251 251 251 251 251 251 251 251 251 251 251 251 251 251 251 0 8 2 0 5 0 0 
3 0 0 0 0 0 0 0 0 0 0 0 0 1 5 0 0 14 255 255 246 251 251 251 251 251 251 251 
251 251 251 251 251 251 251 251 251 251 1 0 1 0 0 0 0 0 0 0 0 0 0 0 0 0 0 0 0 
0 0 0 0 0 0 0 0 0 0 0 0 0 0 0 0 0 0 0 0 1 0 243 251 255 232 251 255 251 251 
251 251 251 251 251 251 251 251 251 251 251 251 251 251 14 20 0 0 1 6 7 0 0 0 
0 0 0 0 0 0 0 0 0 0 12 0 0 3 0 238 250 255 251 251 251 251 251 251 251 251 251 
251 251 251 251 251 251 251 251 1 0 1 0 0 0 0 0 0 0 0 0 0 0 0 0 0 0 0 0 0 0 0 
0 0 0 0 0 0 0 0 0 0 0 0 0 0 0 0 0 255 252 254 255 253 246 247 251 251 251 251 
251 251 251 251 251 251 251 251 251 251 251 251 0 0 3 14 0 0 4 0 0 0 0 0 0 0 0 
0 0 0 0 0 0 14 10 5 0 15 252 235 251 251 251 251 251 251 251 251 251 251 251 
251 251 251 251 251 251 1 0 1 0 0 0 0 0 0 0 0 0 0 0 0 0 0 0 0 0 0 0 0 0 0 0 0 
0 0 0 0 0 0 0 0 0 0 0 0 9 255 243 242 249 243 255 255 251 251 251 251 251 251 
251 251 251 251 251 251 251 251 251 251 16 0 1 0 1 0 1 0 0 0 0 0 0 0 0 0 0 0 0 
0 3 0 0 13 0 0 255 254 251 251 251 251 251 251 251 251 251 251 251 251 251 251 
251 251 251 1 0 1 0 0 0 0 0 0 0 0 0 0 0 0 0 0 0 0 0 0 0 0 0 0 0 0 0 0 0 0 0 0 
0 0 0 0 0 0 1 235 255 253 255 248 255 249 251 251 251 251 251 251 251 251 251 
251 251 251 251 251 251 251 0 0 7 0 8 5 0 2 0 0 0 0 0 0 0 0 0 0 0 0 4 0 0 12 
3 0 255 252 251 251 251 251 251 251 251 251 251 251 251 251 251 251 251 251 
255 0 10 0 15 0 0 0 0 0 0 0 0 0 0 0 0 0 0 0 0 0 0 0 0 0 0 0 0 0 0 0 2 0 2 0 12 
0 1 0 10 238 254 247 255 237 255 243 251 251 251 251 251 251 251 251 246 245 
255 255 243 252 252 6 0 0 0 0 0 0 0 0 0 0 0 0 0 0 0 0 0 0 0 0 0 10 0 0 0 0 255 
239 251 251 251 251 251 251 251 251 251 251 251 251 251 251 251 251 236 255 
0 22 0 0 1 3 0 0 0 0 0 0 0 0 0 0 0 0 0 0 0 0 0 0 0 0 0 0 0 0 0 0 1 0 0 15 5 0 
236 255 246 250 255 234 251 255 251 251 251 251 251 251 251 251 255 255 241 
249 255 247 248 0 0 0 0 0 0 0 0 0 0 0 0 0 0 0 0 0 0 0 0 0 0 10 0 19 7 0 255 
255 251 251 251 251 251 251 251 251 251 251 251 251 251 251 251 251 255 248 
0 0 9 10 0 5 0 0 0 0 0 0 0 0 0 0 0 0 0 0 0 0 0 0 0 0 0 0 0 0 2 6 0 1 12 0 0 17 
255 238 251 255 250 255 249 243 251 251 251 251 251 251 251 251 233 255 250 
255 229 255 238 16 0 0 0 0 0 0 0 0 0 0 0 0 0 0 0 0 0 0 0 0 2 13 7 0 0 0 0 237 
251 251 251 251 251 251 251 251 251 251 251 251 251 251 251 251 252 253 7 17 
0 1 21 0 0 0 0 0 0 0 0 0 0 0 0 0 0 0 0 0 0 0 0 0 0 0 0 0 1 0 10 5 2 12 22 0 246 
242 255 249 232 255 255 248 251 251 251 251 251 251 251 251 255 238 251 255 
254 234 251 0 0 0 0 0 0 0 0 0 0 0 0 0 0 0 0 0 0 0 0 0 2 0 0 20 1 6 2 255 251 
251 251 251 251 251 251 251 251 251 251 251 251 251 251 251 254 229 0 6 9 0 0 
11 0 0 0 0 0 0 0 0 0 0 0 0 0 0 0 0 0 0 0 0 0 0 0 0 4 5 6 0 0 0 0 255 255 255 
248 250 253 249 249 255 251 251 251 251 251 251 251 251 255 255 254 247 244 
255 1 13 0 0 0 0 0 0 0 0 0 0 0 0 0 0 0 0 0 0 0 0 7 0 17 0 0 4 0 254 251 251 
251 251 251 251 251 251 251 251 251 251 251 251 251 251 255 255 255 0 0 4 0 6 
0 0 0 0 0 0 0 0 0 0 0 0 0 0 0 0 0 0 0 0 0 0 0 0 0 0 8 0 7 35 0 255 234 252 237 
252 255 245 246 252 251 251 251 251 251 251 251 251 253 225 255 254 240 255 
0 0 0 0 0 0 0 0 0 0 0 0 0 0 0 0 0 0 0 0 0 0 5 0 0 10 0 0 31 232 251 251 251 
251 251 251 251 251 251 251 251 251 251 251 251 251 244 237 255 13 1 7 0 0 0 0 
0 0 0 0 0 0 0 0 0 0 0 0 0 0 0 0 0 0 0 0 0 0 8 11 0 0 4 0 14 237 248 255 255 
245 241 244 255 255 251 251 251 251 251 251 251 251 255 241 251 250 252 247 
11 0 0 0 0 0 0 0 0 0 0 0 0 0 0 0 0 0 0 0 0 0 0 14 0 1 0 9 0 255 251 251 251 
251 251 251 251 251 251 251 251 251 251 251 251 251 254 253 243 4 0 1 0 6 0 0 
0 0 0 0 0 0 0 0 0 0 0 0 0 0 0 0 0 0 0 0 0 0 0 5 0 3 0 2 255 254 252 240 253 
255 248 255 253 241 251 251 251 251 251 251 251 251 238 255 247 247 255 0 0 4 
0 0 0 0 0 0 0 0 0 0 0 0 0 0 0 0 0 0 0 0 8 0 14 0 4 0 13 241 255 245 255 255 
245 255 255 253 251 251 251 251 251 251 251 251 252 244 254 242 2 0 0 1 0 0 0 
0 0 0 0 0 0 0 0 0 0 0 0 0 0 0 0 0 0 0 0 0 0 7 0 5 0 0 251 246 251 251 251 251 
251 251 251 251 251 251 251 251 251 251 251 251 255 243 255 253 255 0 1 4 0 0 
0 0 0 0 0 0 0 0 0 0 0 0 0 0 0 0 0 0 0 0 17 0 1 5 0 15 239 255 244 244 254 240 
253 255 251 251 251 251 251 251 251 251 255 249 245 255 0 0 21 0 0 0 0 0 0 0 0 
0 0 0 0 0 0 0 0 0 0 0 0 0 0 0 0 0 2 0 0 0 3 1 255 254 251 251 251 251 251 251 
251 251 251 251 251 251 251 251 251 251 244 241 255 247 0 0 7 0 0 0 0 0 0 0 0 
0 0 0 0 0 0 0 0 0 0 0 0 0 8 2 0 1 0 0 13 0 254 245 248 255 255 252 239 252 251 
251 251 251 251 251 251 251 240 255 255 248 1 11 0 0 0 0 0 0 0 0 0 0 0 0 0 0 0 
0 0 0 0 0 0 0 0 0 0 0 0 28 0 20 5 249 242 245 251 251 251 251 251 251 251 251 
251 251 251 251 251 251 251 251 255 253 238 255 0 8 8 0 0 0 0 0 0 0 0 0 0 0 0 
0 0 0 0 0 0 0 0 0 3 0 0 19 2 0 9 5 0 255 248 241 255 246 255 247 251 251 251 
251 251 251 251 251 255 245 232 255 249 0 15 0 0 0 0 0 0 0 0 0 0 0 0 0 0 0 0 0 
0 0 0 0 0 0 0 0 6 0 5 0 0 255 255 255 251 251 251 251 251 251 251 251 251 251 
251 251 251 251 251 251 244 242 249 255 2 10 0 3 0 0 0 0 0 0 0 0 0 0 0 0 0 0 0 
0 0 0 0 0 0 2 2 0 1 3 0 0 7 225 247 255 245 255 247 247 251 251 251 251 251 
251 251 251 247 253 255 250 250 17 0 5 0 0 0 0 0 0 0 0 0 0 0 0 0 0 0 0 0 0 0 0 
0 0 0 0 3 0 10 2 255 249 242 244 251 251 251 251 251 251 251 251 251 251 251 
251 251 251 251 251 255 255 255 0 0 5 0 6 0 0 0 0 0 0 0 0 0 0 0 0 0 0 0 0 0 0 
0 0 0 5 6 0 0 14 0 17 1 255 255 247 242 241 252 255 251 251 251 251 251 251 
251 251 255 242 250 250 245 0 1 3 0 0 0 0 0 0 0 0 0 0 0 0 0 0 0 0 0 0 0 0 0 0 
0 0 0 8 8 0 255 238 253 255 251 251 251 251 251 251 251 251 251 251 251 251 
251 251 251 251 245 242 249 5 20 0 28 0 0 0 0 0 0 0 0 0 0 0 0 0 0 0 0 0 0 0 0 
0 0 0 7 10 6 0 0 3 0 18 226 255 255 255 241 251 251 251 251 251 251 251 251 
251 251 239 255 255 255 235 20 0 0 0 0 0 0 0 0 0 0 0 0 0 0 0 0 0 0 0 0 0 0 0 0 
0 0 7 0 0 247 255 241 244 251 251 251 251 251 251 251 251 251 251 251 251 251 
251 251 251 254 255 1 3 0 0 0 2 0 0 0 0 0 0 0 0 0 0 0 0 0 0 0 0 0 0 0 0 10 0 0 
3 0 0 11 0 13 0 255 252 245 254 249 255 251 251 251 251 251 251 251 251 250 
249 255 235 252 255 0 7 0 0 0 0 0 0 0 0 0 0 0 0 0 0 0 0 0 0 0 0 0 0 0 0 4 1 0 
255 253 255 243 255 251 251 251 251 251 251 251 251 251 251 251 251 251 251 
251 251 246 251 0 0 5 0 7 0 0 0 0 0 0 0 0 0 0 0 0 0 0 0 0 0 0 0 0 0 0 0 0 0 0 
0 0 0 0 4 250 248 247 255 255 249 251 251 251 251 251 251 251 251 255 242 255 
248 242 246 255 0 1 0 0 5 0 0 18 0 0 0 0 0 0 0 0 0 2 0 5 8 0 7 0 0 0 7 0 236 
251 255 242 255 251 251 251 251 251 251 251 251 253 254 246 250 252 248 255 
240 255 0 10 0 0 11 7 1 0 0 0 0 0 0 0 0 0 0 0 0 0 0 0 0 0 0 0 0 0 0 0 0 0 0 0 
0 2 0 0 251 255 255 238 254 251 251 251 251 251 251 251 251 255 241 245 242 
255 255 227 23 2 11 0 4 13 0 0 0 0 0 0 0 0 0 0 0 0 1 0 1 0 1 0 16 0 0 252 255 
255 253 239 247 251 251 251 251 251 251 251 251 248 255 250 242 255 255 232 
255 237 0 0 12 7 0 0 0 0 0 0 0 0 0 0 0 0 0 0 0 0 0 0 0 0 0 0 0 0 0 0 0 0 0 0 0 
0 6 10 245 247 246 255 253 251 251 251 251 251 251 251 251 244 255 255 242 253 
242 255 230 0 0 21 0 0 2 9 6 0 0 0 0 0 0 0 0 0 4 0 0 14 3 0 0 0 249 255 244 
236 255 245 255 251 251 251 251 251 251 251 251 246 255 244 255 246 247 244 
249 252 36 0 0 0 0 2 8 0 0 0 0 0 0 0 0 0 0 0 0 0 0 0 0 0 0 0 0 0 0 0 0 0 0 0 0 
0 0 0 0 255 245 249 240 251 251 251 251 251 251 251 251 248 255 255 246 255 
249 243 255 0 4 0 0 26 0 9 0 0 0 0 0 0 0 0 0 0 7 6 1 0 0 20 14 2 253 244 255 
240 252 255 244 251 251 251 251 251 251 251 251 249 255 236 255 242 244 255 
240 5 0 0 8 4 0 5 1 0 0 0 0 0 0 0 0 0 0 0 0 0 0 0 0 0 0 0 0 0 0 0 0 0 0 0 0 10 
1 5 0 251 255 253 252 251 251 251 251 251 251 251 251 253 244 245 250 255 255 
231 237 250 0 7 5 0 0 9 6 0 0 0 0 0 0 0 0 3 0 0 5 0 2 8 0 255 251 250 255 255 
253 255 237 251 251 251 251 251 251 251 251 249 244 255 250 255 243 236 253 
12 7 5 0 3 7 13 0 0 0 0 0 0 0 0 0 0 0 0 0 0 0 0 0 0 0 0 0 0 0 0 0 0 0 0 0 0 0 
4 3 5 240 244 254 251 251 251 251 251 251 251 251 251 247 255 253 237 248 255 
255 255 0 0 10 0 7 13 0 0 0 0 0 0 0 0 0 7 0 0 9 0 9 0 21 230 255 238 254 253 
235 245 255 251 251 251 251 251 251 251 251 253 255 233 243 232 255 255 0 0 3 
10 4 0 0 0 3 0 0 0 0 0 0 0 0 0 0 0 0 0 0 0 0 0 0 0 0 0 0 0 0 0 0 0 0 0 12 0 0 
0 253 255 248 251 251 251 251 251 251 251 251 255 250 251 250 254 250 253 235 
246 252 0 0 28 0 3 0 0 0 0 0 0 0 0 0 0 10 6 9 0 0 24 228 255 245 255 238 247 
255 255 236 251 251 251 251 251 251 251 251 243 245 255 244 255 246 0 11 12 0 
0 0 7 7 0 0 0 0 0 0 0 0 0 0 0 0 0 0 0 0 0 0 0 0 0 0 0 0 0 0 0 0 0 0 1 0 0 3 2 
0 246 254 251 251 251 251 251 251 251 251 249 254 246 243 255 244 255 252 252 
250 11 0 0 14 0 5 0 0 0 0 0 0 0 0 0 9 0 3 9 5 0 255 255 255 245 255 249 248 
252 254 251 251 251 251 251 251 251 251 255 245 242 250 248 255 0 0 0 0 4 2 0 
1 0 4 0 0 0 0 0 0 0 0 0 0 0 0 0 0 0 0 0 0 0 0 0 0 0 0 0 0 0 0 3 11 0 0 5 11 243 
249 253 238 255 253 248 255 249 249 251 251 251 251 251 251 251 251 248 255 
246 9 0 16 0 6 0 0 0 0 0 0 0 0 7 0 4 1 3 0 255 251 251 251 251 251 251 251 251 
251 251 251 251 251 251 251 251 251 243 255 249 252 255 0 10 0 0 0 0 0 0 0 0 0 
0 0 0 0 0 0 0 0 0 0 0 0 0 0 0 0 0 0 0 0 0 0 0 0 0 0 0 0 0 0 14 10 11 0 2 255 
253 255 254 253 250 239 252 251 251 251 251 251 251 251 251 251 255 240 255 
0 16 0 8 7 0 0 0 0 0 0 0 0 0 0 5 3 8 8 237 253 251 251 251 251 251 251 251 251 
251 251 251 251 251 251 251 251 255 244 255 252 237 9 0 0 0 0 0 0 0 0 0 0 0 0 
0 0 0 0 0 0 0 0 0 0 0 0 0 0 0 0 0 0 0 0 0 0 0 0 0 0 6 5 0 0 0 6 9 247 241 254 
252 233 255 251 248 255 251 251 251 251 251 251 251 251 255 255 243 255 0 9 0 
0 0 0 0 0 0 0 0 0 6 3 3 0 0 255 238 251 251 251 251 251 251 251 251 251 251 
251 251 251 251 251 251 251 252 246 244 249 9 6 0 0 0 0 0 0 0 0 0 0 0 0 0 0 0 
0 0 0 0 0 0 0 0 0 0 0 0 0 0 0 0 0 0 0 0 0 0 0 0 8 0 10 0 0 1 0 255 244 243 255 
242 249 241 251 251 251 251 251 251 251 251 251 235 255 254 242 255 0 0 18 0 0 
0 0 0 0 0 0 0 2 0 0 0 247 255 255 251 251 251 251 251 251 251 251 251 251 251 
251 251 251 251 251 243 255 251 10 0 0 9 3 0 0 0 0 0 0 0 0 0 0 0 0 0 0 0 0 0 0 
0 0 0 0 0 0 0 0 0 0 0 0 0 0 0 0 0 0 4 5 7 0 5 8 0 8 0 255 253 241 235 255 247 
254 251 251 251 251 251 251 251 251 251 245 255 243 250 13 0 1 0 0 0 0 0 0 0 0 
2 0 0 7 6 233 255 223 251 251 251 251 251 251 251 251 251 251 251 251 251 251 
251 251 235 255 254 0 13 9 0 1 0 0 0 0 0 0 0 0 0 0 0 0 0 0 0 0 0 0 0 0 0 0 0 0 
0 0 0 0 0 0 0 0 0 0 0 0 0 2 5 0 1 0 0 3 7 5 243 255 255 255 254 244 251 251 
251 251 251 251 251 251 255 245 231 255 243 245 18 6 0 0 0 0 0 0 0 0 11 0 0 2 
0 245 255 255 251 251 251 251 251 251 251 251 251 251 251 251 251 251 251 251 
255 255 0 7 0 0 14 0 0 0 0 0 0 0 0 0 0 0 0 0 0 0 0 0 0 0 0 0 0 0 0 0 0 0 0 0 0 
0 0 0 0 0 0 0 0 4 0 11 0 0 23 0 0 0 0 16 237 237 255 246 251 251 251 251 251 
251 251 251 236 253 255 253 246 255 0 0 0 0 0 0 0 0 0 0 0 2 3 0 0 16 210 255 
251 251 251 251 251 251 251 251 251 251 251 251 251 251 251 251 242 0 6 7 0 0 
23 0 0 0 0 0 0 0 0 0 0 0 0 0 0 0 0 0 0 0 0 0 0 0 0 0 0 0 0 0 0 0 0 0 0 0 0 0 2 
0 7 0 6 0 4 0 7 0 3 0 7 255 250 250 251 251 251 251 251 251 251 251 252 255 
241 247 255 243 2 9 0 0 0 0 0 0 0 0 7 1 0 0 3 0 6 0 251 251 251 251 251 251 
251 251 251 251 251 251 251 251 251 251 252 8 0 0 0 5 0 3 0 0 0 0 0 0 0 0 0 0 
0 0 0 0 0 0 0 0 0 0 0 0 0 0 0 0 0 0 0 0 0 0 0 0 0 0 0 0 0 0 0 0 0 0 3 0 7 0 1 
4 247 251 250 250 250 250 250 250 250 250 255 246 253 255 241 0 12 0 0 0 0 0 0 
0 0 0 0 0 0 0 0 0 0 0 0 0 255 255 247 255 242 247 243 255 233 255 255 240 249 
249 0 0 0 0 0 0 0 0 0 0 0 0 0 0 0 0 0 0 0 0 0 0 0 0 0 0 0 0 0 0 0 0 0 0 0 0 0 
0 0 0 0 0 0 0 0 0 0 0 0 0 0 0 0 0 7 8 14 0 34 0 2 2 2 2 2 2 2 2 0 10 0 1 16 0 
19 10 0 0 0 0 0 0 0 0 0 0 0 0 0 0 0 0 0 9 0 0 0 10 246 255 255 227 255 246 251 
4 9 1 0 0 0 0 0 0 0 0 0 0 0 0 0 0 0 0 0 0 0 0 0 0 0 0 0 0 0 0 0 0 0 0 0 0 0 0 
0 0 0 0 0 0 0 0 0 0 0 0 0 0 0 0 3 4 0 0 0 1 0 0 0 0 0 0 0 0 0 0 1 5 0 0 0 15 
0 0 0 0 0 0 0 0 0 0 0 0 0 0 0 0 0 0 3 0 10 9 0 0 19 0 0 9 0 0 1 0 0 2 0 0 0 0 
0 0 0 0 0 0 0 0 0 0 0 0 0 0 0 0 0 0 0 0 0 0 0 0 0 0 0 0 0 0 0 0 0 0 0 0 0 0 0 
0 0 0 0 0 0 0 0 0 0 4 6 0 0 10 0 29 0 0 0 0 0 0 0 0 7 0 3 0 11 0 0 17 0 0 0 0 
0 0 0 0 0 0 0 0 0 0 0 0 5 0 0 0 5 11 3 0 1 17 0 0 7 16 6 0 0 0 0 0 0 0 0 0 0 0 
0 0 0 0 0 0 0 0 0 0 0 0 0 0 0 0 0 0 0 0 0 0 0 0 0 0 0 0 0 0 0 0 0 0 0 0 0 0 0 
0 0 0 2 0 3 3 4 0 0 0 1 1 1 1 1 1 1 1 2 7 12 0 2 0 3 2 0 0 0 0 0 0 0 0 0 0 0 0 
0 0 0 0 0 16 0 0 0 0 8 10 2 0 0 0 13 0 3 10 0 0 0 0 0 0 0 0 0 0 0 0 0 0 0 0 0 
0 0 0 0 0 0 0 0 0 0 0 0 0 0 0 0 0 0 0 0 0 0 0 0 0 0 0 0 0 0 0 0 0 0 0 9 0 0 0 
1 0 23 0 0 0 0 0 0 0 0 0 0 9 0 0 10 5 6 0 0 0 0 0 0 0 0 0 0 0 0 0 0 0 0 0 0 0 
12 2 2 8 0 6 0 14 14 6 2 1 0 0 0 0 0 0 0 0 0 0 0 0 0 0 0 0 0 0 0 0 0 0 0 0 0 0 
0 0 0 0 0 0 0 0 0 0 0 0 0 0 0 0 0 0 0 0 0 0 0 0 0 0 0 0 0 0 4 2 1 0 7 1 1 1 1 
1 1 1 1 1 14 9 0 1 4 0 0 8 0 0 0 0 0 0 0 0 0 0 0 0 0 0 0 0 2 2 0 0 7 0 1 0 11 
0 0 0 10 0 0 11 0 0 0 0 0 0 0 0 0 0 0 0 0 0 0 0 0 0 0 0 0 0 0 0 0 0 0 0 0 0 0 
0 0 0 0 0 0 0 0 0 0 0 0 0 0 0 0 0 0 0 0 0 3 7 0 0 2 4 0 0 0 0 0 0 0 0 0 0 0 0 
13 0 8 0 0 3 0 0 0 0 0 0 0 0 0 0 0 0 0 0 0 0 2 0 11 0 1 1 0 6 0 6 0 2 0 12 0 0 
0 0 0 0 0 0 0 0 0 0 0 0 0 0 0 0 0 0 0 0 0 0 0 0 0 0 0 0 0 0 0 0 0 0 0 0 0 0 0 
0 0 0 0 0 0 0 0 0 0 0 0 0 0 0 0 0 0 0 0 0 0 0 0 0 0 0 0 0 0 0 0 0 0 0 0 0 0 0 
0 0 0 0 0 0 0 0 0 0 0 0 0 0 0 0 0 0 0 0 0 0 0 0 0 0 0 0 0 0 0 0 0 0 0 0 0 0 0 
0 0 0 0 0 0 0 0 0 0 0 0 0 0 0 0 0 0 0 0 0 0 0 0 0 0 0 0 0 0 0 0 0 0 0 0 0 0 0 
0 0 0 0 0 0 0 0 0 0 0 0 0 0 0 0 0 0 0 0 0 0 0 0 0 0 0 0 0 0 0 0 0 0 0 0 0 0 0 
0 0 0 0 0 0 0 0 0 0 0 0 0 0 0 0 0 0 0 0 0 0 0 0 0 0 0 0 0 0 0 0 0 0 0 0 0 0 0 
0 0 0 0 0 0 0 0 0 0 0 0 0 0 0 0 0 0 0 0 0 0 0 0 0 0 0 0 0 0 0 0 0 0 0 0 0 0 0 
0 0 0 0 0 0 0 0 0 0 0 0 0 0 0 0 0 0 0 0 0 0 0 0 0 0 0 0 0 0 0 0 0 0 0 0 0 0 0 
0 0 0 0 0 0 0 0 0 0 0 0 0 0 0 0 0 0 0 0 0 0 0 0 0 0 0 0 0 0 0 0 0 0 0 0 0 0 0 
0 0 0 0 0 0 0 0 0 0 0 0 0 0 0 0 0 0 0 0 0 0 0 0 0 0 0 0 0 0 0 0 0 0 0 0 0 0 0 
0 0 0 0 0 0 0 0 0 0 0 0 0 0 0 0 0 0 0 0 0 0 0 0 0 0 0 0 0 0 0 0 0 0 0 0 0 0 0 
0 0 0 0 0 0 0 0 0 0 0 0 0 0 0 0 0 0 0 0 0 0 0 0 0 0 0 0 0 0 0 0 0 0 0 0 0 0 0 
0 0 0 0 0 0 0 0 0 0 0 0 0 0 0 0 0 0 0 0 0 0 0 0 0 0 0 0 0 0 0 0 0 0 0 0 0 0 0 
0 0 0 0 0 0 0 0 0 0 0 0 0 0 0 0 0 0 0 0 0 0 0 0 0 0 0 0 0 0 0 0 0 0 0 0 0 0 0 
0 0 0 0 0 0 0 0 0 0 0 0 0 0 0 0 0 0 0 0 0 0 
